<?xml version="1.0" encoding="UTF-8" standalone="no"?>
<!-- Created with Inkscape (http://www.inkscape.org/) -->

<svg
   xmlns:dc="http://purl.org/dc/elements/1.1/"
   xmlns:cc="http://creativecommons.org/ns#"
   xmlns:rdf="http://www.w3.org/1999/02/22-rdf-syntax-ns#"
   xmlns:svg="http://www.w3.org/2000/svg"
   xmlns="http://www.w3.org/2000/svg"
   xmlns:sodipodi="http://sodipodi.sourceforge.net/DTD/sodipodi-0.dtd"
   xmlns:inkscape="http://www.inkscape.org/namespaces/inkscape"
   width="100%"
   height="100%"
   viewBox="0 0 210 210"
   version="1.1"
   id="svg8"
   inkscape:version="0.92.3 (2405546, 2018-03-11)"
   sodipodi:docname="Balance.svg">
  <defs
     id="defs2" />
  <sodipodi:namedview
     id="base"
     pagecolor="#ffffff"
     bordercolor="#666666"
     borderopacity="1.0"
     inkscape:pageopacity="0.0"
     inkscape:pageshadow="2"
     inkscape:zoom="0.35"
     inkscape:cx="400"
     inkscape:cy="560"
     inkscape:document-units="mm"
     inkscape:current-layer="layer1"
     showgrid="false"
     inkscape:window-width="1920"
     inkscape:window-height="1057"
     inkscape:window-x="-8"
     inkscape:window-y="-8"
     inkscape:window-maximized="1" />
  <metadata
     id="metadata5">
    <rdf:RDF>
      <cc:Work
         rdf:about="">
        <dc:format>image/svg+xml</dc:format>
        <dc:type
           rdf:resource="http://purl.org/dc/dcmitype/StillImage" />
        <dc:title></dc:title>
      </cc:Work>
    </rdf:RDF>
  </metadata>
  <g
     inkscape:label="Livello 1"
     inkscape:groupmode="layer"
     id="layer1">
    <path
       inkscape:connector-curvature="0"
       id="path43"
       d="m 82.39146,206.3836 c -3.535657,-0.26159 -8.822517,-1.04295 -11.748578,-1.73634 -11.85678,-2.80972 -15.932964,-6.32923 -13.729765,-11.85476 2.083533,-5.22539 13.456107,-9.83292 29.661373,-12.01709 2.973308,-0.40075 5.339148,-1.04299 6.118034,-1.66084 l 1.26999,-1.00742 -0.189848,-8.04013 c -0.19652,-8.32264 -0.310003,-9.88195 -0.921501,-12.66179 -0.487934,-2.21816 0.05207,-2.9581 3.991107,-5.46884 2.262799,-1.44232 3.281668,-2.41961 3.278948,-3.14516 -0.002,-0.57895 -0.999684,-2.61478 -2.216712,-4.52408 -1.217024,-1.90929 -2.212772,-3.81548 -2.212772,-4.23597 0,-0.42049 -0.429785,-1.49824 -0.955075,-2.395 -0.884455,-1.50991 -0.905328,-1.74697 -0.282289,-3.20586 0.370031,-0.86645 0.787975,-2.58582 0.928762,-3.82081 0.140784,-1.235 1.003688,-4.31591 1.917563,-6.84648 L 98.962283,119.162 99.50321,89.692385 c 0.2975,-16.208287 0.65397,-33.505013 0.79216,-38.43717 0.27345,-9.761038 0.0392,-11.07338 -2.106006,-11.796378 -2.269909,-0.765041 -1.65889,-3.021341 1.423023,-5.254751 2.320573,-1.681677 1.779343,-2.43971 -1.371431,-1.9208 -4.205876,0.692678 -11.915665,0.425803 -17.818013,-0.616771 -9.31922,-1.646122 -19.356907,-2.694492 -25.822367,-2.696977 -7.132473,-0.0027 -8.42076,-0.413855 -8.803178,-2.809251 -0.511108,-3.201479 -1.044156,-4.224631 -2.548269,-4.891229 -1.048846,-0.46483 -1.879464,-0.487693 -2.689681,-0.07403 -0.644719,0.329163 -1.172216,0.697393 -1.172216,0.818287 0,0.120895 0.498517,0.998219 1.107815,1.949609 1.330484,2.077487 1.362651,2.624391 0.264615,4.49892 -0.687138,1.173059 -0.872287,2.656236 -0.994743,7.968618 -0.153657,6.665934 -0.03442,7.480589 1.93505,13.22065 0.476671,1.389268 0.7736,2.862749 0.659842,3.274401 -0.121634,0.440153 -0.389519,0.135369 -0.650329,-0.739904 -1.41412,-4.745761 -1.881198,-5.953457 -2.302505,-5.953457 -0.326329,0 -0.434277,13.255771 -0.355129,43.609073 l 0.113713,43.609065 7.315152,0.4333 c 6.910912,0.40935 18.419127,1.95096 19.773335,2.64879 0.889092,0.45815 0.791406,-1.63865 -0.219113,-4.70336 -0.461742,-1.40038 -1.291821,-4.01963 -1.844616,-5.82055 -0.552795,-1.80092 -1.37203,-4.36363 -1.820524,-5.69491 -0.872179,-2.58895 -1.093832,-4.46161 -0.41464,-3.50318 0.220434,0.31107 1.535082,4.45021 2.921432,9.19809 1.386354,4.74788 2.777741,9.1761 3.091969,9.84047 0.314232,0.66438 1.643014,1.66596 2.952856,2.22574 5.417411,2.31523 6.743245,5.20671 3.874025,8.44875 -3.052329,3.44895 -7.54526,5.45384 -16.344475,7.29342 -7.226404,1.51077 -33.431695,1.50741 -40.322378,-0.005 -11.6257423,-2.55177 -17.3121541,-6.03824 -17.3121541,-10.6143 0,-1.67971 6.5394764,-19.91715 6.9460198,-19.37123 0.1156388,0.15529 -0.9011483,3.38694 -2.2595272,7.18145 -1.3583789,3.7945 -2.4697798,7.169 -2.4697798,7.49888 0,0.80884 0.2252877,0.76951 3.5088461,-0.61256 3.2805022,-1.38079 15.2730922,-3.31278 23.9783922,-3.8629 3.291818,-0.20802 6.328947,-0.5065 6.749175,-0.6633 0.714165,-0.26648 0.764823,-3.13754 0.775879,-43.972743 0.0071,-26.092413 -0.153086,-43.824528 -0.397642,-44.027494 -0.464792,-0.385745 -2.245481,2.712827 -2.260502,3.933491 -0.01038,0.843908 -1.736668,4.110239 -1.753654,3.318119 -0.0054,-0.252849 0.787336,-2.588879 1.761684,-5.191178 l 1.771543,-4.731454 -0.257139,-7.391081 c -0.244977,-7.041503 -0.212979,-7.432616 0.676519,-8.269255 0.852379,-0.801725 0.870902,-0.948113 0.212781,-1.68157 -1.105046,-1.231544 -1.548493,-3.336249 -1.063695,-5.048548 1.17073,-4.134999 8.872175,-4.335799 12.177715,-0.31751 0.74963,0.911265 1.994306,1.145933 7.764547,1.463914 3.779495,0.208276 10.163628,0.793027 14.186961,1.299446 12.455771,1.567812 20.952635,1.769103 25.287151,0.599053 6.074616,-1.639768 6.216976,-1.904911 7.460866,-13.8956639 1.19372,-11.5070148 1.51726,-11.4776478 2.77465,0.251853 1.0821,10.0942569 1.58624,11.4382309 4.84325,12.9116319 3.65224,1.652192 13.05767,1.953278 22.58873,0.723108 12.15314,-1.5686 17.61502,-2.084695 22.22368,-2.099918 3.42634,-0.01132 4.38833,-0.208867 4.87676,-1.001467 1.66792,-2.706564 6.89818,-4.013222 10.08764,-2.520161 2.59345,1.214049 3.24555,5.351825 1.20232,7.628956 -0.6566,0.731755 -0.65122,0.861842 0.0647,1.565084 0.68811,0.675977 0.76248,1.640341 0.62672,8.126807 -0.13975,6.676728 -0.0627,7.595258 0.83059,9.896566 1.09491,2.820849 0.96479,3.963987 -0.18337,1.610888 -0.40441,-0.828819 -0.9357,-1.506944 -1.18065,-1.506944 -0.68642,0 -0.52502,87.2613 0.16277,87.9969 0.28859,0.30864 3.31776,0.74187 6.7315,0.96272 8.93512,0.57806 20.89621,2.50204 24.20006,3.89265 3.25062,1.36821 3.50885,1.41693 3.50885,0.66214 0,-0.30262 -1.50429,-4.75697 -3.34285,-9.89855 -1.83858,-5.14158 -3.26023,-9.4593 -3.15923,-9.59492 0.37542,-0.50414 8.71841,22.60381 8.70893,24.12151 -0.0345,5.52666 -8.54168,9.67132 -23.49523,11.44678 -7.89978,0.93797 -28.2742,0.39917 -34.57278,-0.91426 -11.02594,-2.29922 -17.29036,-6.11815 -17.29036,-10.54059 0,-1.9934 1.10233,-3.08763 5.00406,-4.96723 3.04914,-1.46888 3.1509,-1.65355 5.73852,-10.4141 0.72537,-2.4558 1.52498,-4.733 1.77692,-5.06044 0.6524,-0.84794 0.26086,0.79189 -1.77688,7.44182 -0.95321,3.11068 -1.56069,5.80971 -1.34996,5.99784 0.21073,0.18813 1.97943,0.001 3.93045,-0.41594 3.33498,-0.71262 14.39439,-1.866 20.81426,-2.17072 l 2.88173,-0.13678 0.11371,-43.609065 c 0.0625,-23.98499 -0.0472,-43.609073 -0.24384,-43.609073 -0.54999,0 -1.42157,1.339731 -1.42157,2.185136 0,0.415968 -0.47328,2.170749 -1.05174,3.899514 -0.57845,1.728764 -1.59628,5.018547 -2.26183,7.310628 -1.08378,3.732413 -2.00654,5.985963 -2.00654,4.900338 0,-0.219027 1.41671,-5.027932 3.14824,-10.686454 l 3.14824,-10.288218 -0.0677,-6.791635 c -0.0573,-5.742683 -0.20114,-7.019392 -0.93153,-8.266291 -1.13298,-1.934175 -1.09033,-2.710548 0.25606,-4.661421 1.38193,-2.002368 0.93502,-2.768484 -1.61496,-2.768484 -2.07159,0 -3.48925,1.598808 -3.50178,3.949232 -0.0172,3.229192 -1.66143,3.951866 -8.99976,3.955616 -6.18975,0.0032 -17.24437,1.15215 -26.45152,2.749298 -3.91823,0.679688 -7.6703,0.885556 -12.75543,0.699866 -4.97977,-0.181842 -7.20432,-0.06473 -7.20432,0.379269 0,0.353289 0.89777,1.370537 1.99504,2.260552 2.20677,1.789944 2.54828,3.118017 0.94109,3.6597 -0.57968,0.195371 -1.39379,1.051702 -1.80915,1.902958 -0.70133,1.437356 -0.71892,3.23174 -0.24659,25.160346 0.27973,12.986937 0.65172,30.310253 0.82664,38.496248 l 0.31804,14.88365 1.62578,4.77304 c 0.89419,2.62517 1.76153,5.91295 1.92743,7.30618 0.1659,1.39322 0.47494,2.67696 0.68675,2.85275 1.11993,0.92947 -0.59699,5.93309 -3.92884,11.44977 -1.05076,1.7398 -1.78993,3.42517 -1.64261,3.74529 0.14733,0.3201 1.77712,1.57922 3.62176,2.79804 3.82089,2.52458 4.51708,3.54395 3.81422,5.5848 -0.96069,2.78949 -1.25453,6.31228 -1.12081,13.43687 0.13619,7.25585 0.14353,7.30041 1.34,8.13127 0.66169,0.45948 4.19115,1.28448 7.84324,1.83332 12.8314,1.92832 22.80187,5.5682 26.31552,9.60691 1.57042,1.80509 1.82675,2.43118 1.82675,4.46179 0,5.10268 -4.33775,7.56131 -18.39408,10.42576 -5.16894,1.05334 -41.669958,1.6201 -52.54073,0.81581 z m 55.0141,-6.59715 c 1.75179,-0.61283 -3.08079,-0.17383 -7.1331,0.64798 -1.90519,0.38638 -1.55722,0.42743 1.59132,0.18775 2.21634,-0.16872 4.71014,-0.5448 5.54178,-0.83573 z m 3.38705,-0.91014 c -0.14732,-0.19783 -0.52971,-0.21898 -0.84975,-0.047 -0.35366,0.19005 -0.24861,0.33112 0.26786,0.35969 0.46735,0.0258 0.7292,-0.11486 0.58189,-0.31269 z M 7.9099108,122.73964 c 0,-0.72063 1.4004215,-3.97923 1.5967935,-3.71554 0.2927297,0.3931 -0.573175,3.22838 -1.1261043,3.68728 -0.2588792,0.21484 -0.4706892,0.22757 -0.4706892,0.0283 z M 146.67613,121.26172 c 0,-1.14076 1.33154,-4.97519 1.6017,-4.6124 0.3303,0.44353 -0.64312,4.46645 -1.1907,4.9209 -0.22605,0.18761 -0.411,0.0488 -0.411,-0.3085 z M 9.683281,117.95433 c 0,-0.69343 2.73143,-7.52745 2.911781,-7.28526 0.106518,0.14304 -0.420877,1.91153 -1.171988,3.92999 -1.225472,3.2932 -1.739793,4.28509 -1.739793,3.35527 z M 198.54721,114.6969 c -0.76345,-2.03091 -1.28833,-3.82651 -1.16641,-3.99023 0.12192,-0.16372 0.84631,1.36398 1.60975,3.39489 0.76345,2.03091 1.28833,3.82651 1.16641,3.99023 -0.12192,0.16372 -0.84631,-1.36398 -1.60975,-3.39489 z m -137.523651,0.8637 c -0.780132,-1.76774 -4.386174,-14.70111 -4.177169,-14.98177 0.137356,-0.18445 0.464991,0.43854 0.728084,1.38441 1.217197,4.37612 2.812902,9.61175 3.394257,11.13682 0.586976,1.53982 0.636884,3.77943 0.05483,2.46054 z m 87.455751,-0.26835 c 8.9e-4,-0.49116 0.28673,-1.56278 0.6352,-2.38138 0.57922,-1.36063 0.63495,-1.38317 0.64931,-0.26263 0.009,0.67416 -0.2772,1.74578 -0.63521,2.38138 -0.49118,0.87206 -0.65051,0.9365 -0.6493,0.26263 z m 1.74356,-5.55584 c 0,-0.7216 1.26796,-4.56504 1.50601,-4.56504 0.29991,0 -0.644,3.72743 -1.12317,4.43533 -0.21057,0.31107 -0.38284,0.36944 -0.38284,0.12971 z m 41.44941,-13.788704 c -2.85131,-7.740661 -5.07033,-14.226828 -4.93116,-14.413701 0.13916,-0.186873 2.56331,6.023839 5.38699,13.801584 2.82368,7.777751 5.04271,14.263921 4.93116,14.413701 -0.11154,0.14979 -2.53569,-6.06092 -5.38699,-13.801584 z M 13.230021,108.3615 c 0,-0.83197 8.068992,-22.320359 8.276673,-22.041469 0.223735,0.300441 -7.766165,22.423419 -8.098407,22.423419 -0.09805,0 -0.178266,-0.17188 -0.178266,-0.38195 z m 139.014769,-5.57151 c 0.3634,-1.83684 1.08148,-2.979699 1.08148,-1.72122 0,0.49406 -0.30959,1.41834 -0.68797,2.05394 -0.66117,1.11062 -0.6765,1.09766 -0.39351,-0.33272 z M 55.548403,97.729552 c -0.520281,-1.791794 -3.030176,-10.113251 -4.635191,-15.367784 -0.781458,-2.558355 -1.307914,-4.803202 -1.169897,-4.988539 0.138017,-0.185331 0.480078,0.434388 0.760133,1.37716 0.707047,2.38021 1.842643,6.08179 3.965269,12.925217 0.998483,3.21913 1.727671,6.166091 1.620422,6.548803 -0.111151,0.39662 -0.343671,0.183831 -0.540736,-0.494857 z m 98.221207,0.238811 c 0,-0.359815 0.2908,-1.498414 0.64622,-2.530219 0.63295,-1.837523 3.1182,-9.959229 4.67303,-15.271291 0.95722,-3.270377 2.07035,-6.841796 2.8761,-9.227858 0.33172,-0.982321 0.74036,-2.525308 0.9081,-3.428864 0.30997,-1.669742 1.09343,-2.842222 1.09343,-1.636355 0,0.363458 -0.80571,3.259255 -1.79047,6.435103 -2.24838,7.250984 -3.15949,10.206494 -4.53305,14.70445 -3.72855,12.209882 -3.87336,12.619432 -3.87336,10.955034 z M 21.65353,85.197727 c 0,-0.738145 1.412152,-3.928347 1.61708,-3.65316 0.237898,0.319462 -1.055988,3.980398 -1.406794,3.980398 -0.115657,0 -0.210286,-0.147259 -0.210286,-0.327238 z m 1.77337,-4.791884 c 0,-0.762656 9.856085,-27.090287 10.046081,-26.835149 0.22865,0.307043 -9.486573,27.191505 -9.826179,27.191505 -0.120946,0 -0.219902,-0.160356 -0.219902,-0.356356 z m 162.0417,-1.429681 c -0.40171,-1.043177 -0.63064,-2.030641 -0.50872,-2.194361 0.12192,-0.16372 0.55035,0.555839 0.95207,1.599015 0.40171,1.043177 0.63064,2.030641 0.50872,2.194361 -0.12192,0.16372 -0.55035,-0.555838 -0.95207,-1.599015 z M 48.78323,75.255251 C 47.597435,72.124602 42.481566,54.38071 42.685703,54.106584 c 0.122904,-0.165042 0.407574,0.339866 0.632602,1.122018 0.892541,3.10231 4.570561,15.220614 5.129638,16.901084 0.742502,2.231808 1.252315,4.465093 1.019289,4.465093 -0.09715,0 -0.404949,-0.602787 -0.684002,-1.339528 z M 179.47044,62.621664 C 176.76677,55.17391 174.64635,48.95719 174.7584,48.80673 c 0.11205,-0.15046 2.43196,5.798355 5.15538,13.219588 2.72342,7.421235 4.84383,13.637954 4.71204,13.814938 -0.13179,0.176978 -2.45171,-5.771835 -5.15538,-13.219592 z"
       style="fill:#e4d1a6;stroke-width:0.51375294" />
    <path
       inkscape:connector-curvature="0"
       id="path41"
       d="m 87.933242,206.60967 c -14.07496,-0.94329 -26.821493,-4.25522 -29.940413,-7.77942 -1.509098,-1.70518 -1.763067,-4.4242 -0.61825,-6.61904 2.256836,-4.3268 14.249039,-8.8616 28.785292,-10.88505 3.073739,-0.42786 5.499988,-1.10482 6.562423,-1.831 l 1.68566,-1.15214 -0.190757,-8.15807 c -0.104913,-4.48693 -0.316325,-8.96178 -0.469806,-9.9441 -0.804724,-5.15053 -0.805274,-5.14914 3.052702,-7.73949 3.707037,-2.48902 4.422077,-3.75351 3.141477,-5.55552 -1.700499,-2.39289 -3.777293,-6.18728 -4.053894,-7.40665 -0.165447,-0.72937 -0.602024,-1.78699 -0.970167,-2.35027 -0.597825,-0.91471 -0.592225,-1.2424 0.05244,-3.06671 0.396982,-1.1234 0.721788,-2.64726 0.721788,-3.38633 0,-0.73907 0.813804,-3.71614 1.808452,-6.61571 l 1.808448,-5.27194 0.616093,-30.503422 c 0.33885,-16.776878 0.62232,-34.317713 0.62993,-38.979627 l 0.0138,-8.476208 -1.773365,-1.503301 c -0.975353,-0.826816 -1.77337,-1.751126 -1.77337,-2.054021 0,-0.302897 1.005235,-1.285421 2.233852,-2.183389 2.658093,-1.942732 2.859113,-3.576867 0.415115,-3.374553 -6.675116,0.552564 -14.695568,0.206958 -21.047683,-0.906957 -9.848664,-1.727075 -17.398788,-2.494976 -24.531012,-2.494976 -6.821149,0 -8.054666,-0.536316 -8.054666,-3.502055 0,-2.539273 -1.859497,-4.535112 -4.225304,-4.535112 -2.152044,0 -3.334134,1.037596 -2.636541,2.314261 2.217459,4.058171 2.17056,3.86562 1.26766,5.204586 -0.672135,0.996751 -0.887571,2.559908 -1.108469,8.042822 -0.150803,3.743088 -0.403508,6.979274 -0.561567,7.191524 -0.747915,1.004342 -1.098086,-1.332667 -1.22296,-8.161917 -0.121676,-6.654268 -0.05553,-7.457321 0.628861,-7.634311 0.795126,-0.205628 1.091916,-1.896526 0.332882,-1.896526 -0.706712,0 -1.852637,-3.537679 -1.554508,-4.79905 0.476282,-2.015135 2.696505,-3.094259 5.817212,-2.827418 2.290052,0.195815 3.18561,0.599747 4.87502,2.198831 2.018034,1.910136 2.203249,1.964592 7.432975,2.185442 2.949855,0.124571 9.652712,0.703479 14.895237,1.286463 12.988563,1.444364 24.069497,1.425292 28.049738,-0.04828 4.438353,-1.643176 4.819873,-2.586892 6.127163,-15.1563076 0.28349,-2.7256516 0.67122,-4.7349432 0.86164,-4.4650929 0.19042,0.2698503 0.67772,3.571551 1.08292,7.3371125 0.40519,3.765562 0.97242,7.492145 1.26052,8.281298 1.98837,5.446565 11.36958,6.781052 29.56274,4.205334 4.75485,-0.673173 11.937,-1.385601 15.96034,-1.583173 7.219,-0.354501 7.33959,-0.38258 9.17467,-2.136385 3.38432,-3.234426 10.206,-2.826873 10.88312,0.650197 0.26359,1.353581 -0.75892,4.871026 -1.41601,4.871026 -0.78226,0 -0.51554,1.685593 0.3001,1.896526 0.68439,0.17699 0.75054,0.980043 0.62886,7.634311 -0.12488,6.82925 -0.47505,9.166259 -1.22296,8.161917 -0.15806,-0.21225 -0.41076,-3.448436 -0.56157,-7.191524 -0.21269,-5.279376 -0.44818,-7.063629 -1.05003,-7.956118 -1.02416,-1.518715 -0.98651,-1.887016 0.39009,-3.816523 1.44096,-2.019708 1.15625,-3.220583 -0.88552,-3.734948 -2.24257,-0.564951 -4.60281,0.87769 -4.96094,3.032253 -0.57015,3.430057 -0.73999,3.840871 -1.81475,4.389592 -0.6046,0.308683 -3.72972,0.564006 -6.94471,0.567384 -6.68808,0.007 -13.34249,0.691909 -23.8008,2.449611 -6.47095,1.087557 -14.69361,1.450404 -21.26935,0.938566 -2.31183,-0.179947 -2.29969,1.489033 0.0258,3.55566 1.77757,1.579665 1.81559,1.673909 0.8036,1.992394 -0.7001,0.22033 -1.1145,0.833385 -1.21555,1.798256 -0.0843,0.805177 -0.35043,1.786381 -0.59135,2.180453 -0.28874,0.472298 -0.26355,8.892934 0.0739,24.706845 0.28156,13.194695 0.65276,30.69852 0.82487,38.89739 l 0.31294,14.90703 1.62094,4.44171 c 0.89153,2.44293 1.76034,5.51332 1.93071,6.82308 0.17037,1.30976 0.49397,2.8601 0.71911,3.44521 0.2976,0.77342 0.0437,2.10301 -0.93013,4.87081 -0.73671,2.09384 -1.59556,4.02628 -1.90856,4.29429 -0.313,0.26801 -1.1108,1.54267 -1.7729,2.83257 -1.49739,2.91724 -1.28989,3.32734 3.12854,6.18326 3.53917,2.2876 4.07902,3.15928 3.1551,5.09445 -0.42062,0.881 -0.65747,4.1642 -0.78644,10.90176 l -0.18455,9.6411 1.43336,1.17053 c 0.86231,0.7042 2.69321,1.33014 4.59571,1.57116 12.44259,1.57632 20.95508,3.99213 26.29352,7.46201 5.42965,3.52917 6.77573,7.2219 3.82645,10.49723 -2.30329,2.55792 -10.54315,5.14085 -21.63749,6.78266 -4.25969,0.63037 -35.710979,1.22308 -42.117545,0.79372 z m 45.664278,-5.27083 c 6.62962,-1.20943 12.71799,-3.08245 13.80406,-4.24667 0.74359,-0.79711 0.4936,-0.8493 -2.49882,-0.52172 -1.82879,0.20019 -8.91119,1.29815 -15.73866,2.4399 -6.82748,1.14175 -14.08289,2.31612 -16.12315,2.60972 -2.04026,0.2936 -3.8358,0.71422 -3.99008,0.93472 -0.51808,0.74042 19.16823,-0.23477 24.54665,-1.21595 z M 110.32204,157.5618 c 0,-0.32744 -0.38723,-0.59535 -0.86052,-0.59535 -0.47328,0 -0.98382,0.26791 -1.13452,0.59535 -0.1554,0.33765 0.21707,0.59534 0.86052,0.59534 0.62398,0 1.13452,-0.2679 1.13452,-0.59534 z m -3.1834,-133.459648 c -0.20885,-1.905997 -1.25002,-2.11013 -1.25002,-0.245081 0,1.000483 0.24318,1.537977 0.69584,1.537977 0.46212,0 0.64826,-0.434284 0.55418,-1.292896 z M 24.091914,154.17098 C 14.12132,152.96819 6.849442,150.57258 3.1842526,147.28326 1.2241365,145.52417 1.0381012,145.15389 1.0381012,143.01165 v -2.34555 l 4.2117542,-1.74357 c 3.1377197,-1.29896 5.2857886,-1.78605 8.4235086,-1.91013 2.316465,-0.0916 5.408779,-0.46124 6.87181,-0.82143 6.162555,-1.5172 22.54205,-2.33207 30.590636,-1.52187 14.330613,1.44257 21.18476,3.34568 23.697524,6.57978 0.917741,1.1812 1.020676,1.65257 0.660877,3.02641 -1.745063,6.66334 -15.646042,10.38587 -38.10202,10.20332 -6.339799,-0.0516 -12.324923,-0.18997 -13.300277,-0.30763 z m 131.894406,-0.20004 c -9.84441,-1.3489 -16.64754,-3.70555 -19.70097,-6.82456 -4.97678,-5.08365 0.014,-9.45483 12.82916,-11.23642 9.34869,-1.29966 12.11817,-1.54518 18.17705,-1.61142 6.38475,-0.0698 18.66882,0.98122 21.99283,1.88168 1.31505,0.35624 4.38605,0.72661 6.82443,0.82303 3.24309,0.12823 5.42996,0.5913 8.14502,1.72472 2.04137,0.85218 3.88094,1.40887 4.08792,1.23708 0.5412,-0.44915 0.99229,2.44292 0.6591,4.22561 -0.63589,3.40227 -7.38119,7.15721 -16.05018,8.93476 -5.56748,1.14159 -30.62125,1.71467 -36.96436,0.84552 z"
       style="fill:#f0cf60;stroke-width:0.51375294" />
    <path
       inkscape:connector-curvature="0"
       id="path39"
       d="m 87.933242,206.60967 c -14.07496,-0.94329 -26.821493,-4.25522 -29.940413,-7.77942 -1.509098,-1.70518 -1.763067,-4.4242 -0.61825,-6.61904 2.256836,-4.3268 14.249039,-8.8616 28.785292,-10.88505 3.073739,-0.42786 5.499988,-1.10482 6.562423,-1.831 l 1.68566,-1.15214 -0.190757,-8.15807 c -0.104913,-4.48693 -0.316325,-8.96178 -0.469806,-9.9441 -0.804724,-5.15053 -0.805274,-5.14914 3.052702,-7.73949 3.707037,-2.48902 4.422077,-3.75351 3.141477,-5.55552 -1.700499,-2.39289 -3.777293,-6.18728 -4.053894,-7.40665 -0.165447,-0.72937 -0.602024,-1.78699 -0.970167,-2.35027 -0.597825,-0.91471 -0.592225,-1.2424 0.05244,-3.06671 0.396982,-1.1234 0.721788,-2.64726 0.721788,-3.38633 0,-0.73907 0.813804,-3.71614 1.808452,-6.61571 l 1.808448,-5.27194 0.616093,-30.503422 c 0.33885,-16.776878 0.62232,-34.317713 0.62993,-38.979627 l 0.0138,-8.476208 -1.773365,-1.503301 c -0.975353,-0.826816 -1.77337,-1.751126 -1.77337,-2.054021 0,-0.302897 1.005235,-1.285421 2.233852,-2.183389 2.658093,-1.942732 2.859113,-3.576867 0.415115,-3.374553 -6.675116,0.552564 -14.695568,0.206958 -21.047683,-0.906957 -9.848664,-1.727075 -17.398788,-2.494976 -24.531012,-2.494976 -6.821149,0 -8.054666,-0.536316 -8.054666,-3.502055 0,-2.539273 -1.859497,-4.535112 -4.225304,-4.535112 -2.152044,0 -3.334134,1.037596 -2.636541,2.314261 2.217459,4.058171 2.17056,3.86562 1.26766,5.204586 -0.672135,0.996751 -0.887571,2.559908 -1.108469,8.042822 -0.150803,3.743088 -0.403508,6.979274 -0.561567,7.191524 -0.747915,1.004342 -1.098086,-1.332667 -1.22296,-8.161917 -0.121676,-6.654268 -0.05553,-7.457321 0.628861,-7.634311 0.795126,-0.205628 1.091916,-1.896526 0.332882,-1.896526 -0.706712,0 -1.852637,-3.537679 -1.554508,-4.79905 0.151763,-0.642107 0.8504,-1.566387 1.552526,-2.053955 1.444374,-1.003001 5.999588,-1.202577 6.423533,-0.281433 0.153159,0.332781 0.464188,0.450924 0.69118,0.262538 0.226987,-0.188386 0.412707,-0.06391 0.412707,0.276619 0,0.340526 0.476793,0.779835 1.059545,0.976242 0.582747,0.196407 1.479194,1.005228 1.992106,1.79738 0.909327,1.404378 1.112205,1.44275 8.139818,1.539545 7.862193,0.108291 9.872711,0.211697 17.847469,0.917944 9.846341,0.871996 19.602337,0.600016 22.951298,-0.63984 4.438353,-1.643175 4.819873,-2.586892 6.127163,-15.1563072 0.28349,-2.7256516 0.67122,-4.7349432 0.86164,-4.4650929 0.19042,0.2698503 0.67772,3.571551 1.08292,7.3371121 0.81241,7.549985 1.25046,9.187516 2.89268,10.813544 2.7748,2.747421 13.44707,4.185904 21.23877,2.86271 2.33939,-0.397278 4.85194,-0.8104 5.58346,-0.918052 0.73151,-0.107651 3.12556,-0.482301 5.32011,-0.832557 2.19454,-0.350256 7.38165,-0.800219 11.5269,-0.999919 7.07232,-0.340712 7.62594,-0.452276 8.98277,-1.810156 3.48051,-3.483227 10.59663,-3.293176 11.2967,0.301702 0.26359,1.353581 -0.75892,4.871026 -1.41601,4.871026 -0.78226,0 -0.51554,1.685593 0.3001,1.896526 0.68439,0.17699 0.75054,0.980043 0.62886,7.634311 -0.12488,6.82925 -0.47505,9.166259 -1.22296,8.161917 -0.15806,-0.21225 -0.41076,-3.448436 -0.56157,-7.191524 -0.21269,-5.279376 -0.44818,-7.063629 -1.05003,-7.956118 -1.02416,-1.518715 -0.98651,-1.887016 0.39009,-3.816523 1.44096,-2.019708 1.15625,-3.220583 -0.88552,-3.734948 -2.24257,-0.564951 -4.60281,0.87769 -4.96094,3.032253 -0.57015,3.430057 -0.73999,3.840871 -1.81475,4.389592 -0.6046,0.308683 -3.72972,0.564006 -6.94471,0.567384 -6.65002,0.007 -13.25732,0.683381 -23.8008,2.436501 -7.65842,1.273406 -16.33251,1.648647 -20.28097,0.877355 -1.99599,-0.389896 -2.36778,-0.306703 -2.62315,0.586973 -0.29778,1.042052 0.21533,1.839885 2.48064,3.85718 0.99201,0.883389 0.93518,0.920673 -1.52086,0.997892 -3.03411,0.0954 -4.56036,1.358834 -1.64148,1.358834 1.49751,0 1.86204,0.209789 1.86204,1.071623 0,0.589392 -0.21664,1.362535 -0.48142,1.718096 -0.34632,0.465068 -0.33751,7.389655 0.0314,24.67708 0.28206,13.216835 0.65366,30.738771 0.82578,38.937638 l 0.31294,14.90703 1.62094,4.44171 c 0.89152,2.44293 1.76034,5.51332 1.93071,6.82308 0.17037,1.30976 0.49397,2.8601 0.7191,3.44521 0.29761,0.77342 0.0437,2.10301 -0.93013,4.87081 -0.7367,2.09384 -1.59556,4.02628 -1.90856,4.29429 -0.313,0.26801 -1.1108,1.54267 -1.77289,2.83257 -1.49739,2.91724 -1.28989,3.32734 3.12854,6.18326 3.53917,2.2876 4.07902,3.15928 3.1551,5.09445 -0.42063,0.881 -0.65747,4.1642 -0.78644,10.90176 l -0.18455,9.6411 1.43335,1.17053 c 0.86232,0.7042 2.69321,1.33014 4.59572,1.57116 12.44258,1.57632 20.95508,3.99213 26.29352,7.46201 5.42965,3.52917 6.77572,7.2219 3.82645,10.49723 -2.30329,2.55792 -10.54316,5.14085 -21.6375,6.78266 -4.25968,0.63037 -35.710973,1.22308 -42.117539,0.79372 z m 29.925618,-3.8004 c 13.75337,-0.74019 23.38091,-2.45526 28.70927,-5.11433 1.03787,-0.51794 1.77424,-1.18681 1.63637,-1.48637 -0.77,-1.67305 -27.15443,0.68125 -44.5326,3.97366 -9.334447,1.76848 -10.440196,2.18502 -7.093479,2.67218 3.905619,0.5685 10.123579,0.55531 21.280439,-0.0451 z m -6.65013,-45.18293 c 0,-0.87403 -2.07297,-1.29915 -3.29431,-0.6756 -1.69667,0.86624 -1.39284,1.2064 1.07759,1.2064 1.21919,0 2.21672,-0.23886 2.21672,-0.5308 z m -6.40237,-20.6229 c -0.98402,-0.99946 -1.85329,-1.12509 -2.22322,-0.32131 -0.23375,0.50788 0.77273,0.97943 2.41879,1.13324 0.48652,0.0455 0.43402,-0.17247 -0.19557,-0.81193 z m 2.76451,-112.536302 c 0.14902,-1.399021 -1.54466,-4.614664 -2.1611,-4.103066 -0.46548,0.386319 -0.54465,3.264138 -0.12974,4.716088 0.39351,1.377056 2.1283,0.91283 2.29084,-0.613022 z M 24.091914,154.17098 C 14.12132,152.96819 6.849442,150.57258 3.1842526,147.28326 1.2241365,145.52417 1.0381012,145.15389 1.0381012,143.01165 v -2.34555 l 4.2117542,-1.68451 c 5.8164776,-2.32632 8.5858996,-2.71922 9.5969546,-1.36152 0.700219,0.9403 1.367927,1.00735 6.338215,0.63652 7.462144,-0.55676 16.031176,-2.49912 16.778849,-3.8033 0.349294,-0.60928 0.694222,-0.76673 0.886685,-0.40475 0.185293,0.34849 3.32718,0.61238 7.630154,0.64086 9.438922,0.0625 20.031644,1.67351 24.162169,3.67482 3.545038,1.71762 4.479968,2.61914 4.760599,4.59047 0.268386,1.88536 -0.297935,3.07181 -2.240631,4.69413 -5.769057,4.81768 -17.102232,6.98155 -35.770659,6.82979 -6.339799,-0.0516 -12.324923,-0.18997 -13.300277,-0.30763 z m 131.894406,-0.20004 c -9.82304,-1.34597 -16.65979,-3.70984 -19.6647,-6.79924 -2.05376,-2.11149 -2.41813,-4.45602 -0.96591,-6.21512 2.93845,-3.55942 14.72996,-6.18382 28.16744,-6.26915 4.30473,-0.0273 7.44478,-0.29026 7.63015,-0.63889 0.19073,-0.35872 0.54098,-0.17744 0.88781,0.4595 0.66868,1.22799 8.69193,3.05982 16.38093,3.74 5.00277,0.44256 7.27002,0.093 6.74841,-1.0403 -0.49472,-1.07493 4.83222,-0.15666 9.08339,1.5658 2.04137,0.82712 3.88679,1.35844 4.10092,1.18073 0.42444,-0.35226 0.45783,-0.21707 0.59915,2.42621 0.13591,2.54201 -0.39539,3.61669 -2.67483,5.41054 -2.83909,2.23427 -7.70095,4.1809 -13.31845,5.33253 -5.57738,1.14342 -30.62451,1.71746 -36.97431,0.84739 z"
       style="fill:#ceb693;stroke-width:0.51375294" />
    <path
       inkscape:connector-curvature="0"
       id="path37"
       d="m 90.371626,206.56383 c -15.770054,-1.23789 -29.049436,-4.47255 -31.9867,-7.79148 -1.641875,-1.85522 -1.736404,-4.90955 -0.215172,-6.95235 3.117634,-4.18654 12.486654,-7.68618 26.273934,-9.81418 6.876846,-1.06142 8.936642,-1.86109 10.022069,-3.89085 0.508146,-0.95023 0.395501,-13.96894 -0.141413,-16.34349 -0.264392,-1.16928 -0.659122,-2.90916 -0.877185,-3.86638 -0.527976,-2.31766 -0.07992,-2.94204 3.869707,-5.39254 1.792203,-1.11195 3.367914,-2.40442 3.501564,-2.87214 0.24664,-0.86308 -1.864717,-5.5503 -3.14067,-6.97232 -1.156073,-1.28841 -3.010992,-7.08097 -2.530107,-7.90104 0.232666,-0.39678 0.548583,-1.82815 0.702033,-3.18082 0.153454,-1.35266 1.024933,-4.56753 1.936622,-7.14415 l 1.657618,-4.68475 0.305663,-10.41855 c 0.844751,-28.793684 1.325541,-67.193563 0.856041,-68.371604 -0.26818,-0.672903 -1.019901,-1.571928 -1.670488,-1.997833 -1.814065,-1.187569 -1.698463,-2.026008 0.480849,-3.487576 2.236299,-1.499786 2.735969,-2.51722 1.832219,-3.73082 -0.45938,-0.616888 -1.14785,-0.704543 -2.752053,-0.350391 -3.942831,0.87044 -10.861826,0.554774 -20.058506,-0.915131 -10.694597,-1.709317 -20.404673,-2.705351 -26.498234,-2.718121 -2.392693,-0.005 -4.581418,-0.206557 -4.863836,-0.447874 -0.282418,-0.241316 -0.654409,-1.447491 -0.826648,-2.680388 -0.415735,-2.975849 -1.988756,-4.602116 -4.451438,-4.602116 -3.12645,0 -3.976767,2.275801 -1.769454,4.73579 0.904614,1.008168 0.869765,1.614656 -0.197466,3.436598 -0.713519,1.218095 -0.892771,2.457258 -0.917846,6.345033 -0.03782,5.863683 -0.560353,8.376174 -0.999435,4.805563 -0.15932,-1.295597 -0.291869,-4.431899 -0.294553,-6.96956 -0.0038,-3.623419 0.132268,-4.61393 0.63397,-4.61393 1.182649,0 1.205618,-1.203017 0.05794,-3.034593 -1.285352,-2.051287 -1.422351,-3.363691 -0.523449,-5.014493 0.477355,-0.876648 1.313526,-1.185391 3.701042,-1.366551 3.26548,-0.247779 4.845945,0.437994 7.27169,3.155227 1.107855,1.240978 1.716258,1.331056 11.305235,1.673802 5.573906,0.199231 14.124454,0.80267 19.001223,1.340973 9.747316,1.075921 15.691794,0.67828 20.218251,-1.352447 3.047157,-1.367062 3.845987,-3.198572 4.680757,-10.731824 0.92562,-8.3530687 1.11397,-8.3254514 2.04903,0.300434 0.74453,6.868264 1.45611,8.780603 3.74512,10.064928 4.98552,2.797277 12.69531,3.220227 24.76528,1.358591 4.36675,-0.673514 11.88893,-1.382349 16.71596,-1.57519 l 8.77641,-0.350618 1.59227,-1.699212 c 0.87574,-0.934567 1.63735,-1.699212 1.69245,-1.699212 0.0551,0 1.13985,-0.264763 2.41051,-0.588362 3.93065,-1.001007 7.12091,0.626716 7.12091,3.6332 0,0.567174 -0.51306,1.850013 -1.14013,2.850754 -1.14768,1.831576 -1.12471,3.034593 0.0579,3.034593 0.49415,0 0.63885,0.925058 0.63885,4.084327 0,2.24638 -0.13711,5.394271 -0.30468,6.995313 -0.25834,2.468204 -0.35278,2.684594 -0.62083,1.42262 -0.17388,-0.8186 -0.33602,-3.528503 -0.36033,-6.022005 -0.0348,-3.571227 -0.23242,-4.854979 -0.93087,-6.047361 -1.12209,-1.915584 -1.11826,-1.975157 0.26916,-4.189338 l 1.15585,-1.844618 -0.98329,-1.069216 c -2.32455,-2.52767 -6.34898,-0.544374 -6.90008,3.400462 -0.1565,1.120187 -0.51305,2.277715 -0.79234,2.572284 -0.27929,0.294571 -4.28926,0.710922 -8.91104,0.925224 -8.23811,0.381985 -16.32367,1.32417 -26.31102,3.065941 -5.524,0.963373 -12.95855,1.105537 -16.04226,0.306761 -2.0683,-0.535756 -3.54968,0.01906 -3.55694,1.332155 -0.002,0.39778 0.64212,1.436298 1.43181,2.307818 l 1.43581,1.584582 -1.76432,0.396677 c -2.65371,0.596641 -3.30817,1.09217 -1.76432,1.335856 2.38622,0.376646 2.47056,0.505277 1.78213,2.717841 -0.34501,1.108829 -0.54897,2.527101 -0.45325,3.151715 0.0957,0.624613 0.40015,15.468609 0.67651,32.986657 0.63802,40.442995 0.75409,42.421425 2.82818,48.206205 0.8772,2.44656 1.60197,5.12562 1.61061,5.95346 0.009,0.82783 0.2723,2.12615 0.58589,2.88513 0.49388,1.19529 0.42347,1.79283 -0.52616,4.46509 -0.60299,1.69682 -1.96392,4.42005 -3.02428,6.05162 -2.90782,4.47428 -2.76957,4.9379 2.49953,8.3814 3.02444,1.97657 3.18953,2.1865 2.91623,3.70848 -0.70495,3.92586 -0.81603,5.66373 -0.86416,13.52022 l -0.0511,8.33484 1.99504,1.29944 c 1.41504,0.92166 3.54172,1.4932 7.31515,1.96592 14.28093,1.78907 26.13872,6.75278 27.79532,11.63521 2.13022,6.27829 -5.9181,9.80111 -28.46033,12.45736 -6.99817,0.82462 -26.015198,1.11209 -33.694033,0.50933 z m 41.867674,-4.60814 c 12.88024,-2.18254 20.32966,-5.70024 13.1068,-6.18916 -3.52332,-0.2385 -17.80241,0.83405 -26.82222,2.01471 -7.5801,0.99221 -22.170601,3.6583 -23.497158,4.2936 -3.231475,1.54756 27.966058,1.44767 37.212578,-0.11915 z m -21.03057,-44.32935 c 0,-0.87403 -2.07297,-1.29915 -3.29431,-0.6756 -1.69667,0.86624 -1.39284,1.2064 1.07759,1.2064 1.21919,0 2.21672,-0.23886 2.21672,-0.5308 z m -6.40237,-20.6229 c -0.98402,-0.99946 -1.85329,-1.12509 -2.22322,-0.32131 -0.23375,0.50788 0.77273,0.97943 2.41879,1.13324 0.48652,0.0455 0.43402,-0.17247 -0.19557,-0.81193 z m 2.76451,-112.536302 c 0.14902,-1.399021 -1.54466,-4.614664 -2.1611,-4.103066 -0.46548,0.386319 -0.54465,3.264138 -0.12974,4.716088 0.39351,1.377056 2.1283,0.91283 2.29084,-0.613022 z M 26.751969,153.98433 c -12.069251,-1.08077 -20.0992155,-3.59042 -23.8748416,-7.46175 -2.96926085,-3.04453 -2.85129272,-4.55048 0.4885222,-6.23639 1.4020708,-0.70775 4.2981768,-1.8019 6.4357914,-2.43143 3.636497,-1.07098 3.958682,-1.08118 5.007288,-0.15854 0.954476,0.83982 1.890509,0.9273 6.310307,0.58973 5.194084,-0.3967 15.881965,-2.49398 16.716497,-3.28027 0.72131,-0.67961 18.157307,0.33396 24.162169,1.40457 5.753913,1.02586 8.803418,2.06883 11.637742,3.98023 1.327656,0.89534 1.662535,1.45759 1.662535,2.79134 0,4.56773 -7.446541,8.33252 -20.172086,10.19852 -6.131986,0.89917 -21.438935,1.225 -28.373924,0.60399 z m 135.884491,0.2478 c -18.09629,-1.65671 -27.93058,-5.5475 -27.93058,-11.05031 0,-1.33375 0.33488,-1.896 1.66254,-2.79134 3.68877,-2.48763 10.01071,-4.10027 20.06125,-5.11739 5.25243,-0.53154 15.27809,-0.60297 15.8684,-0.11305 0.90208,0.74866 11.13235,2.66774 16.53238,3.10127 4.11732,0.33055 5.34952,0.23656 6.40948,-0.48894 1.18176,-0.80886 1.68694,-0.79364 5.08065,0.15301 2.07263,0.57814 4.86568,1.61056 6.20679,2.29425 3.15559,1.60871 3.40875,3.34822 0.87889,6.0389 -3.15174,3.35206 -8.47175,5.46387 -17.28256,6.86041 -5.41926,0.85896 -22.64438,1.55656 -27.48724,1.11319 z"
       style="fill:#cca65c;stroke-width:0.51375294" />
    <path
       inkscape:connector-curvature="0"
       id="path35"
       d="m 85.716529,206.04139 c -15.262648,-1.57426 -24.964039,-4.2176 -27.576931,-7.51389 -1.380609,-1.7417 -1.366714,-4.8317 0.03015,-6.7075 3.115825,-4.18411 12.423554,-7.66935 25.577394,-9.57736 6.644561,-0.96381 9.809256,-2.16186 10.718609,-4.0577 0.507592,-1.05825 0.395767,-14.03772 -0.141413,-16.41346 -0.264392,-1.16928 -0.659122,-2.90916 -0.877184,-3.86638 -0.527977,-2.31766 -0.07992,-2.94204 3.869706,-5.39254 1.792204,-1.11195 3.37284,-2.42167 3.51252,-2.9105 0.26625,-0.93172 -0.83176,-3.3193 -3.253444,-7.07446 -0.792475,-1.22885 -1.440863,-2.68123 -1.440863,-3.22752 0,-0.5463 -0.331931,-1.48579 -0.737625,-2.08778 -0.584693,-0.8676 -0.637269,-1.37104 -0.253578,-2.42827 0.266227,-0.73355 0.606679,-2.33467 0.756564,-3.55804 0.149881,-1.22337 1.008675,-4.30428 1.908426,-6.84648 1.628512,-4.60126 1.637268,-4.66796 1.935673,-14.74304 0.164867,-5.56649 0.541757,-23.00396 0.837537,-38.749937 0.57706,-30.720069 0.59088,-30.452202 -1.646934,-31.91718 -1.826735,-1.195862 -1.695843,-2.027766 0.556741,-3.538473 2.322863,-1.557847 2.827773,-2.581326 1.892793,-3.836869 -0.5297,-0.711308 -1.37319,-0.751147 -5.082191,-0.240035 -4.416729,0.60864 -11.394631,0.138347 -17.679437,-1.191549 -4.781454,-1.011779 -16.24928,-2.322213 -23.940498,-2.735692 -4.736512,-0.254634 -7.657842,-0.652043 -7.862542,-1.069596 -0.179146,-0.365431 -0.328774,-1.450868 -0.332507,-2.412085 -0.0035,-0.964617 -0.438697,-2.365039 -0.970752,-3.125565 -1.460152,-2.087148 0.101601,-1.830436 1.946056,0.319882 1.449416,1.689765 1.492921,1.699541 9.214787,2.070694 4.267172,0.205102 12.84585,0.926902 19.06373,1.604 11.794822,1.2844 15.956958,1.203764 21.402539,-0.414645 4.998175,-1.485442 5.975175,-3.231342 7.035205,-12.571864 0.27086,-2.3867979 0.61612,-4.1736076 0.76723,-3.9706887 0.15111,0.2029194 0.50865,2.5576127 0.79453,5.2326507 0.43549,4.074936 0.41773,5.016136 -0.10955,5.803605 -0.95423,1.425084 -0.84068,6.903497 0.15795,7.621189 1.21001,0.869599 2.31611,-0.278111 2.31611,-2.403234 0,-1.504792 0.13442,-1.743646 0.77585,-1.37859 2.62362,1.493182 4.56675,2.135542 8.34726,2.759428 4.43673,0.732181 9.81901,0.352789 23.68424,-1.669482 3.29182,-0.480118 9.15425,-0.97699 13.02763,-1.10416 6.78484,-0.222757 7.08492,-0.285438 8.20183,-1.713194 2.21246,-2.828191 8.77686,-3.660844 10.07444,-1.277879 0.67616,1.24175 0.14486,3.489443 -1.37494,5.816683 -1.84206,2.820713 -2.26139,1.665127 -0.44668,-1.230955 0.60959,-0.972851 1.10835,-2.166479 1.10835,-2.652506 0,-2.301705 -5.34904,-2.850435 -7.09559,-0.727901 -0.45099,0.54807 -0.95415,2.062909 -1.11813,3.366307 -0.16398,1.303399 -0.52765,2.46566 -0.80815,2.582803 -0.2805,0.117142 -5.00075,0.497586 -10.48944,0.84543 -5.4887,0.347844 -13.98842,1.307857 -18.88826,2.133362 -9.57578,1.613288 -16.22332,2.002195 -21.33032,1.247906 -3.202,-0.472926 -3.20401,-0.472305 -3.75781,1.159864 -0.4974,1.46596 -0.45312,1.723075 0.43283,2.513003 1.38881,1.2383 1.24838,1.630363 -0.89729,2.505039 -1.5997,0.652114 -1.75032,0.839815 -0.99752,1.243084 0.48768,0.261245 1.33557,0.493821 1.8842,0.516835 1.0698,0.04488 1.31432,1.164329 0.49474,2.264914 -0.48933,0.657091 0.0712,44.632293 0.89372,70.111431 0.30119,9.3305 0.34119,9.62459 1.95332,14.36323 0.90521,2.66073 1.64583,5.62109 1.64583,6.57857 0,0.95748 0.22363,2.04118 0.49696,2.40822 0.71181,0.95586 -0.62159,5.90109 -2.20636,8.18279 -0.69011,0.9936 -1.68113,2.76726 -2.20228,3.94144 -1.24245,2.79941 -0.79277,3.62397 3.50957,6.43544 3.6634,2.39393 3.62352,2.26376 2.44435,7.97956 -0.46132,2.23615 -0.71221,5.83393 -0.71221,10.21315 v 6.76086 l 2.08923,1.64415 c 1.14908,0.90429 2.39598,1.61994 2.7709,1.59032 1.60294,-0.12661 10.37405,1.20105 14.89705,2.25492 5.09365,1.18684 10.09223,3.03661 12.38515,4.58322 2.53904,1.71264 5.98513,5.64042 5.98513,6.82174 0,5.26729 -7.27091,8.17334 -24.60552,9.8344 -5.85212,0.56077 -10.70672,1.2314 -10.788,1.49028 -0.2316,0.73768 -23.404974,0.3997 -31.772878,-0.4634 z m 48.031391,-4.10138 c 10.99024,-2.5683 16.10657,-4.66829 15.35456,-6.30224 -0.79532,-1.72807 -26.46553,0.89813 -46.98228,4.80653 -7.28384,1.38755 -8.403856,1.69559 -8.023291,2.20663 0.649014,0.87153 7.468961,1.2385 19.771871,1.0639 11.80102,-0.16747 13.74292,-0.34084 19.87914,-1.77482 z M 110.61067,187.2949 c 0.98714,-0.50399 1.1034,-0.73962 0.58304,-1.18157 -0.9068,-0.77016 -3.40242,-0.70511 -4.5485,0.11855 -0.93676,0.67323 -0.93862,0.69927 -0.0817,1.14885 1.26477,0.66356 2.63632,0.63447 4.04715,-0.0858 z m 0.59806,-25.56568 c 0,-0.75621 -1.34533,-0.75621 -2.21672,0 -0.50464,0.43793 -0.31753,0.57931 0.77585,0.58623 0.79248,0.005 1.44087,-0.25879 1.44087,-0.58623 z m 0.18541,-3.3381 c 0.3857,-0.19875 0.70127,-0.7059 0.70127,-1.127 0,-1.52658 -2.68687,-1.98894 -4.63424,-0.79745 -1.15058,0.70398 -1.361,1.18076 -0.83365,1.88892 0.3695,0.49619 3.82271,0.52193 4.76662,0.0355 z m -4.79894,-20.56605 c 0.75602,-1.64268 -2.75191,-3.02438 -4.25333,-1.67529 -0.5756,0.5172 -0.54931,0.71608 0.19558,1.47925 1.02053,1.04558 3.60919,1.17065 4.05775,0.19604 z m 5.26648,-5.83693 c 0.14406,-0.31303 -0.0831,-1.58558 -0.50477,-2.8279 l -0.76671,-2.25875 -0.16532,1.99155 c -0.0909,1.09535 -0.0578,2.3679 0.0737,2.82789 0.27485,0.96182 0.97983,1.10001 1.36312,0.26721 z m -90.651493,21.39908 c -5.585002,-0.7791 -8.974606,-1.65594 -12.996059,-3.36188 -2.9276064,-1.24191 -3.9721758,-2.02961 -5.5605417,-4.19317 -1.93154517,-2.63101 -1.94517702,-2.67821 -1.1008386,-3.81204 0.5164399,-0.6935 2.943585,-1.8564 6.130333,-2.93716 5.0665303,-1.71828 5.3360513,-1.75047 6.8070243,-0.81313 1.942063,1.23754 6.841458,0.81938 16.030276,-1.36817 12.237727,-2.9134 33.591405,-1.72809 40.962968,2.27377 3.296686,1.78971 3.98963,3.06251 3.134502,5.75746 -1.196909,3.77206 -7.662688,6.58012 -18.161931,7.88766 -6.653946,0.82866 -30.606989,1.21376 -35.245733,0.56666 z m 34.359048,-2.92532 c 1.463031,-0.23203 -1.230275,-0.30081 -5.985124,-0.15285 -4.754849,0.14796 -8.728307,0.36688 -8.829906,0.48648 -0.32523,0.38287 12.055192,0.10405 14.81503,-0.33363 z m 106.845555,3.12643 c -7.9932,-0.67346 -14.64472,-1.56233 -17.51203,-2.34021 -7.09294,-1.92424 -11.24819,-6.029 -9.57483,-9.45849 1.54472,-3.16583 10.66479,-5.72317 23.31845,-6.53867 7.05218,-0.4545 14.00801,0.18359 22.33352,2.04877 8.29715,1.85882 12.67648,2.15368 14.52184,0.97776 1.48632,-0.94711 1.74024,-0.91725 6.83881,0.80428 3.63574,1.2276 5.52695,2.16638 6.03474,2.99558 0.7051,1.15143 0.66586,1.31791 -0.8423,3.57391 -3.755,5.61693 -15.26392,8.43635 -33.59129,8.22911 -5.12061,-0.0579 -10.30772,-0.18932 -11.52691,-0.29204 z m 6.65014,-2.87058 c -0.24384,-0.11069 -4.13417,-0.30558 -8.64518,-0.4331 -4.51101,-0.12752 -7.30407,-0.056 -6.2068,0.15883 2.01562,0.39471 15.67293,0.64691 14.85198,0.27427 z M 38.127206,40.27869 c 0,-0.8186 0.100627,-1.153482 0.223616,-0.744182 0.122988,0.409301 0.122988,1.079064 0,1.488365 -0.122989,0.4093 -0.223616,0.07442 -0.223616,-0.744183 z M 171.61512,39.385672 c 0.005,-1.309761 0.0957,-1.775472 0.20175,-1.034914 0.10604,0.740558 0.10202,1.812181 -0.009,2.381383 -0.11096,0.569203 -0.19773,-0.03671 -0.1928,-1.346469 z M 38.049104,31.425963 c -0.19367,-2.899047 -0.12062,-3.244395 0.78395,-3.706176 1.172607,-0.598612 1.261481,-1.289423 0.303274,-2.357318 -1.070665,-1.193227 -1.990734,-3.950232 -1.680535,-5.035754 0.522801,-1.829507 4.401801,-2.799316 5.921522,-1.48047 0.495485,0.429992 0.24651,0.579437 -0.97666,0.586229 -3.220143,0.01788 -4.942907,2.273226 -3.21089,4.203512 1.52382,1.698255 1.654087,2.942125 0.47407,4.52672 -0.755923,1.015096 -1.161909,2.298784 -1.258529,3.979345 -0.139098,2.41941 -0.14792,2.401674 -0.356202,-0.716088 z M 171.14617,29.440081 c -0.7139,-0.958668 -0.66758,-1.663651 0.10931,-1.663651 0.82406,0 1.16476,0.757029 0.74812,1.662309 -0.25418,0.552272 -0.44694,0.552574 -0.85743,0.0014 z"
       style="fill:#b3905c;stroke-width:0.51375294" />
    <path
       inkscape:connector-curvature="0"
       id="path33"
       d="m 94.140037,206.39036 c -0.487676,-0.28703 -2.413814,-0.5407 -4.280304,-0.56372 -3.432393,-0.0423 -13.260264,-1.35128 -18.551837,-2.47088 -6.74594,-1.42733 -11.384443,-3.27459 -12.96777,-5.16434 -1.085684,-1.2958 -1.001834,-4.60542 0.156074,-6.16032 2.930193,-3.93483 15.167716,-8.1605 29.018486,-10.02021 4.428744,-0.59464 7.117958,-2.18459 7.543199,-4.45979 0.293723,-1.57154 -0.04597,-13.85629 -0.482871,-17.46282 -0.168834,-1.39367 -0.485398,-2.68203 -0.703478,-2.86302 -0.879676,-0.73007 -0.249793,-1.53301 2.817721,-3.59184 3.614783,-2.42614 4.765933,-3.59985 4.765933,-4.8593 0,-0.82535 -1.02386,-2.74644 -3.301643,-6.19492 -0.576647,-0.87303 -1.190553,-2.21255 -1.364228,-2.97673 -0.173675,-0.76417 -0.624111,-1.86085 -1.000961,-2.43705 -0.535695,-0.81907 -0.579577,-1.33863 -0.20114,-2.38139 0.266227,-0.73355 0.614243,-2.38881 0.773371,-3.67835 0.159129,-1.28954 0.851985,-3.8414 1.539685,-5.67081 0.687699,-1.8294 1.458925,-4.39105 1.713834,-5.69255 0.254912,-1.3015 0.791792,-19.19639 1.193072,-39.76643 0.79713,-40.862324 0.81973,-40.30453 -1.688455,-41.678871 l -1.32159,-0.724157 2.272365,-1.896896 c 2.48117,-2.07119 2.80762,-3.241089 1.27485,-4.56862 -0.75898,-0.657357 -1.47459,-0.738021 -2.992558,-0.337326 -3.538224,0.933981 -11.093229,0.605091 -19.950415,-0.868497 -8.251776,-1.372864 -20.108352,-2.60963 -27.690343,-2.888392 l -3.528168,-0.129719 -0.364127,-2.361665 c -0.200271,-1.298916 -0.792035,-2.973326 -1.315042,-3.720911 -1.450316,-2.073091 0.123834,-1.801077 1.959108,0.338535 1.449416,1.689765 1.492921,1.699541 9.214787,2.070694 4.267172,0.205102 12.84585,0.925165 19.063729,1.600139 11.84653,1.285985 16.389572,1.199741 21.845882,-0.414715 4.716657,-1.395604 5.953887,-3.415225 6.769327,-11.050113 0.16576,-1.551998 0.46457,-2.686373 0.66403,-2.520835 0.64722,0.537148 1.0301,6.941208 0.48506,8.113179 -0.83351,1.792259 -0.64189,6.911461 0.28361,7.576592 1.11131,0.798672 2.3161,-0.263465 2.3161,-2.041866 0,-1.708044 0.17089,-1.745098 2.6441,-0.573322 1.02789,0.487003 3.99837,1.20343 6.60107,1.592062 4.17736,0.623758 6.03095,0.544516 15.80971,-0.675872 6.09265,-0.760362 14.80539,-1.543766 19.36164,-1.740898 l 8.28411,-0.358424 1.36629,-1.75848 c 1.16159,-1.495034 1.79514,-1.79515 4.22892,-2.003254 3.1202,-0.266798 5.10214,0.166314 5.10214,1.114967 0,0.385237 -0.34551,0.356637 -0.95133,-0.07875 -1.29093,-0.927765 -5.06576,-0.368621 -6.11434,0.905684 -0.46744,0.568069 -0.98182,2.081456 -1.14307,3.363085 -0.36014,2.862479 3.5e-4,2.747832 -10.11258,3.216146 -4.34653,0.201281 -11.32917,0.885084 -15.51699,1.519563 -4.18782,0.634479 -9.60926,1.458997 -12.04764,1.832263 -2.60443,0.398683 -7.00984,0.532355 -10.67856,0.324016 -6.50276,-0.369278 -7.27681,-0.146179 -7.27681,2.097331 0,0.586617 0.399,1.401197 0.88668,1.810177 1.26188,1.058249 1.12641,1.361242 -0.99752,2.230942 l -1.88421,0.771542 1.5517,0.729729 c 1.16565,0.548178 1.5066,1.009169 1.37041,1.852914 -0.22511,1.394733 -0.17797,5.940406 0.42842,41.30902 0.6204,36.186503 0.71593,37.689923 2.78591,43.846323 0.89213,2.65332 1.62206,5.60761 1.62206,6.56509 0,0.95748 0.20833,2.02063 0.46295,2.36256 0.6302,0.84626 -1.03648,6.7643 -2.35003,8.34448 -1.90302,2.2893 -3.02245,4.66057 -2.89495,6.13229 0.10172,1.17403 0.83145,1.94271 3.67367,3.86975 2.84954,1.932 3.51939,2.63877 3.40761,3.5954 -0.0765,0.65488 -0.31401,2.39626 -0.52775,3.86974 -0.21374,1.47348 -0.40051,6.07572 -0.41505,10.22719 -0.0207,5.90984 0.11616,7.7396 0.6305,8.43029 1.14459,1.53703 4.28323,2.63224 9.53995,3.32893 12.7034,1.68362 22.69612,5.60609 26.17166,10.27325 4.68942,6.29723 -3.23278,9.83657 -29.27505,13.07897 -6.59476,0.82108 -26.557614,1.19082 -27.708913,0.51321 z m 31.477323,-3.00388 c 13.79819,-1.55615 23.9723,-4.60548 23.62139,-7.07968 -0.10299,-0.72611 -0.83993,-0.98684 -3.23222,-1.14358 -5.85152,-0.38337 -28.54487,2.34549 -43.88633,5.27731 -7.289364,1.39303 -8.403413,1.69995 -8.023291,2.2104 0.914456,1.22799 22.655541,1.73532 31.520451,0.73555 z M 110.61067,187.2949 c 0.98714,-0.50399 1.1034,-0.73962 0.58304,-1.18157 -1.01079,-0.85848 -4.24467,-0.67573 -4.83101,0.27299 -0.41373,0.66943 -0.35637,0.90066 0.27822,1.12163 1.42944,0.49774 2.71241,0.42888 3.96975,-0.21305 z m 0.59806,-25.56568 c 0,-0.75621 -1.34533,-0.75621 -2.21672,0 -0.50464,0.43793 -0.31753,0.57931 0.77585,0.58623 0.79248,0.005 1.44087,-0.25879 1.44087,-0.58623 z m 0.18541,-3.3381 c 0.3857,-0.19875 0.70127,-0.7059 0.70127,-1.127 0,-1.52658 -2.68687,-1.98894 -4.63424,-0.79745 -1.15058,0.70398 -1.361,1.18076 -0.83365,1.88892 0.3695,0.49619 3.82271,0.52193 4.76662,0.0355 z m -4.79894,-20.56605 c 0.75602,-1.64268 -2.75191,-3.02438 -4.25333,-1.67529 -0.5756,0.5172 -0.54931,0.71608 0.19558,1.47925 1.02053,1.04558 3.60919,1.17065 4.05775,0.19604 z m 5.26648,-5.83693 c 0.14406,-0.31303 -0.0831,-1.58558 -0.50477,-2.8279 l -0.76671,-2.25875 -0.16532,1.99155 c -0.0909,1.09535 -0.0578,2.3679 0.0737,2.82789 0.27485,0.96182 0.97983,1.10001 1.36312,0.26721 z M 29.412025,153.63372 C 14.156751,152.36417 6.1161548,149.81277 2.20382,145.00016 c -1.89296434,-2.32855 -1.56955724,-2.80346 3.3960375,-4.98689 2.6953157,-1.18516 4.4682095,-1.59114 6.6501385,-1.52286 8.264536,0.25866 11.900847,-0.0376 18.082985,-1.47351 5.238261,-1.21664 8.070024,-1.53444 13.599363,-1.52621 14.604059,0.0217 28.228197,2.92343 30.658592,6.52975 0.700916,1.04005 0.67573,1.21167 -0.438807,2.99036 -2.276684,3.63335 -7.317307,5.84599 -17.031195,7.47605 -5.358748,0.89924 -22.27249,1.5993 -27.708909,1.14687 z m 29.703951,-3.78366 c 1.346214,-0.43218 0.812274,-0.4839 -2.216713,-0.21472 -2.194546,0.19502 -6.783141,0.56266 -10.196879,0.81697 -5.792484,0.43153 -5.644516,0.44586 2.216713,0.21472 4.63293,-0.13623 9.221525,-0.50386 10.196879,-0.81697 z m 103.077144,3.78931 c -10.30346,-0.93423 -20.027,-3.22337 -23.33268,-5.49304 -1.90794,-1.30998 -4.15456,-3.90628 -4.15456,-4.80119 0,-1.09597 2.26727,-2.97384 5.01159,-4.15086 7.63724,-3.27554 27.90315,-4.78768 37.10595,-2.76865 9.44798,2.07281 14.45355,2.78326 16.62535,2.35964 4.13326,-0.80621 6.7205,-0.51556 10.63607,1.19486 5.37945,2.34988 5.62663,2.819 3.01332,5.7189 -4.58872,5.09199 -14.57599,7.54854 -32.26978,7.93735 -5.60828,0.12325 -11.29415,0.12459 -12.63526,0.003 z m 1.17384,-3.24455 c -4.10924,-0.23688 -8.89734,-0.57688 -10.64022,-0.75556 -1.74289,-0.1787 -2.86963,-0.20663 -2.50387,-0.0621 2.11345,0.83523 6.85826,1.2881 13.30028,1.26947 l 7.31515,-0.0212 -7.47134,-0.43066 z"
       style="fill:#ca931f;stroke-width:0.51375294" />
    <path
       inkscape:connector-curvature="0"
       id="path31"
       d="m 94.140037,206.38014 c -0.487676,-0.28141 -2.413814,-0.53048 -4.280304,-0.5535 -3.432393,-0.0423 -13.260264,-1.35128 -18.551837,-2.47088 -6.74594,-1.42733 -11.384443,-3.27459 -12.96777,-5.16434 -1.085684,-1.2958 -1.001834,-4.60542 0.156074,-6.16032 2.930193,-3.93483 15.167716,-8.1605 29.018486,-10.02021 4.428744,-0.59464 7.117958,-2.18459 7.543199,-4.45979 0.293723,-1.57154 -0.04597,-13.85629 -0.482871,-17.46282 -0.168834,-1.39367 -0.485398,-2.68203 -0.703478,-2.86302 -0.879676,-0.73007 -0.249793,-1.53301 2.817721,-3.59184 3.614783,-2.42614 4.765933,-3.59985 4.765933,-4.8593 0,-0.82535 -1.02386,-2.74644 -3.301643,-6.19492 -0.576647,-0.87303 -1.190553,-2.21255 -1.364228,-2.97673 -0.173675,-0.76417 -0.624111,-1.86085 -1.000961,-2.43705 -0.535695,-0.81907 -0.579577,-1.33863 -0.20114,-2.38139 0.266227,-0.73355 0.614243,-2.38881 0.773371,-3.67835 0.159129,-1.28954 0.851985,-3.8414 1.539685,-5.67081 0.687699,-1.8294 1.458925,-4.39105 1.713834,-5.69255 0.254912,-1.3015 0.791792,-19.19639 1.193072,-39.76643 0.79713,-40.862324 0.81973,-40.30453 -1.688455,-41.678871 l -1.32159,-0.724157 2.272365,-1.896896 c 2.48117,-2.07119 2.80762,-3.241089 1.27485,-4.56862 -0.75898,-0.657357 -1.47459,-0.738021 -2.992558,-0.337326 -3.538224,0.933981 -11.093229,0.605091 -19.950415,-0.868497 -8.251776,-1.372864 -20.108352,-2.60963 -27.690343,-2.888392 l -3.528168,-0.129719 -0.358053,-2.322404 c -0.196928,-1.277323 -0.265664,-2.446464 -0.152749,-2.598092 0.11291,-0.151628 0.741468,0.290667 1.396791,0.982877 0.952175,1.005777 1.807653,1.258563 4.259214,1.258563 1.687251,0 9.191626,0.429252 16.676392,0.953894 15.097405,1.058246 23.510105,0.866668 28.361071,-0.645854 4.969258,-1.549406 6.168358,-3.464782 6.990998,-11.16702 0.37245,-3.4872489 0.90812,-3.189794 1.30928,0.72704 0.23314,2.276368 0.14601,3.175961 -0.37544,3.876194 -0.37347,0.501523 -0.81337,2.114723 -0.97755,3.584887 -0.33519,3.001626 0.43783,5.271297 2.02585,5.948123 0.68357,0.291342 0.85003,0.719631 0.65387,1.682354 -0.25687,1.260655 -0.24671,1.263901 0.42482,0.135869 0.38214,-0.641913 0.68797,-2.296008 0.68797,-3.720911 0,-1.410897 0.16456,-2.565267 0.36569,-2.565267 0.20113,0 1.84703,0.693178 3.65757,1.540395 5.6306,2.634766 16.31219,2.572819 27.23239,-0.157933 1.95071,-0.487802 7.59168,-1.034821 12.5355,-1.215598 4.94381,-0.180776 9.0953,-0.56018 9.22552,-0.84312 0.13022,-0.28294 0.624,-0.514436 1.09729,-0.514436 0.70769,0 0.86051,0.420919 0.86051,2.370041 0,2.931882 0.37827,2.806497 -9.90334,3.282676 -7.0297,0.325571 -14.1364,1.19505 -27.11576,3.317514 -2.19454,0.358866 -7.05913,0.563641 -10.81018,0.455056 -6.10394,-0.176697 -6.87174,-0.08824 -7.31192,0.842369 -0.36594,0.773657 -0.3508,1.34302 0.0591,2.224469 0.71635,1.540322 0.72318,1.517333 -0.49039,1.652205 -1.60277,0.17813 -4.3567,1.562171 -4.43257,2.227677 -0.0373,0.327441 1.12915,0.677032 2.59218,0.776871 2.98499,0.2037 3.60159,0.676531 2.97947,2.284779 -0.68516,1.771225 0.93643,78.66004 1.70339,80.7674 0.40567,1.11463 0.34498,1.08807 -0.41532,-0.18172 -1.51495,-2.53019 -1.84889,-5.72999 -2.26788,-21.73138 -0.67063,-25.610994 -1.08136,-27.168305 -1.33464,-5.060434 -0.31044,27.096544 0.4782,37.770454 2.82188,38.192804 0.27675,0.0499 0.70677,0.12179 0.95558,0.15981 0.3543,0.0541 2.07644,1.49468 3.69271,3.0889 0.41268,0.40704 -1.05737,4.71102 -2.17989,6.38224 -4.21251,6.27164 -4.16964,6.90099 0.69484,10.19913 2.84954,1.932 3.51939,2.63877 3.40761,3.5954 -0.0765,0.65488 -0.31401,2.39626 -0.52775,3.86974 -0.21374,1.47348 -0.40051,6.07572 -0.41505,10.22719 -0.0288,8.21345 0.0689,8.58799 2.60719,9.99986 1.00371,0.55829 1.31209,1.05064 1.1329,1.80876 -0.14281,0.60423 0.0204,1.17906 0.38868,1.36882 0.88086,0.45391 1.25746,-0.21208 0.66344,-1.17322 -0.39885,-0.64537 -0.15832,-0.79896 1.25123,-0.79896 3.85301,0 14.62717,2.29583 19.9951,4.2607 2.86439,1.04847 8.9591,4.44158 8.9591,4.9878 0,0.11336 -1.43223,-0.44805 -3.18273,-1.24757 -5.11157,-2.33463 -16.33136,-4.69834 -15.69033,-3.30553 0.19365,0.42077 -0.10919,0.66271 -0.82952,0.66271 -0.62399,0 -1.13452,0.21647 -1.13452,0.48105 0,0.26459 -0.82872,0.46551 -1.84159,0.44651 -1.15145,-0.0216 -1.88664,0.24992 -1.96179,0.72453 -0.0661,0.41748 -0.0221,0.49788 0.0978,0.17865 0.1344,-0.35788 0.6141,-0.37816 1.25119,-0.0529 0.56828,0.29013 1.15227,0.36766 1.29777,0.17228 0.37489,-0.50343 2.04334,1.6407 2.04334,2.62592 0,0.45069 0.29812,0.97305 0.66247,1.1608 0.36436,0.18776 0.55209,0.58121 0.41718,0.87433 -0.33507,0.728 -4.62639,0.679 -4.62639,-0.0529 0,-0.32218 -0.74814,-0.0791 -1.66253,0.5401 -0.9144,0.61924 -3.05907,1.29989 -4.76593,1.51255 -6.44494,0.803 -17.25198,2.77817 -21.260253,3.88567 -6.022698,1.66409 -6.448661,1.8411 -6.448661,2.67974 0,1.01891 1.443607,1.47534 4.697219,1.48513 2.123837,0.006 2.87199,0.2601 3.495575,1.18541 0.72358,1.07367 1.48074,1.19285 8.60306,1.35417 6.59757,0.14944 6.12385,0.19123 -3.05223,0.26924 -5.97405,0.0508 -11.260906,-0.13789 -11.748583,-0.41931 z m 31.255653,-14.26961 c 0,-0.7743 -0.21617,-1.06062 -0.63702,-0.84375 -0.35036,0.18055 -0.52852,0.70795 -0.39591,1.17201 0.35489,1.24191 1.03293,1.02644 1.03293,-0.32826 z m -10.57281,-5.22796 c 1.14314,-1.5376 -0.21325,-1.91949 -4.88299,-1.37479 -2.51335,0.29316 -4.67255,0.6711 -4.79824,0.83988 -0.12568,0.16877 -0.0859,0.61673 0.0884,0.99547 0.4389,0.95364 8.84132,0.55024 9.59281,-0.46056 z m 7.02607,-0.14883 c 0,-0.32744 -0.39901,-0.59535 -0.88669,-0.59535 -0.48767,0 -0.88668,0.26791 -0.88668,0.59535 0,0.32744 0.39901,0.59534 0.88668,0.59534 0.48768,0 0.88669,-0.2679 0.88669,-0.59534 z m -12.19192,-2.97673 c 0.16306,-0.35431 -0.36485,-0.59535 -1.30386,-0.59535 -0.86783,0 -1.57787,0.26791 -1.57787,0.59535 0,0.32744 0.58674,0.59534 1.30386,0.59534 0.71713,0 1.42717,-0.2679 1.57787,-0.59534 z m 3.51048,-3.93345 c 0.58727,-0.30262 0.70127,-1.5608 0.70127,-7.73949 0,-6.98123 -0.0477,-7.37813 -0.88668,-7.37813 -0.49261,0 -0.88669,0.3969 -0.88669,0.89302 0,0.49116 -0.18525,0.89302 -0.41167,0.89302 -0.22643,0 -0.73993,0.44079 -1.14112,0.97954 -0.58832,0.79003 -0.61589,1.07376 -0.1425,1.46664 0.41696,0.34605 0.58693,2.04514 0.58693,5.86695 0,5.65741 0.17205,6.05339 2.18046,5.01845 z m -0.18541,-18.14238 c 0.80009,-0.61492 -2.92063,-0.72231 -5.46512,-0.15774 -1.18427,0.26276 -1.51901,0.53489 -1.10836,0.90103 0.66423,0.59223 5.5554,0.0392 6.57348,-0.74329 z m -0.33251,-3.93638 c 2.13472,-1.02744 2.74481,-1.94439 1.33003,-1.99898 -0.42672,-0.0164 -1.61884,-0.1279 -2.64915,-0.24764 -1.67308,-0.19445 -6.07098,0.92395 -6.64047,1.68869 -1.28414,1.72443 4.66899,2.14171 7.95959,0.55793 z m -5.57256,-20.14419 c 0.0826,-0.33685 -0.45691,-1.09397 -1.19882,-1.68248 -1.10546,-0.87691 -1.86983,-0.99512 -4.23505,-0.65498 -3.179912,0.45729 -3.531625,1.29593 -1.04136,2.48304 1.77476,0.84602 6.25689,0.74525 6.47523,-0.14558 z m 3.02334,-2.66195 c 0.1507,-0.32744 0.0745,-0.59535 -0.16934,-0.59535 -0.24384,0 -0.56664,0.26791 -0.71735,0.59535 -0.1507,0.32744 -0.0745,0.59534 0.16935,0.59534 0.24384,0 0.56664,-0.2679 0.71734,-0.59534 z m 19.72874,68.91633 c 0,-0.65764 1.02863,-1.06098 4.10092,-1.60804 8.79589,-1.56622 15.40616,-4.03742 15.40616,-5.75948 0,-0.42991 0.399,-1.06841 0.88668,-1.41889 0.48768,-0.35048 0.88669,-1.08929 0.88669,-1.64178 0,-0.79577 0.14693,-0.72284 0.70702,0.35097 1.0458,2.00499 0.46999,4.04443 -1.52841,5.41348 -2.88278,1.97493 -10.39953,4.18624 -17.46649,5.13838 -2.47723,0.33376 -2.99257,0.25202 -2.99257,-0.47464 z M 29.412025,153.58846 c -10.073117,-0.6669 -19.588689,-2.81472 -23.5387878,-5.31308 -2.5574621,-1.61754 -3.4871212,-2.82979 -3.8803807,-5.05991 -0.24694,-1.40037 -0.1016743,-1.6152 1.5383003,-2.27501 3.0840292,-1.2408 3.3170576,-1.28576 1.8295343,-0.35305 -1.5925173,0.99856 -1.764698,1.58404 -0.7864527,2.67427 0.8575471,0.95571 3.2265423,0.53984 9.3232676,-1.63669 3.185043,-1.13706 7.110508,-1.99307 11.305235,-2.46528 8.338538,-0.93868 15.505696,-2.34156 16.622875,-3.25369 1.873587,-1.52973 22.576027,0.83345 28.344087,3.23546 3.190306,1.32855 4.684933,2.62201 4.684933,4.05439 0,1.23781 -1.887291,3.73626 -3.799703,5.03015 -1.907818,1.29079 -7.915934,3.27992 -11.066499,3.66383 -2.601587,0.31702 -2.622305,0.30769 -1.238903,-0.55801 2.613881,-1.6357 2.326826,-2.32538 -0.784716,-1.88534 -4.496084,0.63585 -20.987246,1.18462 -22.30028,0.74208 -1.306935,-0.44048 -1.165594,-1.55697 0.197105,-1.55697 0.769147,0 0.829531,-0.3155 0.598203,-3.12557 -0.141515,-1.71906 -0.355026,-3.25951 -0.474469,-3.42323 -0.119443,-0.16372 -3.255167,-0.38773 -6.968275,-0.4978 -9.981881,-0.29588 -19.224013,2.1975 -18.811343,5.075 0.186072,1.29746 1.652221,1.7113 9.00939,2.54302 11.671089,1.31942 11.385802,1.26466 11.136289,2.13781 -0.162847,0.56987 0.265611,0.93676 1.408309,1.20593 0.9033,0.21278 2.340628,0.59758 3.194062,0.85511 1.441254,0.43491 1.39392,0.46448 -0.665013,0.41546 -1.219192,-0.029 -3.413738,-0.13201 -4.876768,-0.22888 z m 144.973015,0.0596 c 0.48768,-0.14597 1.93408,-0.54989 3.21423,-0.89759 1.28015,-0.3477 2.32755,-0.85466 2.32755,-1.12659 0,-0.87346 2.71915,-1.80158 5.27815,-1.80158 3.35014,0 13.88671,-1.6837 14.33922,-2.29135 1.31485,-1.76566 -1.91787,-3.87204 -7.9658,-5.19035 -3.92799,-0.85622 -14.97289,-1.15696 -16.91054,-0.46045 -0.92755,0.33342 -1.02103,0.6386 -0.81805,2.67081 0.12605,1.26191 0.0487,2.4442 -0.17197,2.62731 -0.83639,0.69414 -0.34285,1.41407 1.2433,1.81365 1.58772,0.39999 1.60684,0.43394 0.55418,0.9841 -1.13811,0.59483 -20.36727,0.17073 -23.81158,-0.52516 -2.30181,-0.46506 -2.55523,0.5693 -0.44334,1.80953 l 1.44086,0.84616 -1.33002,0.0432 c -1.90956,0.062 -10.51182,-2.6491 -12.26212,-3.86452 -5.29411,-3.67627 -5.27103,-6.32708 0.0774,-8.89896 5.56904,-2.67793 26.7525,-5.08205 29.1876,-3.31251 1.02423,0.74429 17.33858,3.62768 20.52557,3.62768 0.89455,0 4.38782,0.9359 7.76284,2.07977 6.84446,2.31975 8.21224,2.49858 9.02701,1.18024 0.63844,-1.03302 0.66422,-0.97971 -1.11725,-2.31019 -1.08436,-0.80985 -1.13244,-0.92122 -0.26028,-0.603 0.58835,0.21468 1.70941,0.74923 2.49123,1.1879 1.19275,0.66923 1.38623,1.04529 1.20235,2.33699 -0.76024,5.34047 -11.70704,9.14347 -28.92549,10.04892 -3.04798,0.16027 -5.14278,0.17198 -4.6551,0.026 z M 10.348295,138.51073 c 0.731515,-0.24995 1.729036,-0.45946 2.216713,-0.46556 0.694804,-0.009 0.646834,0.0921 -0.221672,0.46556 -0.609596,0.26216 -1.607116,0.47166 -2.216712,0.46557 -0.9955687,-0.01 -0.973011,-0.0573 0.221671,-0.46557 z m 187.312225,0 c -1.49594,-0.42284 -1.5039,-0.43889 -0.22167,-0.44653 0.73152,-0.004 1.92854,0.19658 2.66006,0.44653 1.18015,0.40326 1.20513,0.45358 0.22167,0.44654 -0.6096,-0.004 -1.80662,-0.20531 -2.66006,-0.44654 z M 170.87773,20.18911 c -0.18151,-0.243745 -1.46166,-0.606216 -2.84478,-0.805491 l -2.51476,-0.362318 2.43838,-0.07841 c 2.28483,-0.07347 4.05231,0.613586 3.49696,1.359348 -0.13518,0.181524 -0.39429,0.130616 -0.5758,-0.113128 z"
       style="fill:#bb8522;stroke-width:0.51375294" />
    <path
       inkscape:connector-curvature="0"
       id="path29"
       d="m 100.21143,206.53157 c 2.60774,-0.10507 6.99683,-0.10544 9.75353,-6e-4 2.7567,0.10463 0.62309,0.1906 -4.74136,0.19105 -5.36444,4.5e-4 -7.619922,-0.0851 -5.01217,-0.19022 z m -19.593341,-1.73235 c -12.103034,-1.55749 -20.012052,-3.90337 -22.277963,-6.6078 -1.085684,-1.2958 -1.001834,-4.60542 0.156074,-6.16032 2.394791,-3.21586 11.603406,-6.8722 21.456876,-8.5196 9.923137,-1.65903 11.653161,-2.10044 13.277958,-3.38777 0.868996,-0.68851 1.691077,-1.84619 1.826851,-2.57263 0.293723,-1.57154 -0.04597,-13.85629 -0.482871,-17.46282 -0.168834,-1.39367 -0.485398,-2.68203 -0.703478,-2.86302 -0.920792,-0.7642 -0.188634,-1.61719 3.380522,-3.93846 4.277542,-2.78198 5.036012,-4.28093 3.370672,-6.66139 -0.5175,-0.73972 -0.940911,-1.66029 -0.940911,-2.04571 0,-0.38542 -0.424505,-1.03792 -0.943344,-1.45 -0.518839,-0.41207 -1.407808,-2.13665 -1.97549,-3.8324 -0.921155,-2.75163 -0.986118,-3.46698 -0.604103,-6.65236 0.235424,-1.96305 1.221311,-5.79978 2.190866,-8.52607 l 1.762822,-4.95687 0.75859,-38.142373 c 0.83668,-42.068791 0.86961,-41.285879 -1.797793,-42.747462 l -1.366949,-0.749011 2.317272,-1.747797 c 2.38693,-1.80033 2.83965,-3.046203 1.67514,-4.60997 -0.52757,-0.708461 -1.87801,-0.807777 -7.520829,-0.553114 -5.919936,0.267171 -8.175645,0.07617 -16.196895,-1.371455 -5.125506,-0.925019 -9.237113,-1.791955 -9.1369,-1.926524 0.100209,-0.134569 6.930038,-0.286569 15.177398,-0.337777 14.534484,-0.09024 15.007265,-0.129688 15.387803,-1.283797 0.215935,-0.65488 1.140953,-1.903252 2.055603,-2.774161 1.23721,-1.178056 1.90399,-2.473671 2.6043,-5.060438 0.56531,-2.088079 0.82025,-2.644623 0.63824,-1.393259 -0.50996,3.506084 -0.54852,12.747217 -0.0565,13.544115 0.2527,0.4093 1.16422,0.744182 2.02559,0.744182 1.53804,0 1.55173,0.02135 0.76368,1.190691 -0.44134,0.654881 -1.05401,1.190692 -1.36148,1.190692 -0.61407,0 -3.29361,4.269189 -3.29361,5.247562 0,0.336117 1.29677,0.79761 2.88172,1.025538 1.58495,0.227928 2.88173,0.629199 2.88173,0.891713 0,1.271259 -0.66501,2.503364 -1.61216,2.986935 -0.87007,0.444214 -1.05179,0.966883 -1.07084,3.079959 -0.1177,13.052014 0.11637,69.502631 0.2921,70.448811 0.12515,0.67382 0.28508,4.29055 0.3554,8.03717 0.0703,3.74662 0.27678,7.39271 0.4588,8.10243 0.31871,1.24267 0.18367,1.30588 -3.65035,1.70864 -2.18972,0.23003 -4.2536,0.64431 -4.586404,0.92062 -1.062856,0.88242 0.511964,2.26396 3.397744,2.98074 3.35199,0.83257 5.61101,0.43132 6.83647,-1.21429 0.67238,-0.90292 1.387,-1.23591 2.37627,-1.10729 1.33209,0.1732 1.41158,0.31731 1.3608,2.46728 -0.0439,1.85928 -0.42966,2.79911 -2.07706,5.06044 -1.11273,1.5274 -2.15749,3.51384 -2.32169,4.4143 -0.18573,1.01851 -0.59514,1.6372 -1.08338,1.6372 -1.00254,0 -1.91907,2.91359 -1.54541,4.91278 0.22603,1.20935 0.0941,1.60504 -0.63946,1.91768 -0.50834,0.21666 -0.92426,0.75845 -0.92426,1.20399 0,1.4406 4.54275,1.78922 7.81511,0.59974 1.57516,-0.57257 2.98415,-0.87958 3.13108,-0.68228 0.14694,0.19732 0.0883,1.49638 -0.13024,2.88681 -0.44649,2.84035 -0.62345,2.96426 -5.64784,3.95449 -1.66855,0.32885 -3.16484,0.77376 -3.32507,0.9887 -0.42786,0.57392 -0.35579,14.38954 0.0781,14.97514 0.61035,0.8237 6.70234,0.57703 7.95334,-0.32203 1.02199,-0.73448 1.30829,-0.6825 2.72717,0.49507 0.87192,0.72363 1.58531,1.66704 1.58531,2.09646 0,0.42942 0.32172,0.94655 0.71494,1.14918 1.09693,0.56525 0.0139,1.93592 -1.91328,2.42142 -1.22909,0.30964 -1.70265,0.18349 -2.00127,-0.53307 -0.27499,-0.65985 -1.0509,-0.93868 -2.61204,-0.93868 -1.51656,0 -2.12424,-0.20991 -1.91621,-0.66191 0.41561,-0.90304 -0.63882,-1.70124 -2.24735,-1.70124 -1.69971,0 -2.53978,0.72026 -2.20529,1.89078 0.18441,0.64534 -0.0902,1.03991 -0.91812,1.31893 -0.89721,0.3024 -1.12676,0.67794 -0.95463,1.56182 0.21279,1.09268 -0.0233,1.16369 -3.86927,1.16369 h -4.095892 l 0.170381,3.42324 c 0.251983,5.06288 0.494713,6.10446 1.544069,6.62573 0.754463,0.37479 0.376611,0.62337 -1.836099,1.20795 -2.847274,0.75222 -4.909185,1.75549 -4.897051,2.38276 0.0223,1.1518 0.983924,1.87758 3.116982,2.35248 1.91692,0.42677 0.902069,0.53301 -4.897139,0.51265 -4.023334,-0.0141 -8.013417,-0.11554 -8.866852,-0.22536 z m 32.297321,-42.53265 c 1.76091,-0.82432 1.39534,-1.72805 -0.69901,-1.72805 -2.5068,0 -7.2375,1.25436 -6.96486,1.84674 0.34689,0.75374 5.98679,0.66639 7.66387,-0.11869 z m 20.93423,40.93055 c 0.13866,-0.20437 2.23346,-0.91453 4.6551,-1.57811 6.28161,-1.72131 9.80147,-3.36297 11.77362,-5.49121 1.87927,-2.02801 2.41841,-1.92099 1.9857,0.39417 -0.36505,1.9532 -2.73753,3.57484 -7.46365,5.10159 -3.6219,1.17004 -11.4391,2.29332 -10.95077,1.57356 z m 0.85624,-17.66442 c -1.09727,-0.25116 -4.83797,-0.80448 -8.31267,-1.22959 -5.72413,-0.70034 -6.98618,-1.11168 -5.97799,-1.9484 0.75457,-0.62625 17.52923,2.57606 18.19792,3.47401 0.30169,0.40512 -1.41094,0.27537 -3.90726,-0.29602 z M 17.933345,152.1665 c -8.2884021,-1.29147 -12.9773586,-3.54817 -14.7200727,-7.08448 -1.1239424,-2.2807 -1.1536295,-4.39305 -0.033046,-2.35134 1.2553495,2.28726 2.3531723,2.47844 6.5799722,1.14587 2.2063635,-0.69559 4.0912145,-1.15775 4.1885585,-1.02703 0.09734,0.13072 -0.635183,0.72947 -1.627839,1.33057 -1.886174,1.14217 -2.9798648,2.90653 -2.201912,3.55218 0.729882,0.60575 5.242796,1.4729 11.008388,2.11524 3.907109,0.4353 5.921775,0.94127 7.086915,1.77986 l 1.627927,1.17166 -4.42686,-0.0782 c -2.434773,-0.043 -5.801687,-0.29246 -7.482031,-0.55428 z m 163.545175,-0.46656 c 1.13174,-0.68473 4.47948,-1.4491 9.2527,-2.1126 8.66925,-1.20507 9.83152,-1.61708 9.17919,-3.25388 -0.24522,-0.6153 -1.15102,-1.56807 -2.01288,-2.11727 -0.86187,-0.5492 -1.56703,-1.08535 -1.56703,-1.19143 0,-0.28647 3.99949,0.76356 5.60797,1.47232 1.68916,0.7443 3.36946,0.25695 4.40332,-1.27713 0.82051,-1.21751 1.51561,-1.4855 1.51561,-0.58432 0,0.30405 -0.24938,0.91815 -0.55418,1.36467 -0.30479,0.44652 -0.76743,1.33634 -1.02807,1.9774 -1.43336,3.52539 -12.48005,6.84246 -22.67328,6.80826 l -3.89672,-0.0131 1.77337,-1.07294 z M 62.857623,150.1825 c 0.838715,-0.40695 1.612774,-1.09376 1.720125,-1.52624 0.153197,-0.61716 -0.317979,-0.70315 -2.189949,-0.39968 -4.118293,0.66764 -24.516989,1.08031 -25.129158,0.50837 -0.54279,-0.50712 -0.874399,-2.361 -0.944261,-5.27892 -0.03946,-1.64817 -0.748017,-1.97345 -5.058188,-2.32207 -1.955451,-0.15817 -3.623006,-0.37841 -3.705679,-0.48943 -0.08267,-0.11102 1.998132,-0.53267 4.624011,-0.93701 5.784262,-0.89067 6.836322,-1.19501 6.518466,-1.88564 -0.134625,-0.29251 0.278877,-0.53184 0.918894,-0.53184 0.640018,0 1.599436,-0.31325 2.132042,-0.69612 1.318768,-0.948 13.669816,-0.67918 20.253776,0.44082 7.228271,1.22961 12.856934,3.69282 12.856934,5.62646 0,0.80501 -2.642202,4.69499 -3.710471,5.46273 -1.393998,1.00183 -6.965652,2.84356 -8.481449,2.80356 l -1.330028,-0.0351 1.524935,-0.7399 z m 80.049567,-0.28287 c -3.78619,-1.25116 -5.48355,-2.54016 -6.83656,-5.19175 -0.83238,-1.63127 -0.92827,-2.19429 -0.49353,-2.89773 0.84151,-1.36159 5.16648,-3.31147 9.54733,-4.30437 5.62127,-1.27401 21.22485,-1.90628 22.94947,-0.92992 0.72298,0.4093 1.89011,0.74418 2.59363,0.74418 0.70352,0 1.27913,0.23925 1.27913,0.53165 0,0.84681 1.1539,1.23235 5.82167,1.94511 2.40636,0.36745 4.3748,0.83119 4.37431,1.03054 -4.4e-4,0.19935 -1.34715,0.42731 -2.99256,0.50658 -1.64542,0.0793 -3.55558,0.30599 -4.24481,0.50382 -1.12119,0.32182 -1.24346,0.58872 -1.16125,2.53493 0.0505,1.19637 -0.064,2.81309 -0.25461,3.5927 l -0.3465,1.41747 -11.57086,-0.39512 c -6.36397,-0.21731 -12.61825,-0.54615 -13.8984,-0.73074 -2.75844,-0.39777 -3.06945,0.4294 -0.66501,1.76864 l 1.66253,0.92602 -1.33003,-0.0132 c -0.73151,-0.007 -2.72679,-0.47472 -4.43395,-1.03886 z M 110.3884,30.314326 c -1.73512,-0.207648 -1.90257,-0.361515 -1.66859,-1.53319 0.14305,-0.716308 0.26282,-2.039119 0.26615,-2.939579 0.007,-2.026805 0.7737,-2.135162 1.32516,-0.187406 l 0.41048,1.449795 15.94547,-0.110267 c 8.77002,-0.06065 15.84708,0.02175 15.72681,0.183108 -0.12027,0.161357 -2.84691,0.751769 -6.05921,1.312027 -3.2123,0.560259 -7.43134,1.298933 -9.37565,1.641499 -3.34182,0.588791 -12.35216,0.688849 -16.57062,0.184013 z"
       style="fill:#b2710f;stroke-width:0.51375294" />
    <path
       inkscape:connector-curvature="0"
       id="path27"
       d="m 101.10026,206.53265 c 2.12125,-0.10889 5.71233,-0.1094 7.98016,-10e-4 2.26784,0.10827 0.53227,0.19737 -3.85682,0.19799 -4.38909,6e-4 -6.244594,-0.088 -4.12334,-0.19685 z m -26.688966,-2.55713 c -7.435351,-1.2222 -14.327191,-3.70261 -16.071168,-5.7841 -1.054437,-1.25851 -1.003546,-4.60312 0.09244,-6.07487 2.842371,-3.8169 13.918965,-7.80554 24.050912,-8.66064 6.682467,-0.56398 12.047022,-3.08312 12.574405,-5.90481 0.293723,-1.57154 -0.04597,-13.85629 -0.482871,-17.46282 -0.168834,-1.39367 -0.485398,-2.68203 -0.703478,-2.86302 -0.928679,-0.77074 -0.176508,-1.6349 3.482735,-4.00128 3.232181,-2.09021 3.901241,-2.76211 4.011071,-4.02809 0.0821,-0.9465 -0.21044,-1.93536 -0.77585,-2.62249 -0.49922,-0.60668 -0.907673,-1.45722 -0.907673,-1.89008 0,-0.43287 -0.46801,-1.19882 -1.040024,-1.70212 -1.144923,-1.00738 -2.063374,-3.28156 -2.063374,-5.10911 0,-1.11569 0.06992,-1.12942 1.322389,-0.25968 0.727313,0.50505 2.222182,1.0839 3.321922,1.28632 3.1506,0.5799 5.90198,4.95839 3.70434,5.89504 -1.34037,0.57127 -0.12752,2.0518 1.68084,2.0518 2.19296,0 1.96064,1.54583 -0.29334,1.9518 -2.28239,0.4111 -3.08601,1.3248 -3.08601,3.50877 0,0.95849 -0.294,2.50618 -0.65334,3.4393 -0.58492,1.51891 -0.57784,1.78079 0.0676,2.50065 0.84259,0.93975 7.66823,1.1129 10.71658,0.27185 1.76162,-0.48604 1.91508,-0.43438 1.76853,0.59534 -0.14039,0.98641 -0.71488,1.17334 -4.58906,1.4932 -8.03062,0.66301 -10.5746,1.83397 -5.86945,2.70163 l 2.32755,0.42921 -1.5517,0.53913 c -3.81864,1.32676 -3.588,0.71225 -3.44918,9.18964 0.1203,7.34582 0.15708,7.60079 1.19662,8.29575 1.87569,1.25396 2.07429,2.54835 0.6417,4.18222 -1.25276,1.42877 -1.36606,1.4452 -7.954362,1.15318 -6.463978,-0.28651 -6.762481,-0.2465 -9.088522,1.21821 -1.322766,0.83295 -4.200564,2.56808 -6.39511,3.85585 -6.825041,4.00497 -8.558644,6.12886 -6.317631,7.73992 1.049516,0.75449 10.53608,2.8392 13.189441,2.89842 1.241523,0.0277 1.401246,0.15246 0.799036,0.62404 -1.076622,0.84308 -9.733643,1.18658 -13.65597,0.54184 z m 64.035466,-1.70298 c 0.13556,-0.29454 1.29448,-0.87007 2.57539,-1.27896 4.57261,-1.45968 7.67447,-3.06685 9.34094,-4.83983 1.8682,-1.98759 2.32475,-1.89916 1.90097,0.36822 -0.38578,2.06409 -3.06008,3.7882 -7.99931,5.15712 -4.43027,1.22785 -6.1927,1.40763 -5.81799,0.59345 z M 15.890077,151.80712 c -5.467933,-1.15645 -12.4957271,-4.13508 -11.2411269,-4.7644 0.2790981,-0.13999 2.0746354,0.27272 3.9900831,0.91715 1.9154478,0.64444 5.1784168,1.62317 7.2510438,2.17496 4.596799,1.2238 5.911656,2.05832 3.103398,1.96968 -1.097273,-0.0346 -2.493802,-0.16846 -3.103398,-0.29739 z m 172.903593,0.24862 c 0,-0.17553 1.34666,-0.72926 2.99256,-1.23053 1.64591,-0.50125 5.35126,-1.62689 8.23411,-2.5014 2.88285,-0.87452 5.3574,-1.43444 5.49902,-1.24427 0.37179,0.49926 -2.61717,2.07081 -6.42739,3.37941 -3.26347,1.12082 -10.2983,2.2116 -10.2983,1.59679 z M 67.427709,148.73699 c 2.184654,-1.43983 2.347286,-1.71834 0.884233,-1.5143 -2.61831,0.36516 -10.932047,0.64204 -10.312241,0.34344 1.05496,-0.50825 1.885598,-1.8782 1.646384,-2.71532 -0.26668,-0.93322 -4.522817,-2.47967 -9.488391,-3.44757 -2.000991,-0.39004 -3.552757,-0.89474 -3.448367,-1.12156 0.104394,-0.22682 1.48968,-0.59123 3.07842,-0.80982 3.66678,-0.50447 4.229789,-0.8103 4.229789,-2.29763 0,-1.14592 0.179594,-1.18805 3.435905,-0.80609 13.183199,1.54637 19.976727,5.25423 15.658323,8.54621 -0.74905,0.57101 -1.268709,1.37097 -1.154801,1.77769 0.278445,0.99421 -1.886534,2.42756 -4.260106,2.82045 l -1.930743,0.3196 z m 73.459081,0.52079 c -1.86551,-0.76015 -3.07751,-1.80865 -3.07751,-2.66235 0,-0.44199 -0.51098,-1.25321 -1.13552,-1.80272 -3.85251,-3.38973 3.11166,-7.06031 15.98749,-8.42647 3.70618,-0.39324 3.94616,-0.35217 3.37273,0.57728 -0.33954,0.55035 -0.50498,1.15155 -0.36763,1.33599 0.44096,0.59213 3.58688,1.39307 5.52925,1.40771 1.03631,0.008 1.8842,0.28211 1.8842,0.60955 0,0.32744 -0.0937,0.59535 -0.20825,0.59535 -0.11453,0 -2.34324,0.42593 -4.95268,0.94651 -5.40266,1.07783 -6.99856,1.73274 -6.55752,2.69101 0.16783,0.36466 0.0302,0.90606 -0.30583,1.20312 -0.5013,0.44314 -0.46463,0.69038 0.20423,1.37724 0.71264,0.73182 0.26644,0.80284 -3.54674,0.56451 -2.39908,-0.14994 -5.11013,-0.37231 -6.02459,-0.49415 -0.92108,-0.12272 -1.55204,0.0188 -1.41469,0.31719 0.13636,0.29629 0.48554,0.5508 0.77595,0.56556 0.29041,0.0148 1.12652,0.39487 1.85804,0.84467 1.28882,0.79248 1.29568,0.81773 0.22167,0.815 -0.6096,-0.002 -1.61877,-0.2108 -2.2426,-0.465 z M 96.253278,132.20457 c 0.142038,-1.60693 1.077292,-5.21298 2.078342,-8.01343 l 1.82008,-5.09174 0.62778,-29.735985 c 0.34527,-16.354796 0.72546,-33.486667 0.84485,-38.070829 0.2448,-9.398716 -0.22921,-11.738478 -2.650378,-13.082588 L 97.686778,37.495421 99.553321,36.208 c 1.026599,-0.708082 1.974249,-1.287421 2.105879,-1.287421 0.54117,0 0.18556,1.410533 -0.53652,2.128089 -0.70387,0.699463 -0.62293,0.857438 0.87245,1.702833 0.90656,0.512514 2.5026,0.935946 3.54674,0.94096 3.56521,0.01712 3.73404,1.773033 0.25146,2.615371 -0.90584,0.219098 -1.75693,0.637264 -1.89132,0.929259 -0.13439,0.291995 -0.36019,17.092694 -0.50179,37.334883 -0.23841,34.083186 -0.32385,37.196456 -1.1556,42.112936 -0.59822,3.53604 -0.81667,6.36914 -0.65416,8.48367 0.21325,2.77464 0.1441,3.17473 -0.54877,3.17473 -0.43602,0 -1.749897,0.17617 -2.919718,0.39148 l -2.12695,0.39149 z M 102.5598,32.523336 c -0.15685,-0.663604 -0.76881,-1.632086 -1.3599,-2.152181 -1.577001,-1.387558 -1.463257,-4.391927 0.26129,-6.901588 l 1.33603,-1.944267 -0.27545,3.031056 c -0.2783,3.062291 0.603,6.792149 1.60486,6.792149 0.70704,0 0.48988,1.628796 -0.26932,2.020014 -0.97707,0.50349 -0.97906,0.502198 -1.29751,-0.845183 z"
       style="fill:#905308;stroke-width:0.51375294" />
    <path
       inkscape:connector-curvature="0"
       id="path25"
       d="m 70.642882,202.99351 c -5.678061,-0.98828 -10.773867,-2.97731 -12.302756,-4.80209 -1.085427,-1.2955 -1.001848,-4.6054 0.155538,-6.1596 1.214843,-1.63136 4.290705,-3.43693 8.157135,-4.78832 3.774521,-1.31927 5.414113,-1.44021 4.740103,-0.34963 -0.256801,0.4155 -0.451451,2.75968 -0.43256,5.20927 0.01889,2.44959 -0.09617,5.00601 -0.255707,5.68094 -0.232373,0.98313 0.007,1.41735 1.203746,2.18371 0.821585,0.52612 1.602418,1.51436 1.735176,2.1961 0.255206,1.3105 0.06472,1.36317 -3.000675,0.82962 z m 73.373188,-2.11708 c 0,-0.1713 1.14715,-0.92013 2.54922,-1.66408 1.40208,-0.74395 3.21072,-2.00769 4.01921,-2.80833 0.80848,-0.80063 1.57484,-1.31487 1.70301,-1.14276 0.59645,0.80095 -0.5258,2.92051 -2.1272,4.01759 -1.64761,1.12874 -6.14424,2.29792 -6.14424,1.59758 z M 89.743139,185.35485 c -1.132807,-1.11232 -0.711512,-2.88488 0.850158,-3.57697 0.731515,-0.32418 2.088848,-1.22949 3.016294,-2.01179 l 1.686263,-1.42237 -0.203628,-7.86074 c -0.220102,-8.4968 -0.60573,-12.74735 -1.201329,-13.24165 -0.822224,-0.68239 0.21287,-2.02367 2.54088,-3.2925 2.722106,-1.48362 3.523113,-1.00111 2.767659,1.66716 -0.222367,0.78538 -0.404302,1.65172 -0.404302,1.92518 0,0.53572 2.737576,1.4972 6.650136,2.33563 1.9754,0.42331 2.14376,0.53844 0.88669,0.60633 -1.83727,0.0992 -4.82383,0.97655 -5.2437,1.54038 -0.16318,0.21912 0.0686,0.75709 0.51507,1.19549 0.78101,0.76689 0.77789,0.82143 -0.0824,1.43969 -0.49179,0.35343 -1.21695,0.6426 -1.61148,0.6426 -0.62814,0 -0.712073,1.01775 -0.675076,8.186 0.04568,8.85059 0.01326,9.30408 -0.808688,11.31157 -0.500277,1.22186 -0.870667,1.33953 -4.216529,1.33953 -2.332949,0 -3.958526,-0.28519 -4.466038,-0.78354 z m 23.682301,-26.00702 c 0,-0.32744 0.31103,-0.59534 0.69118,-0.59534 0.38015,0 0.56788,0.2679 0.41717,0.59534 -0.1507,0.32744 -0.46173,0.59535 -0.69118,0.59535 -0.22944,0 -0.41717,-0.26791 -0.41717,-0.59535 z M 10.253808,150.11451 c -3.1452593,-0.91783 -5.4184892,-2.34674 -2.7872398,-1.75199 2.3242038,0.52534 7.4480458,2.56638 6.4284668,2.56073 -0.487677,-0.003 -2.126229,-0.36664 -3.641227,-0.80874 z m 185.670292,0.65112 c 0.21695,-0.29052 7.25342,-2.73782 7.79541,-2.71126 0.95022,0.0465 -1.28686,1.17917 -3.99469,2.02247 -3.02777,0.94293 -4.1412,1.14471 -3.80072,0.68879 z m -95.0968,-3.86802 c -2.298584,-3.2218 -0.38053,-3.49421 2.59057,-0.36793 0.94464,0.99399 0.89646,1.18552 -0.43627,1.73395 -0.65713,0.27042 -1.25911,-0.1113 -2.1543,-1.36602 z m -35.061186,-1.51383 c -0.841176,-0.90944 -3.122484,-2.04465 -6.206796,-3.08859 -2.682222,-0.90784 -4.958671,-1.72723 -5.058778,-1.82087 -0.100102,-0.0936 0.123245,-0.64073 0.496331,-1.21576 0.373082,-0.57502 0.587988,-1.38038 0.477569,-1.78968 -0.445701,-1.65209 10.470452,-0.25942 15.47985,1.9749 2.473178,1.10309 3.527473,2.29504 3.161817,3.57464 -0.348068,1.21803 -3.074372,3.0088 -5.246595,3.44622 -1.455126,0.29302 -2.012053,0.099 -3.103398,-1.08086 z m 74.481546,0.9051 c -1.56398,-0.51129 -4.04827,-2.17853 -4.40675,-2.95743 -0.94401,-2.05112 2.91019,-4.44264 9.28352,-5.7604 4.86911,-1.00675 9.70919,-1.11794 9.29293,-0.2135 -0.1602,0.34808 0.0596,1.15344 0.48835,1.78969 0.42879,0.63626 0.69771,1.24586 0.59761,1.35469 -0.10011,0.10882 -2.36455,0.91788 -5.03208,1.7979 -3.05755,1.0087 -5.38154,2.1444 -6.28806,3.0729 -1.51245,1.54913 -1.79682,1.61533 -3.93552,0.91615 z m -42.535745,-4.93389 c -0.774036,-1.48398 -0.904095,-2.84426 -0.271946,-2.84426 0.530849,0 1.798508,2.40129 1.798508,3.40687 0,1.18035 -0.764376,0.89865 -1.526562,-0.56261 z m -1.133494,-9.41218 c 0,-2.00328 0.902961,-5.25267 2.024626,-7.28583 0.715391,-1.29672 0.726368,-1.27234 0.472594,1.04999 -0.142893,1.30765 -0.02961,3.23233 0.251695,4.27706 0.615894,2.28718 -0.04907,3.76394 -1.694841,3.76394 -0.878111,0 -1.054074,-0.30135 -1.054074,-1.80516 z m 4.644489,-91.11364 c -0.16061,-0.679556 -0.22364,-1.327389 -0.14005,-1.439629 0.26383,-0.354296 4.36241,1.069417 4.36241,1.515361 0,0.510888 -1.61942,1.140411 -2.96268,1.151696 -0.59332,0.005 -1.08062,-0.46984 -1.25968,-1.227428 z"
       style="fill:#74460e;stroke-width:0.51375294" />
    <path
       inkscape:connector-curvature="0"
       id="path23"
       d="m 63.204915,200.4966 c -3.199922,-1.12056 -5.325298,-2.83053 -5.566507,-4.47854 -0.228042,-1.55801 1.08908,-3.78773 3.01809,-5.10925 2.223797,-1.52346 2.572225,-1.50454 2.600222,0.14118 0.111868,6.57517 -0.02851,6.17739 2.776574,7.86784 1.42156,0.85669 2.702909,1.81455 2.847439,2.12858 0.406824,0.88394 -2.341891,0.61767 -5.675818,-0.54981 z m 84.357905,-0.86624 c 0,-0.31695 3.78687,-3.37109 4.17986,-3.37109 0.71417,0 0.10188,1.26373 -0.96563,1.99299 -1.49487,1.02122 -3.21423,1.75839 -3.21423,1.3781 z m -57.523701,-14.4816 c -0.92957,-0.50369 -0.627977,-2.47314 0.443342,-2.89511 0.548637,-0.21609 1.850459,-0.93109 2.892943,-1.58887 1.519579,-0.95884 2.025061,-1.05151 2.54922,-0.46735 1.012798,1.12874 0.844262,3.55958 -0.2468,3.55958 -0.495333,0 -1.015436,0.40185 -1.155789,0.89302 -0.250214,0.8756 -3.184858,1.20209 -4.482916,0.49873 z m 5.29989,-22.67536 c -0.592829,-2.1086 -1.02429,-6.24667 -0.621664,-5.96233 2.419786,1.70886 4.748531,2.79998 6.737845,3.15699 l 2.43838,0.43759 -2.21671,0.86905 c -2.675962,1.04909 -2.709673,1.08658 -2.003934,2.22849 0.489734,0.79241 0.279804,0.90741 -1.656403,0.90741 -2.011627,0 -2.259895,-0.15181 -2.677514,-1.6372 z m 5.869101,-15.87683 c -0.47293,-0.46438 -0.73883,-1.00689 -0.59088,-1.20557 0.14795,-0.19868 0.74615,0.17236 1.32933,0.82454 1.20446,1.34695 0.57568,1.67141 -0.73845,0.38103 z m -35.555824,-2.62512 c -1.452701,-1.71327 -1.864247,-2.59811 -1.787509,-3.84321 0.119827,-1.94427 0.922388,-2.05005 5.224216,-0.68857 2.937521,0.9297 4.878958,2.219 4.878958,3.24011 0,0.79104 -3.004656,2.74151 -4.876768,3.16574 -1.345775,0.30497 -1.802147,0.0563 -3.438897,-1.87407 z m 74.817044,1.7214 c -1.82764,-0.49522 -4.43342,-2.23328 -4.43342,-2.95709 0,-1.43555 3.40876,-3.29771 7.20144,-3.93403 2.41121,-0.40455 2.4342,-0.39352 2.6815,1.28767 0.21164,1.43879 -0.0312,2.03017 -1.60252,3.90289 -1.01858,1.21394 -1.95171,2.18778 -2.07363,2.16409 -0.12191,-0.0237 -0.91993,-0.23228 -1.77337,-0.46353 z M 101.65863,40.834427 c -0.16072,-0.349225 -0.21366,-0.740457 -0.11764,-0.869405 0.30452,-0.408922 2.13091,0.429704 2.13091,0.97845 0,0.745006 -1.66162,0.655007 -2.01327,-0.109045 z"
       style="fill:#623609;stroke-width:0.51375294" />
  </g>
</svg>
