<?xml version="1.0" encoding="UTF-8" standalone="no"?>
<!-- Created with Inkscape (http://www.inkscape.org/) -->

<svg
   xmlns:dc="http://purl.org/dc/elements/1.1/"
   xmlns:cc="http://creativecommons.org/ns#"
   xmlns:rdf="http://www.w3.org/1999/02/22-rdf-syntax-ns#"
   xmlns:svg="http://www.w3.org/2000/svg"
   xmlns="http://www.w3.org/2000/svg"
   xmlns:sodipodi="http://sodipodi.sourceforge.net/DTD/sodipodi-0.dtd"
   xmlns:inkscape="http://www.inkscape.org/namespaces/inkscape"
   width="100%"
   height="100%"
   viewBox="0 0 210 210"
   version="1.1"
   id="svg8"
   sodipodi:docname="Curve_Map.svg"
   inkscape:version="0.92.3 (2405546, 2018-03-11)">
  <defs
     id="defs2" />
  <sodipodi:namedview
     id="base"
     pagecolor="#ffffff"
     bordercolor="#666666"
     borderopacity="1.0"
     inkscape:pageopacity="0.0"
     inkscape:pageshadow="2"
     inkscape:zoom="0.35"
     inkscape:cx="400"
     inkscape:cy="560"
     inkscape:document-units="mm"
     inkscape:current-layer="layer1"
     showgrid="false"
     inkscape:window-width="1419"
     inkscape:window-height="859"
     inkscape:window-x="362"
     inkscape:window-y="97"
     inkscape:window-maximized="0" />
  <metadata
     id="metadata5">
    <rdf:RDF>
      <cc:Work
         rdf:about="">
        <dc:format>image/svg+xml</dc:format>
        <dc:type
           rdf:resource="http://purl.org/dc/dcmitype/StillImage" />
        <dc:title></dc:title>
      </cc:Work>
    </rdf:RDF>
  </metadata>
  <g
     inkscape:label="Livello 1"
     inkscape:groupmode="layer"
     id="layer1">
    <path
       inkscape:connector-curvature="0"
       id="path3832"
       d="M 94.655766,201.1119 C 73.812497,198.93104 55.383441,191.35479 40.341353,178.78307 20.649909,162.32555 8.7693741,140.66121 5.0901461,114.50195 4.811573,112.5213 4.5836498,107.20956 4.5836498,102.69808 4.5836498,86.242174 7.923475,72.32438 15.406023,57.59884 19.919416,48.716547 24.803628,41.931651 32.161551,34.32292 48.32185,17.611768 67.617371,7.9286448 91.383628,4.6033463 96.033875,3.952699 109.89976,3.9483324 114.79132,4.5959763 c 17.75825,2.3511933 33.78827,8.7749777 47.55606,19.0573607 5.0344,3.759905 15.18639,13.762504 19.0344,18.754286 10.35251,13.429667 17.14042,29.73194 19.68894,47.286181 1.38403,9.533175 0.82522,23.862246 -1.31078,33.611036 -3.02527,13.80748 -9.33326,27.57636 -17.84218,38.94534 -3.7244,4.97628 -14.20187,15.45374 -19.17815,19.17815 -11.42923,8.55401 -25.08185,14.80841 -38.94534,17.84123 -8.06928,1.76525 -21.66158,2.62466 -29.138504,1.84234 z m 17.388114,-35.96688 c 5.32952,-0.69062 9.4039,-1.58664 13.75105,-3.02404 20.98456,-6.93863 34.31809,-20.94332 39.24163,-41.21692 3.11795,-12.83874 2.19972,-28.698851 -2.45722,-42.442305 -1.43921,-4.247387 -5.24672,-12.220393 -7.49712,-15.699163 -6.1893,-9.567679 -14.83365,-17.250854 -24.88584,-22.118756 -23.4109,-11.337029 -50.37124,-7.225258 -69.422805,10.587801 -9.019994,8.433621 -16.003291,21.050789 -19.183976,34.660918 -1.909319,8.169943 -2.598868,19.954835 -1.625778,27.785615 0.53967,4.34291 2.554523,12.37489 4.048078,16.1372 8.42191,21.21507 24.620137,32.975 49.372386,35.84441 3.75871,0.43573 13.371115,0.17055 18.659595,-0.51476 z M 92.383956,151.72504 C 80.420896,150.01583 71.192329,145.57977 63.987799,138.07537 58.534184,132.39476 54.941108,125.81971 52.77172,117.55082 48.724018,102.12252 51.826237,82.084181 60.299968,68.923203 64.936951,61.721278 72.54731,54.739401 79.889801,50.951157 c 7.430016,-3.833403 14.81531,-5.612568 23.297709,-5.612568 8.52763,0 16.60975,2.016427 23.91603,5.96686 4.78471,2.58705 7.26679,4.495404 11.90457,9.152886 10.6376,10.682768 16.39258,25.727917 16.31035,42.639875 -0.067,13.7872 -4.83427,26.21938 -12.96846,33.81963 -8.12656,7.59311 -17.72202,12.20038 -30.0495,14.42828 -4.6882,0.84729 -15.23407,1.04793 -19.916544,0.37892 z"
       style="fill:#9ffefc;stroke-width:0.4001314" />
    <path
       inkscape:connector-curvature="0"
       id="path3830"
       d="M 94.655766,200.71176 C 76.922303,198.85629 61.944896,193.48261 47.769305,183.88958 26.74919,169.66467 11.80045,147.12237 6.7970134,122.10445 5.3428363,114.83335 4.9837812,110.99051 4.9837812,102.69808 c 0,-8.292441 0.3590551,-12.135279 1.8132322,-19.406379 C 17.163566,31.457421 67.232969,-3.0451499 119.39283,5.7024989 c 39.67297,6.6534921 71.30916,36.8741031 79.96698,76.3888081 2.74864,12.54496 2.74864,28.668573 0,41.213533 -3.07404,14.03006 -9.22545,27.30754 -18.20237,39.28883 -3.7746,5.03787 -13.03297,14.29713 -18.06726,18.06899 -14.27341,10.69414 -29.57248,17.07024 -46.69834,19.46219 -5.6081,0.78327 -16.936033,1.08915 -21.736074,0.58691 z M 108.38922,174.3066 c 18.88236,-1.69229 34.21263,-8.01048 45.80031,-18.87605 13.11907,-12.30152 19.91537,-29.38769 19.86111,-49.93155 -0.0821,-31.082869 -15.27672,-57.898796 -40.05301,-70.686794 -5.51328,-2.84561 -12.55466,-5.198226 -19.20631,-6.417068 -5.31815,-0.974492 -17.921223,-0.971109 -23.207627,0.0062 C 80.169657,30.511569 70.356674,34.843773 61.200888,41.814673 46.958827,52.65809 36.52952,71.151544 33.345981,91.207546 32.48265,96.646452 32.145493,108.99195 32.71715,114.23312 c 2.11582,19.39863 10.372902,35.44574 23.855046,46.36077 12.720413,10.29834 32.24933,15.46641 51.817024,13.71271 z M 92.383956,151.72504 C 80.420896,150.01583 71.192329,145.57977 63.987799,138.07537 58.534184,132.39476 54.941108,125.81971 52.77172,117.55082 48.724018,102.12252 51.826237,82.084181 60.299968,68.923203 64.936951,61.721278 72.54731,54.739401 79.889801,50.951157 c 7.430016,-3.833403 14.81531,-5.612568 23.297709,-5.612568 8.52763,0 16.60975,2.016427 23.91603,5.96686 4.78471,2.58705 7.26679,4.495404 11.90457,9.152886 10.6376,10.682768 16.39258,25.727917 16.31035,42.639875 -0.067,13.7872 -4.83427,26.21938 -12.96846,33.81963 -8.12656,7.59311 -17.72202,12.20038 -30.0495,14.42828 -4.6882,0.84729 -15.23407,1.04793 -19.916544,0.37892 z"
       style="fill:#5ffefe;stroke-width:0.4001314" />
    <path
       inkscape:connector-curvature="0"
       id="path3828"
       d="M 95.785073,200.47143 C 68.449108,197.99986 46.00677,186.5561 28.378111,166.09941 16.409868,152.21118 8.5880511,134.8992 5.6983454,115.90241 4.843117,110.28018 4.7253987,96.290434 5.4879107,90.894198 10.088777,58.334245 27.596858,32.501457 55.909842,16.497753 61.667281,13.243405 71.732498,9.3327266 79.139891,7.4720948 98.275731,2.6654423 116.70513,3.4486583 134.99795,9.8459616 c 9.98565,3.4921454 14.91723,5.9500704 23.40769,11.6665014 23.18659,15.610994 38.14949,39.75038 42.26248,68.181341 0.8499,5.874841 0.95815,19.061616 0.20202,24.608086 -2.37204,17.39967 -9.0316,33.76114 -19.35339,47.54816 -3.74034,4.99605 -13.81022,15.05851 -18.83378,18.8199 -14.18219,10.61892 -29.93677,17.13548 -46.89132,19.39564 -4.00509,0.53391 -15.917503,0.77555 -20.006577,0.40584 z m 11.872077,-18.17458 c 21.62146,-1.50694 39.88031,-9.26508 52.7588,-22.41707 13.32571,-13.6087 20.07325,-31.45355 20.10871,-53.18039 0.0396,-24.291491 -8.56849,-46.9132 -23.87323,-62.737561 C 133.60686,20.134853 97.895446,14.441786 68.429321,29.897573 c -24.997709,13.11198 -40.623932,39.3858 -42.404548,71.298707 -1.83092,32.81447 12.525996,60.33603 38.149919,73.1317 3.081012,1.53855 7.521534,3.41832 9.867825,4.17728 7.064688,2.28524 17.03952,3.90662 25.61201,4.16317 1.027833,0.0308 4.629013,-0.13645 8.002623,-0.37158 z M 92.383956,151.72504 C 80.420896,150.01583 71.192329,145.57977 63.987799,138.07537 58.534184,132.39476 54.941108,125.81971 52.77172,117.55082 48.724018,102.12252 51.826237,82.084181 60.299968,68.923203 64.936951,61.721278 72.54731,54.739401 79.889801,50.951157 c 7.430016,-3.833403 14.81531,-5.612568 23.297709,-5.612568 8.52763,0 16.60975,2.016427 23.91603,5.96686 4.78471,2.58705 7.26679,4.495404 11.90457,9.152886 10.6376,10.682768 16.39258,25.727917 16.31035,42.639875 -0.067,13.7872 -4.83427,26.21938 -12.96846,33.81963 -8.12656,7.59311 -17.72202,12.20038 -30.0495,14.42828 -4.6882,0.84729 -15.23407,1.04793 -19.916544,0.37892 z"
       style="fill:#9f9ffe;stroke-width:0.4001314" />
    <path
       inkscape:connector-curvature="0"
       id="path3826"
       d="M 95.785073,200.47143 C 68.449108,197.99986 46.00677,186.5561 28.378111,166.09941 16.409868,152.21118 8.5880511,134.8992 5.6983454,115.90241 4.843117,110.28018 4.7253987,96.290434 5.4879107,90.894198 10.088777,58.334245 27.596858,32.501457 55.909842,16.497753 61.667281,13.243405 71.732498,9.3327266 79.139891,7.4720948 98.275731,2.6654423 116.70513,3.4486583 134.99795,9.8459616 c 9.98565,3.4921454 14.91723,5.9500704 23.40769,11.6665014 23.18659,15.610994 38.14949,39.75038 42.26248,68.181341 0.8499,5.874841 0.95815,19.061616 0.20202,24.608086 -2.37204,17.39967 -9.0316,33.76114 -19.35339,47.54816 -3.74034,4.99605 -13.81022,15.05851 -18.83378,18.8199 -14.18219,10.61892 -29.93677,17.13548 -46.89132,19.39564 -4.00509,0.53391 -15.917503,0.77555 -20.006577,0.40584 z m 11.872077,-18.17458 c 21.62146,-1.50694 39.88031,-9.26508 52.7588,-22.41707 13.32571,-13.6087 20.07325,-31.45355 20.10871,-53.18039 0.0396,-24.291491 -8.56849,-46.9132 -23.87323,-62.737561 C 133.60686,20.134853 97.895446,14.441786 68.429321,29.897573 c -24.997709,13.11198 -40.623932,39.3858 -42.404548,71.298707 -1.83092,32.81447 12.525996,60.33603 38.149919,73.1317 3.081012,1.53855 7.521534,3.41832 9.867825,4.17728 7.064688,2.28524 17.03952,3.90662 25.61201,4.16317 1.027833,0.0308 4.629013,-0.13645 8.002623,-0.37158 z m -9.87142,-45.4674 c -6.241389,-0.56701 -14.240076,-3.01992 -18.115413,-5.55534 -3.635758,-2.37867 -8.878628,-7.92564 -10.557951,-11.17032 -5.599255,-10.81851 -6.404319,-23.248494 -2.293613,-35.412753 3.779833,-11.185149 11.847278,-19.806469 22.564218,-24.113379 5.331086,-2.142452 11.728359,-2.993419 17.605789,-2.341929 13.12849,1.455238 24.03327,9.001336 30.13675,20.854593 1.27623,2.478498 4.00424,10.887459 4.47843,13.804533 0.21465,1.320434 0.39163,4.524074 0.39329,7.119205 0.007,10.61811 -3.44362,19.45637 -9.98711,25.58197 -5.31298,4.97367 -10.78313,7.80862 -18.61926,9.64956 -3.99065,0.93753 -11.60735,1.96482 -13.32006,1.79653 -0.376503,-0.037 -1.404783,-0.1327 -2.28507,-0.21267 z"
       style="fill:#10feed;stroke-width:0.4001314" />
    <path
       inkscape:connector-curvature="0"
       id="path3824"
       d="M 95.785073,200.47143 C 68.449108,197.99986 46.00677,186.5561 28.378111,166.09941 16.409868,152.21118 8.5880511,134.8992 5.6983454,115.90241 4.843117,110.28018 4.7253987,96.290434 5.4879107,90.894198 10.088777,58.334245 27.596858,32.501457 55.909842,16.497753 61.667281,13.243405 71.732498,9.3327266 79.139891,7.4720948 98.275731,2.6654423 116.70513,3.4486583 134.99795,9.8459616 c 9.98565,3.4921454 14.91723,5.9500704 23.40769,11.6665014 23.18659,15.610994 38.14949,39.75038 42.26248,68.181341 0.8499,5.874841 0.95815,19.061616 0.20202,24.608086 -2.37204,17.39967 -9.0316,33.76114 -19.35339,47.54816 -3.74034,4.99605 -13.81022,15.05851 -18.83378,18.8199 -14.18219,10.61892 -29.93677,17.13548 -46.89132,19.39564 -4.00509,0.53391 -15.917503,0.77555 -20.006577,0.40584 z m 16.524597,-7.93532 c 43.61639,-4.60295 72.20774,-32.70922 76.53166,-75.23324 0.58675,-5.77038 0.27614,-18.107882 -0.60746,-24.129343 -1.9674,-13.407119 -7.07439,-28.414536 -13.08301,-38.44573 -4.45507,-7.437603 -8.46625,-12.527322 -14.396,-18.266854 C 151.69354,27.690291 141.59936,21.526051 129.70332,17.49862 103.80064,8.7292089 75.275674,13.311685 53.171079,29.793366 48.835551,33.026033 39.719921,42.25737 36.496426,46.679678 c -7.02052,9.631439 -11.765633,19.469846 -15.094424,31.29643 -3.170768,11.265159 -4.04893,17.915895 -4.00395,30.323812 0.03727,10.28045 0.614546,15.48407 2.596797,23.40768 3.176879,12.69889 8.871545,24.15686 16.605417,33.41098 13.772386,16.47961 32.008859,25.48687 56.183822,27.75002 3.955387,0.37028 14.580762,0.18935 19.525582,-0.33249 z M 97.78573,136.82945 c -6.241389,-0.56701 -14.240076,-3.01992 -18.115413,-5.55534 -3.635758,-2.37867 -8.878628,-7.92564 -10.557951,-11.17032 -5.599255,-10.81851 -6.404319,-23.248494 -2.293613,-35.412753 3.779833,-11.185149 11.847278,-19.806469 22.564218,-24.113379 5.331086,-2.142452 11.728359,-2.993419 17.605789,-2.341929 13.12849,1.455238 24.03327,9.001336 30.13675,20.854593 1.27623,2.478498 4.00424,10.887459 4.47843,13.804533 0.21465,1.320434 0.39163,4.524074 0.39329,7.119205 0.007,10.61811 -3.44362,19.45637 -9.98711,25.58197 -5.31298,4.97367 -10.78313,7.80862 -18.61926,9.64956 -3.99065,0.93753 -11.60735,1.96482 -13.32006,1.79653 -0.376503,-0.037 -1.404783,-0.1327 -2.28507,-0.21267 z"
       style="fill:#00fe9f;stroke-width:0.4001314" />
    <path
       inkscape:connector-curvature="0"
       id="path3822"
       d="m 105.88839,200.06514 c 0.27509,-0.111 0.72524,-0.111 1.00033,0 0.27509,0.111 0.05,0.20182 -0.50016,0.20182 -0.55018,0 -0.77526,-0.0908 -0.50017,-0.20182 z m 9.50312,-1.11396 c 3.30109,-0.49216 6.81224,-1.00902 7.80257,-1.14859 l 1.80059,-0.25375 -1.9592,0.56387 c -2.06883,0.59542 -10.99311,1.84661 -12.66264,1.7753 -0.5408,-0.0231 1.7176,-0.44467 5.01868,-0.93683 z m 10.52846,-1.69529 c 0.28885,-0.11559 0.63396,-0.10138 0.76692,0.0316 0.13296,0.13296 -0.10337,0.22753 -0.52517,0.21015 -0.46613,-0.0192 -0.56094,-0.11401 -0.24175,-0.24174 z m 48.281,-28.53613 C 192.72975,146.40555 199.03063,115.6821 191.7619,83.091636 190.41115,77.035335 187.25891,67.64239 184.6025,61.758242 175.44138,41.465734 161.01162,26.341766 141.80019,16.896733 121.2202,6.7788692 97.074737,5.1864986 75.178306,12.503082 65.601801,15.703023 55.429276,21.258874 47.662057,27.53142 40.301708,33.475394 32.142365,42.894103 27.213955,51.135617 19.775277,63.574914 14.456132,79.499408 12.511965,95.15054 c -0.991352,7.98068 -0.893713,21.27897 0.210379,28.65329 2.010445,13.42791 6.190336,25.4904 12.316942,35.54469 4.21137,6.91123 4.051741,6.57171 2.148442,4.56966 -3.881815,-4.08321 -9.580588,-12.89471 -12.939104,-20.00657 -6.4161501,-13.58658 -9.2630082,-26.31448 -9.2630082,-41.4136 0,-8.105427 0.3647458,-11.972837 1.8113976,-19.206309 C 14.368703,45.432148 43.766838,15.470296 81.580408,7.0743198 114.3569,-0.20324267 149.06215,9.7192996 172.44221,33.052519 c 12.9354,12.909479 21.65181,28.185608 26.15458,45.837737 3.53533,13.859503 3.75851,30.461104 0.60087,44.696204 -2.01989,9.10591 -7.5603,22.47589 -12.56787,30.32844 -2.45413,3.84841 -8.49482,11.84878 -9.61034,12.72804 -0.47194,0.372 -1.02686,0.97156 -1.23315,1.33237 -0.20629,0.36081 -1.35757,1.53119 -2.5584,2.60085 -2.14841,1.91374 -2.13284,1.88405 0.97307,-1.8564 z M 97.78573,136.82945 c -6.241389,-0.56701 -14.240076,-3.01992 -18.115413,-5.55534 -3.635758,-2.37867 -8.878628,-7.92564 -10.557951,-11.17032 -5.599255,-10.81851 -6.404319,-23.248494 -2.293613,-35.412753 3.779833,-11.185149 11.847278,-19.806469 22.564218,-24.113379 5.331086,-2.142452 11.728359,-2.993419 17.605789,-2.341929 13.12849,1.455238 24.03327,9.001336 30.13675,20.854593 1.27623,2.478498 4.00424,10.887459 4.47843,13.804533 0.21465,1.320434 0.39163,4.524074 0.39329,7.119205 0.007,10.61811 -3.44362,19.45637 -9.98711,25.58197 -5.31298,4.97367 -10.78313,7.80862 -18.61926,9.64956 -3.99065,0.93753 -11.60735,1.96482 -13.32006,1.79653 -0.376503,-0.037 -1.404783,-0.1327 -2.28507,-0.21267 z"
       style="fill:#3f3ffe;stroke-width:0.4001314" />
    <path
       inkscape:connector-curvature="0"
       id="path3820"
       d="m 105.88839,200.06514 c 0.27509,-0.111 0.72524,-0.111 1.00033,0 0.27509,0.111 0.05,0.20182 -0.50016,0.20182 -0.55018,0 -0.77526,-0.0908 -0.50017,-0.20182 z m 9.50312,-1.11396 c 3.30109,-0.49216 6.81224,-1.00902 7.80257,-1.14859 l 1.80059,-0.25375 -1.9592,0.56387 c -2.06883,0.59542 -10.99311,1.84661 -12.66264,1.7753 -0.5408,-0.0231 1.7176,-0.44467 5.01868,-0.93683 z m 10.52846,-1.69529 c 0.28885,-0.11559 0.63396,-0.10138 0.76692,0.0316 0.13296,0.13296 -0.10337,0.22753 -0.52517,0.21015 -0.46613,-0.0192 -0.56094,-0.11401 -0.24175,-0.24174 z m 48.281,-28.53613 C 192.72975,146.40555 199.03063,115.6821 191.7619,83.091636 190.41115,77.035335 187.25891,67.64239 184.6025,61.758242 175.44138,41.465734 161.01162,26.341766 141.80019,16.896733 121.2202,6.7788692 97.074737,5.1864986 75.178306,12.503082 65.601801,15.703023 55.429276,21.258874 47.662057,27.53142 40.301708,33.475394 32.142365,42.894103 27.213955,51.135617 19.775277,63.574914 14.456132,79.499408 12.511965,95.15054 c -0.991352,7.98068 -0.893713,21.27897 0.210379,28.65329 2.010445,13.42791 6.190336,25.4904 12.316942,35.54469 4.21137,6.91123 4.051741,6.57171 2.148442,4.56966 -3.881815,-4.08321 -9.580588,-12.89471 -12.939104,-20.00657 -6.4161501,-13.58658 -9.2630082,-26.31448 -9.2630082,-41.4136 0,-8.105427 0.3647458,-11.972837 1.8113976,-19.206309 C 14.368703,45.432148 43.766838,15.470296 81.580408,7.0743198 114.3569,-0.20324267 149.06215,9.7192996 172.44221,33.052519 c 12.9354,12.909479 21.65181,28.185608 26.15458,45.837737 3.53533,13.859503 3.75851,30.461104 0.60087,44.696204 -2.01989,9.10591 -7.5603,22.47589 -12.56787,30.32844 -2.45413,3.84841 -8.49482,11.84878 -9.61034,12.72804 -0.47194,0.372 -1.02686,0.97156 -1.23315,1.33237 -0.20629,0.36081 -1.35757,1.53119 -2.5584,2.60085 -2.14841,1.91374 -2.13284,1.88405 0.97307,-1.8564 z"
       style="fill:#05fe58;stroke-width:0.4001314" />
  </g>
</svg>
