<?xml version="1.0" encoding="UTF-8" standalone="no"?>
<!-- Created with Inkscape (http://www.inkscape.org/) -->

<svg
   xmlns:dc="http://purl.org/dc/elements/1.1/"
   xmlns:cc="http://creativecommons.org/ns#"
   xmlns:rdf="http://www.w3.org/1999/02/22-rdf-syntax-ns#"
   xmlns:svg="http://www.w3.org/2000/svg"
   xmlns="http://www.w3.org/2000/svg"
   xmlns:sodipodi="http://sodipodi.sourceforge.net/DTD/sodipodi-0.dtd"
   xmlns:inkscape="http://www.inkscape.org/namespaces/inkscape"
   width="100%"
   height="100%"
   viewBox="0 0 210 210"
   version="1.1"
   id="svg8"
   sodipodi:docname="Cylinder_Map.svg"
   inkscape:version="0.92.3 (2405546, 2018-03-11)">
  <defs
     id="defs2" />
  <sodipodi:namedview
     id="base"
     pagecolor="#ffffff"
     bordercolor="#666666"
     borderopacity="1.0"
     inkscape:pageopacity="0.0"
     inkscape:pageshadow="2"
     inkscape:zoom="0.35"
     inkscape:cx="400"
     inkscape:cy="560"
     inkscape:document-units="mm"
     inkscape:current-layer="layer1"
     showgrid="false"
     inkscape:window-width="1419"
     inkscape:window-height="859"
     inkscape:window-x="239"
     inkscape:window-y="104"
     inkscape:window-maximized="0" />
  <metadata
     id="metadata5">
    <rdf:RDF>
      <cc:Work
         rdf:about="">
        <dc:format>image/svg+xml</dc:format>
        <dc:type
           rdf:resource="http://purl.org/dc/dcmitype/StillImage" />
        <dc:title></dc:title>
      </cc:Work>
    </rdf:RDF>
  </metadata>
  <g
     inkscape:label="Livello 1"
     inkscape:groupmode="layer"
     id="layer1">
    <path
       inkscape:connector-curvature="0"
       id="path3764"
       d="m 97.527696,204.41468 c -1.394052,-0.29141 -2.747362,-0.74256 -3.007356,-1.00255 -0.878269,-0.87827 -1.51866,-8.26984 -1.769634,-20.42558 -0.164713,-7.97755 -0.0938,-13.5384 0.208241,-16.33054 1.372624,-12.68882 3.832439,-21.02675 8.158023,-27.65288 1.08563,-1.66301 2.53408,-4.13344 3.21879,-5.48984 1.23968,-2.45579 4.78848,-6.37316 5.77354,-6.37316 1.37201,0 3.83479,2.46408 5.11386,5.11658 0.72837,1.51045 2.10716,3.97844 3.06399,5.48442 3.88129,6.10889 6.00791,11.79734 7.56881,20.24558 1.89941,10.28039 2.23081,22.91771 0.97377,37.13249 -0.54016,6.10824 -0.77633,6.88795 -2.26435,7.47594 -4.41167,1.74327 -21.80351,2.91368 -27.037684,1.81954 z m -15.00557,-2.14481 C 72.185248,200.4263 55.791122,192.77163 45.375156,184.9254 29.00164,172.5914 15.757939,153.48878 10.114006,134.06496 4.143371,113.51678 4.6273988,93.863446 11.624585,72.729803 14.36704,64.446746 20.619128,52.943469 22.375399,52.949271 c 0.369214,0.0012 2.848704,1.389096 5.509977,3.084174 8.430975,5.370034 19.893515,11.997214 35.380102,20.45535 21.453134,11.716816 23.824792,13.184436 29.054416,17.979345 2.384364,2.186164 6.098724,7.48451 9.053286,12.91405 2.17502,3.997 3.32623,8.89939 3.32623,14.16468 0,4.69759 -0.11138,4.97373 -3.78716,9.39032 -8.557513,10.28215 -11.823355,18.10304 -14.157748,33.90431 -1.053509,7.13111 -1.483406,15.79113 -1.341108,27.01596 l 0.132906,10.4838 -1.008058,0.0542 c -0.554432,0.0298 -1.461684,-0.0267 -2.016116,-0.12559 z m 51.940494,-13.53705 c 0.21172,-18.41845 -1.56377,-31.39861 -5.79263,-42.34854 -1.8849,-4.88062 -6.65674,-12.55333 -10.51513,-16.90745 -2.18604,-2.4669 -3.01143,-4.61086 -4.43585,-11.52212 -1.56773,-7.6066 -1.67268,-10.42424 -0.55152,-14.80793 1.0524,-4.114838 2.3356,-6.254562 5.74554,-9.580634 3.58814,-3.499889 8.59586,-6.77528 18.64907,-12.197765 20.95123,-11.300638 32.24111,-17.845076 43.7107,-25.3379 l 6.21095,-4.057466 1.53228,1.779122 c 4.45321,5.170548 10.41921,19.512521 12.99993,31.251164 2.77171,12.607416 2.77253,28.887579 0.002,41.531989 -2.38249,10.87379 -6.88862,21.94688 -12.94303,31.80538 -7.47332,12.16894 -19.18479,23.82359 -31.75499,31.60095 -7.67464,4.74842 -18.92528,9.77813 -21.8741,9.77903 l -1.10962,3.5e-4 0.12631,-10.98818 z m -25.29646,-64.86486 c -1.8466,-1.95582 -2.46876,-3.84109 -2.88435,-8.74019 -0.39473,-4.65312 -1.46831,-9.01527 -2.69594,-10.95402 -0.34502,-0.54489 -1.29943,-2.76312 -2.12089,-4.929386 C 98.15603,90.518411 95.914109,88.266357 81.891932,79.58286 62.583926,67.626008 46.778837,56.508111 37.214143,48.154806 c -2.18768,-1.910605 -4.6256,-4.035326 -5.4176,-4.721599 -1.416891,-1.227747 -1.430875,-1.269807 -0.87132,-2.620951 0.312774,-0.75525 2.65997,-3.467719 5.215989,-6.02771 C 56.35299,14.541363 84.829276,4.3745487 113.97354,6.996272 c 20.37637,1.832992 38.85397,9.463543 54.43514,22.479653 4.44284,3.711433 9.18162,8.589038 10.73451,11.04899 l 1.08275,1.715178 -2.78365,2.579456 c -11.33928,10.507493 -29.33257,23.662083 -46.13015,33.724967 -13.86755,8.3076 -16.21833,10.12083 -19.35428,14.928582 -1.99748,3.062331 -2.88747,6.523963 -2.94302,11.446872 -0.0389,3.45164 0.0794,4.13699 1.08708,6.29284 1.71885,3.6775 1.99995,10.84376 0.50551,12.88752 -0.50687,0.69319 -0.57827,0.68168 -1.44127,-0.23237 z"
       style="fill:#25fddb;stroke-width:0.40322325" />
    <path
       inkscape:connector-curvature="0"
       id="path3762"
       d="m 97.527696,204.41468 c -1.394052,-0.29141 -2.747362,-0.74256 -3.007356,-1.00255 -0.878269,-0.87827 -1.51866,-8.26984 -1.769634,-20.42558 -0.164713,-7.97755 -0.0938,-13.5384 0.208241,-16.33054 1.372624,-12.68882 3.832439,-21.02675 8.158023,-27.65288 1.08563,-1.66301 2.53408,-4.13344 3.21879,-5.48984 1.23968,-2.45579 4.78848,-6.37316 5.77354,-6.37316 1.37201,0 3.83479,2.46408 5.11386,5.11658 0.72837,1.51045 2.10716,3.97844 3.06399,5.48442 3.88129,6.10889 6.00791,11.79734 7.56881,20.24558 1.89941,10.28039 2.23081,22.91771 0.97377,37.13249 -0.54016,6.10824 -0.77633,6.88795 -2.26435,7.47594 -4.41167,1.74327 -21.80351,2.91368 -27.037684,1.81954 z M 69.215759,198.10225 C 56.167176,192.91578 46.131946,186.50906 36.478643,177.20212 12.836511,154.40828 1.8934699,121.44151 7.3463352,89.438757 9.0389119,79.505058 12.789786,68.135263 15.507832,64.699309 l 0.750934,-0.949272 7.829422,3.636941 c 4.306181,2.000322 13.998719,6.303504 21.538971,9.562628 26.331437,11.381251 37.938509,17.3871 44.530846,23.041612 2.866365,2.458592 7.755293,8.663072 9.465544,12.012592 1.395961,2.73399 1.578451,3.42249 1.587061,5.98778 0.013,3.86887 -0.97593,7.01083 -2.963705,9.41622 -0.886317,1.07253 -2.836385,3.4328 -4.333485,5.24506 -10.333531,12.50887 -14.887006,29.66853 -16.058236,60.51506 l -0.264103,6.95561 -1.667514,-0.009 c -1.037272,-0.006 -3.572522,-0.76613 -6.707808,-2.01233 z m 72.576201,-5.28445 c -0.009,-9.19719 -1.18752,-20.89132 -3.06252,-30.38226 -2.8186,-14.26732 -7.22569,-23.66172 -15.69171,-33.4493 -4.62838,-5.35088 -6.64485,-10.3162 -6.64485,-16.36215 0,-7.62627 2.78463,-12.39038 10.66765,-18.250816 6.72836,-5.002041 11.97568,-7.7015 34.29174,-17.641215 5.10077,-2.271917 14.08257,-6.392273 19.95955,-9.156345 5.87698,-2.764075 10.99329,-5.118233 11.36957,-5.231466 1.93052,-0.58094 6.87261,11.412959 9.33667,22.659053 2.76988,12.641896 2.76988,28.890099 0,41.531989 -3.03984,13.87397 -9.34714,27.61111 -18.05082,39.31427 -3.9384,5.29564 -13.98037,15.25402 -19.18757,19.02783 -7.90681,5.7303 -18.26608,11.49377 -21.41905,11.91667 l -1.56468,0.20987 -0.004,-4.18613 z m -32.6258,-68.94984 c -1.8466,-1.95582 -2.46876,-3.84109 -2.88435,-8.74019 -0.39473,-4.65312 -1.46831,-9.01527 -2.69594,-10.95402 -0.34502,-0.54489 -1.29943,-2.76312 -2.12089,-4.929386 C 98.15603,90.518411 95.914109,88.266357 81.891932,79.58286 62.583926,67.626008 46.778837,56.508111 37.214143,48.154806 c -2.18768,-1.910605 -4.6256,-4.035326 -5.4176,-4.721599 -1.416891,-1.227747 -1.430875,-1.269807 -0.87132,-2.620951 0.312774,-0.75525 2.65997,-3.467719 5.215989,-6.02771 C 56.35299,14.541363 84.829276,4.3745487 113.97354,6.996272 c 20.37637,1.832992 38.85397,9.463543 54.43514,22.479653 4.44284,3.711433 9.18162,8.589038 10.73451,11.04899 l 1.08275,1.715178 -2.78365,2.579456 c -11.33928,10.507493 -29.33257,23.662083 -46.13015,33.724967 -13.86755,8.3076 -16.21833,10.12083 -19.35428,14.928582 -1.99748,3.062331 -2.88747,6.523963 -2.94302,11.446872 -0.0389,3.45164 0.0794,4.13699 1.08708,6.29284 1.71885,3.6775 1.99995,10.84376 0.50551,12.88752 -0.50687,0.69319 -0.57827,0.68168 -1.44127,-0.23237 z"
       style="fill:#ecdb01;stroke-width:0.40322325" />
    <path
       inkscape:connector-curvature="0"
       id="path3760"
       d="m 97.527696,204.41468 c -1.394052,-0.29141 -2.747362,-0.74256 -3.007356,-1.00255 -0.878269,-0.87827 -1.51866,-8.26984 -1.769634,-20.42558 -0.164713,-7.97755 -0.0938,-13.5384 0.208241,-16.33054 1.372624,-12.68882 3.832439,-21.02675 8.158023,-27.65288 1.08563,-1.66301 2.53408,-4.13344 3.21879,-5.48984 1.23968,-2.45579 4.78848,-6.37316 5.77354,-6.37316 1.37201,0 3.83479,2.46408 5.11386,5.11658 0.72837,1.51045 2.10716,3.97844 3.06399,5.48442 3.88129,6.10889 6.00791,11.79734 7.56881,20.24558 1.89941,10.28039 2.23081,22.91771 0.97377,37.13249 -0.54016,6.10824 -0.77633,6.88795 -2.26435,7.47594 -4.41167,1.74327 -21.80351,2.91368 -27.037684,1.81954 z m -24.88454,-5.04254 c -2.676112,-1.21734 -2.730293,-1.38221 -2.228163,-6.78006 0.703294,-7.56035 2.646653,-19.99085 4.24984,-27.18367 3.783472,-16.97483 8.71032,-27.33429 17.950434,-37.74356 4.596878,-5.17852 5.793657,-9.4275 3.850734,-13.6714 C 94.56069,109.8317 87.320865,103.35546 81.02524,100.18122 73.437526,96.355523 54.06219,89.720525 38.974016,85.78097 31.588753,83.852659 21.059418,80.958726 16.332401,79.558037 c -2.140454,-0.63425 -4.252018,-1.058965 -4.692366,-0.943808 -1.226699,0.320788 -1.38307,-0.407332 -0.681421,-3.172936 1.119014,-4.410677 2.937439,-8.704489 4.549218,-10.741984 l 0.750934,-0.949272 7.829422,3.636941 c 4.306181,2.000322 13.998719,6.303504 21.538971,9.562628 26.331437,11.381251 37.938509,17.3871 44.530846,23.041612 2.866365,2.458592 7.755293,8.663072 9.465544,12.012592 1.395961,2.73399 1.578451,3.42249 1.587061,5.98778 0.013,3.86887 -0.97593,7.01083 -2.963705,9.41622 -0.886317,1.07253 -2.836385,3.4328 -4.333485,5.24506 -10.333531,12.50887 -14.887006,29.66853 -16.058236,60.51506 l -0.264103,6.95561 -1.667514,-0.009 c -0.917135,-0.005 -2.39332,-0.339 -3.280411,-0.74252 z m 69.148804,-6.60743 c -0.009,-9.1448 -1.19173,-20.8595 -3.06252,-30.32917 -2.8186,-14.26732 -7.22569,-23.66172 -15.69171,-33.4493 -4.62838,-5.35088 -6.64485,-10.3162 -6.64485,-16.36215 0,-7.62627 2.78463,-12.39038 10.66765,-18.250816 6.72836,-5.002041 11.97568,-7.7015 34.29174,-17.641215 5.10077,-2.271917 14.08257,-6.392273 19.95955,-9.156345 5.87698,-2.764075 10.99329,-5.118233 11.36957,-5.231466 0.91249,-0.274591 3.09368,3.143548 4.50397,7.058185 1.66713,4.627539 1.64281,4.690611 -2.26475,5.874632 -8.07434,2.446577 -17.68122,5.250422 -20.46358,5.972454 -4.7472,1.231919 -18.27607,5.675076 -23.43453,7.696378 -4.39053,1.720396 -14.01524,6.334625 -18.09747,8.676195 -5.77382,3.311868 -9.63736,6.947708 -11.57441,10.892268 -0.94881,1.93213 -1.12712,2.80553 -1.12712,5.52101 0,2.92016 0.14314,3.51232 1.51077,6.24996 0.90628,1.81414 2.90063,4.63755 4.98438,7.05641 10.33834,12.00094 15.44691,23.60314 19.461,44.19836 1.25148,6.42102 2.87431,18.21241 2.87431,20.88459 0,0.94669 -0.27049,1.7703 -0.71289,2.17067 -1.07427,0.97219 -4.18244,2.28352 -5.43626,2.29353 l -1.10887,0.009 -0.004,-4.13304 z m -85.795637,-1.09862 c -10.020114,-4.74031 -24.309984,-17.57985 -30.980478,-27.83617 -1.083031,-1.66523 -2.314316,-3.79743 -2.736188,-4.73822 l -0.76704,-1.71054 5.807331,-5.92869 c 3.194032,-3.26079 9.396542,-9.37343 13.783356,-13.58366 8.122711,-7.79575 10.161831,-10.21368 10.604792,-12.57487 0.27422,-1.46173 -0.365111,-3.85001 -1.448729,-5.41183 -1.267274,-1.82654 -3.105359,-5.82 -3.384317,-7.35285 -1.221299,-6.7109 6.278021,-10.90796 18.311424,-10.24814 5.389345,0.29551 9.348884,1.13213 13.642284,2.88254 6.636111,2.70551 11.794264,6.42162 13.336956,9.6084 1.58357,3.27122 0.982123,4.83343 -4.484363,11.64778 -3.760424,4.68763 -8.202883,11.6317 -10.908241,17.05083 -3.135178,6.2801 -7.907006,19.60662 -11.827425,33.03103 -3.855358,13.20164 -4.96265,16.36385 -5.729899,16.3635 -0.376993,-1.8e-4 -1.82575,-0.53978 -3.219463,-1.19911 z m 101.676487,-3.94167 c -0.12471,-0.3881 -0.38354,-1.15927 -0.57518,-1.7137 -0.19163,-0.55443 -1.43619,-4.63707 -2.76568,-9.07252 -8.67843,-28.95297 -12.56427,-37.08943 -25.15089,-52.66288 -1.50475,-1.86184 -3.18317,-4.32653 -3.72981,-5.4771 -3.22094,-6.77939 1.38207,-13.0003 12.11085,-16.36768 4.68179,-1.46945 8.89087,-2.03913 13.44562,-1.8198 3.35054,0.16134 4.3995,0.38655 6.60289,1.41764 4.25905,1.99305 5.6385,4.36086 6.74681,11.58081 0.42441,2.7648 1.14869,5.87924 1.6095,6.92099 1.17911,2.66556 4.50608,6.58968 9.55237,11.26689 2.38094,2.20679 7.30688,6.98651 10.94653,10.62159 7.65644,7.64684 7.34422,6.72564 4.30305,12.69598 -5.5606,10.91639 -17.15646,23.86569 -27.66666,30.89585 -3.75174,2.5095 -5.04279,2.91705 -5.4294,1.71393 z m -48.50665,-63.85646 c -1.8466,-1.95582 -2.46876,-3.84109 -2.88435,-8.74019 -0.39473,-4.65312 -1.46831,-9.01527 -2.69594,-10.95402 -0.34502,-0.54489 -1.29943,-2.76312 -2.12089,-4.929386 C 98.15603,90.518411 95.914109,88.266357 81.891932,79.58286 62.583926,67.626008 46.778837,56.508111 37.214143,48.154806 c -2.18768,-1.910605 -4.6256,-4.035326 -5.4176,-4.721599 -1.416891,-1.227747 -1.430875,-1.269807 -0.87132,-2.620951 0.312774,-0.75525 2.65997,-3.467719 5.215989,-6.02771 C 56.35299,14.541363 84.829276,4.3745487 113.97354,6.996272 c 20.37637,1.832992 38.85397,9.463543 54.43514,22.479653 4.44284,3.711433 9.18162,8.589038 10.73451,11.04899 l 1.08275,1.715178 -2.78365,2.579456 c -11.33928,10.507493 -29.33257,23.662083 -46.13015,33.724967 -13.86755,8.3076 -16.21833,10.12083 -19.35428,14.928582 -1.99748,3.062331 -2.88747,6.523963 -2.94302,11.446872 -0.0389,3.45164 0.0794,4.13699 1.08708,6.29284 1.71885,3.6775 1.99995,10.84376 0.50551,12.88752 -0.50687,0.69319 -0.57827,0.68168 -1.44127,-0.23237 z"
       style="fill:#5c5cfe;stroke-width:0.40322325" />
    <path
       inkscape:connector-curvature="0"
       id="path3758"
       d="m 103.34353,203.71329 c -0.0925,-0.31107 -0.46671,-1.40492 -0.83162,-2.43077 -1.2324,-3.46453 -2.635331,-12.10497 -3.290084,-20.26309 -1.042183,-12.98547 -0.03218,-24.45891 2.945184,-33.45672 0.9864,-2.98095 2.13247,-5.42289 3.59566,-7.66124 1.74398,-2.6679 2.14915,-3.61154 2.15514,-5.01932 0.01,-2.36095 0.95835,-4.11301 2.22617,-4.11301 1.49868,0 2.37998,1.62431 2.07774,3.82941 -0.22675,1.65433 -0.1014,2.00204 1.63152,4.52562 4.9852,7.25975 7.37874,18.00407 7.37798,33.11888 -4e-4,10.37289 -1.33258,21.70621 -3.30794,28.14425 -1.03852,3.38473 -0.5481,3.18991 -9.12257,3.62388 -4.35726,0.22053 -5.31867,0.16805 -5.45718,-0.29789 z m -30.700374,-4.34115 c -2.676112,-1.21734 -2.730293,-1.38221 -2.228163,-6.78006 0.703294,-7.56035 2.646653,-19.99085 4.24984,-27.18367 3.783472,-16.97483 8.71032,-27.33429 17.950434,-37.74356 4.596878,-5.17852 5.793657,-9.4275 3.850734,-13.6714 C 94.56069,109.8317 87.320865,103.35546 81.02524,100.18122 73.437526,96.355523 54.06219,89.720525 38.974016,85.78097 31.588753,83.852659 21.059418,80.958726 16.332401,79.558037 c -2.140454,-0.63425 -4.252018,-1.058965 -4.692366,-0.943808 -1.226699,0.320788 -1.38307,-0.407332 -0.681421,-3.172936 1.119014,-4.410677 2.937439,-8.704489 4.549218,-10.741984 l 0.750934,-0.949272 7.829422,3.636941 c 4.306181,2.000322 13.998719,6.303504 21.538971,9.562628 26.331437,11.381251 37.938509,17.3871 44.530846,23.041612 2.866365,2.458592 7.755293,8.663072 9.465544,12.012592 1.395961,2.73399 1.578451,3.42249 1.587061,5.98778 0.013,3.86887 -0.97593,7.01083 -2.963705,9.41622 -0.886317,1.07253 -2.836385,3.4328 -4.333485,5.24506 -10.333531,12.50887 -14.887006,29.66853 -16.058236,60.51506 l -0.264103,6.95561 -1.667514,-0.009 c -0.917135,-0.005 -2.39332,-0.339 -3.280411,-0.74252 z m 69.148804,-6.60743 c -0.009,-9.1448 -1.19173,-20.8595 -3.06252,-30.32917 -2.8186,-14.26732 -7.22569,-23.66172 -15.69171,-33.4493 -4.62838,-5.35088 -6.64485,-10.3162 -6.64485,-16.36215 0,-7.62627 2.78463,-12.39038 10.66765,-18.250816 6.72836,-5.002041 11.97568,-7.7015 34.29174,-17.641215 5.10077,-2.271917 14.08257,-6.392273 19.95955,-9.156345 5.87698,-2.764075 10.99329,-5.118233 11.36957,-5.231466 0.91249,-0.274591 3.09368,3.143548 4.50397,7.058185 1.66713,4.627539 1.64281,4.690611 -2.26475,5.874632 -8.07434,2.446577 -17.68122,5.250422 -20.46358,5.972454 -4.7472,1.231919 -18.27607,5.675076 -23.43453,7.696378 -4.39053,1.720396 -14.01524,6.334625 -18.09747,8.676195 -5.77382,3.311868 -9.63736,6.947708 -11.57441,10.892268 -0.94881,1.93213 -1.12712,2.80553 -1.12712,5.52101 0,2.92016 0.14314,3.51232 1.51077,6.24996 0.90628,1.81414 2.90063,4.63755 4.98438,7.05641 10.33834,12.00094 15.44691,23.60314 19.461,44.19836 1.25148,6.42102 2.87431,18.21241 2.87431,20.88459 0,0.94669 -0.27049,1.7703 -0.71289,2.17067 -1.07427,0.97219 -4.18244,2.28352 -5.43626,2.29353 l -1.10887,0.009 -0.004,-4.13304 z m -85.795637,-1.09862 c -10.020114,-4.74031 -24.309984,-17.57985 -30.980478,-27.83617 -1.083031,-1.66523 -2.314316,-3.79743 -2.736188,-4.73822 l -0.76704,-1.71054 5.807331,-5.92869 c 3.194032,-3.26079 9.396542,-9.37343 13.783356,-13.58366 8.122711,-7.79575 10.161831,-10.21368 10.604792,-12.57487 0.27422,-1.46173 -0.365111,-3.85001 -1.448729,-5.41183 -1.267274,-1.82654 -3.105359,-5.82 -3.384317,-7.35285 -1.221299,-6.7109 6.278021,-10.90796 18.311424,-10.24814 5.389345,0.29551 9.348884,1.13213 13.642284,2.88254 6.636111,2.70551 11.794264,6.42162 13.336956,9.6084 1.58357,3.27122 0.982123,4.83343 -4.484363,11.64778 -3.760424,4.68763 -8.202883,11.6317 -10.908241,17.05083 -3.135178,6.2801 -7.907006,19.60662 -11.827425,33.03103 -3.855358,13.20164 -4.96265,16.36385 -5.729899,16.3635 -0.376993,-1.8e-4 -1.82575,-0.53978 -3.219463,-1.19911 z m 101.676487,-3.94167 c -0.12471,-0.3881 -0.38354,-1.15927 -0.57518,-1.7137 -0.19163,-0.55443 -1.43619,-4.63707 -2.76568,-9.07252 -8.67843,-28.95297 -12.56427,-37.08943 -25.15089,-52.66288 -1.50475,-1.86184 -3.18317,-4.32653 -3.72981,-5.4771 -3.22094,-6.77939 1.38207,-13.0003 12.11085,-16.36768 4.68179,-1.46945 8.89087,-2.03913 13.44562,-1.8198 3.35054,0.16134 4.3995,0.38655 6.60289,1.41764 4.25905,1.99305 5.6385,4.36086 6.74681,11.58081 0.42441,2.7648 1.14869,5.87924 1.6095,6.92099 1.17911,2.66556 4.50608,6.58968 9.55237,11.26689 2.38094,2.20679 7.30688,6.98651 10.94653,10.62159 7.65644,7.64684 7.34422,6.72564 4.30305,12.69598 -5.5606,10.91639 -17.15646,23.86569 -27.66666,30.89585 -3.75174,2.5095 -5.04279,2.91705 -5.4294,1.71393 z m -52.71452,-86.83439 c -0.36416,-0.51991 -0.66211,-1.441224 -0.66211,-2.047361 0,-0.606137 -0.74226,-3.393491 -1.64948,-6.194122 C 101.05607,87.738131 100.90864,87.4676 98.513665,85.064426 97.147706,83.693789 93.943424,81.135572 91.393037,79.379494 80.928749,72.174286 71.421894,64.925884 65.788361,59.857481 58.343453,53.159411 52.662525,47.493181 50.21588,44.325278 48.654172,42.303186 46.247417,39.469316 44.867535,38.027793 41.577793,34.591095 40.473076,32.97332 40.772282,32.030605 41.613096,29.38144 55.963537,19.665876 64.40131,16.033237 84.129491,7.5398367 101.87822,5.1712115 121.43317,8.4221497 c 8.89195,1.4782531 25.0693,7.0887413 30.03451,10.4163063 0.7793,0.522264 2.68706,1.683039 4.23947,2.579499 4.33884,2.505527 8.70584,5.645799 12.08699,8.691651 2.71886,2.449238 3.01176,2.848145 2.54884,3.471375 -0.84192,1.133483 -7.12894,8.887199 -9.15078,11.285563 -1.02083,1.210924 -4.9458,5.293559 -8.72218,9.072523 -7.8844,7.889813 -18.89398,16.879143 -30.56728,24.958225 -7.75276,5.365679 -11.14736,8.43316 -12.21866,11.041228 -0.34257,0.833995 -1.14941,2.562697 -1.79297,3.841556 -0.6537,1.299012 -1.28407,3.345511 -1.42832,4.637067 -0.35264,3.157197 -0.66526,3.671057 -1.5045,2.472887 z"
       style="fill:#fd00ad;stroke-width:0.40322325" />
    <path
       inkscape:connector-curvature="0"
       id="path3756"
       d="m 103.34353,203.71329 c -0.0925,-0.31107 -0.46671,-1.40492 -0.83162,-2.43077 -1.2324,-3.46453 -2.635331,-12.10497 -3.290084,-20.26309 -1.042183,-12.98547 -0.03218,-24.45891 2.945184,-33.45672 0.9864,-2.98095 2.13247,-5.42289 3.59566,-7.66124 1.74398,-2.6679 2.14915,-3.61154 2.15514,-5.01932 0.01,-2.36095 0.95835,-4.11301 2.22617,-4.11301 1.49868,0 2.37998,1.62431 2.07774,3.82941 -0.22675,1.65433 -0.1014,2.00204 1.63152,4.52562 4.9852,7.25975 7.37874,18.00407 7.37798,33.11888 -4e-4,10.37289 -1.33258,21.70621 -3.30794,28.14425 -1.03852,3.38473 -0.5481,3.18991 -9.12257,3.62388 -4.35726,0.22053 -5.31867,0.16805 -5.45718,-0.29789 z m -30.700374,-4.34115 c -2.676112,-1.21734 -2.730293,-1.38221 -2.228163,-6.78006 0.703294,-7.56035 2.646653,-19.99085 4.24984,-27.18367 3.783472,-16.97483 8.71032,-27.33429 17.950434,-37.74356 4.596878,-5.17852 5.793657,-9.4275 3.850734,-13.6714 C 94.56069,109.8317 87.320865,103.35546 81.02524,100.18122 73.437526,96.355523 54.06219,89.720525 38.974016,85.78097 31.588753,83.852659 21.059418,80.958726 16.332401,79.558037 c -2.140454,-0.63425 -4.252018,-1.058965 -4.692366,-0.943808 -1.226699,0.320788 -1.38307,-0.407332 -0.681421,-3.172936 1.119014,-4.410677 2.937439,-8.704489 4.549218,-10.741984 l 0.750934,-0.949272 7.829422,3.636941 c 4.306181,2.000322 13.998719,6.303504 21.538971,9.562628 26.331437,11.381251 37.938509,17.3871 44.530846,23.041612 2.866365,2.458592 7.755293,8.663072 9.465544,12.012592 1.395961,2.73399 1.578451,3.42249 1.587061,5.98778 0.013,3.86887 -0.97593,7.01083 -2.963705,9.41622 -0.886317,1.07253 -2.836385,3.4328 -4.333485,5.24506 -10.333531,12.50887 -14.887006,29.66853 -16.058236,60.51506 l -0.264103,6.95561 -1.667514,-0.009 c -0.917135,-0.005 -2.39332,-0.339 -3.280411,-0.74252 z m 69.148804,-6.60743 c -0.009,-9.1448 -1.19173,-20.8595 -3.06252,-30.32917 -2.8186,-14.26732 -7.22569,-23.66172 -15.69171,-33.4493 -4.62838,-5.35088 -6.64485,-10.3162 -6.64485,-16.36215 0,-7.62627 2.78463,-12.39038 10.66765,-18.250816 6.72836,-5.002041 11.97568,-7.7015 34.29174,-17.641215 5.10077,-2.271917 14.08257,-6.392273 19.95955,-9.156345 5.87698,-2.764075 10.99329,-5.118233 11.36957,-5.231466 0.91249,-0.274591 3.09368,3.143548 4.50397,7.058185 1.66713,4.627539 1.64281,4.690611 -2.26475,5.874632 -8.07434,2.446577 -17.68122,5.250422 -20.46358,5.972454 -4.7472,1.231919 -18.27607,5.675076 -23.43453,7.696378 -4.39053,1.720396 -14.01524,6.334625 -18.09747,8.676195 -5.77382,3.311868 -9.63736,6.947708 -11.57441,10.892268 -0.94881,1.93213 -1.12712,2.80553 -1.12712,5.52101 0,2.92016 0.14314,3.51232 1.51077,6.24996 0.90628,1.81414 2.90063,4.63755 4.98438,7.05641 10.33834,12.00094 15.44691,23.60314 19.461,44.19836 1.25148,6.42102 2.87431,18.21241 2.87431,20.88459 0,0.94669 -0.27049,1.7703 -0.71289,2.17067 -1.07427,0.97219 -4.18244,2.28352 -5.43626,2.29353 l -1.10887,0.009 -0.004,-4.13304 z M 56.034145,191.68398 C 44.348473,186.1557 26.830984,169.24136 22.279657,159.0917 l -0.76704,-1.71054 5.807331,-5.92869 c 3.194032,-3.26079 9.396542,-9.37343 13.783356,-13.58366 8.122711,-7.79575 10.161831,-10.21368 10.604792,-12.57487 0.27422,-1.46173 -0.365111,-3.85001 -1.448729,-5.41183 -1.267274,-1.82654 -3.105359,-5.82 -3.384317,-7.35285 -1.221299,-6.7109 6.278021,-10.90796 18.311424,-10.24814 5.389345,0.29551 9.348884,1.13213 13.642284,2.88254 6.636111,2.70551 11.794264,6.42162 13.336956,9.6084 1.58357,3.27122 0.982123,4.83343 -4.484363,11.64778 -3.760424,4.68763 -8.202883,11.6317 -10.908241,17.05083 -3.135178,6.2801 -7.907006,19.60662 -11.827425,33.03103 -3.855358,13.20164 -4.96265,16.36385 -5.729899,16.3635 -0.376993,-1.8e-4 -1.80873,-0.53172 -3.181641,-1.18122 z m -0.608758,-26.40762 c 0.598863,-0.31526 1.926544,-1.44932 2.950408,-2.52014 3.073493,-3.21446 3.957068,-4.68749 13.527592,-22.5522 3.134367,-5.85073 4.018482,-9.52603 2.733023,-11.36128 -0.894869,-1.2776 -2.117071,-1.12262 -5.677726,0.71993 -8.273056,4.28112 -15.231512,12.02993 -19.160971,21.33731 -1.166166,2.76219 -1.292363,3.46287 -1.318762,7.32192 -0.01919,2.80682 0.152527,4.60908 0.501723,5.26563 1.137363,2.13842 4.17763,2.98229 6.444713,1.78883 z m 25.811521,-43.59695 c 3.004461,-1.50306 4.914227,-3.32545 4.914227,-4.68936 0,-2.18287 -3.457321,-4.57743 -7.983506,-5.52942 -7.127942,-1.49923 -11.851449,1.21917 -9.588342,5.51814 0.612335,1.16317 3.816556,4.36806 5.464066,5.4652 1.626917,1.08343 4.004834,0.8307 7.193555,-0.76456 z m 76.435902,66.04501 c -0.12471,-0.3881 -0.38354,-1.15927 -0.57518,-1.7137 -0.19163,-0.55443 -1.43619,-4.63707 -2.76568,-9.07252 -8.67843,-28.95297 -12.56427,-37.08943 -25.15089,-52.66288 -1.50475,-1.86184 -3.18317,-4.32653 -3.72981,-5.4771 -3.22094,-6.77939 1.38207,-13.0003 12.11085,-16.36768 4.68179,-1.46945 8.89087,-2.03913 13.44562,-1.8198 3.35054,0.16134 4.3995,0.38655 6.60289,1.41764 4.25905,1.99305 5.6385,4.36086 6.74681,11.58081 0.42441,2.7648 1.14869,5.87924 1.6095,6.92099 1.17911,2.66556 4.50608,6.58968 9.55237,11.26689 2.38094,2.20679 7.30688,6.98651 10.94653,10.62159 7.66109,7.65149 7.34766,6.71782 4.27866,12.74548 -3.39198,6.66202 -7.03376,11.37792 -15.68262,20.30808 -5.23395,5.40418 -9.01164,8.66783 -13.06711,11.289 -2.79463,1.80626 -3.96706,2.06756 -4.32194,0.9632 z m 12.29091,-19.20457 c 1.46904,-0.81462 3.18779,-3.69368 3.71173,-6.21748 0.85216,-4.10484 -0.65512,-11.45746 -3.5128,-17.13565 -3.04311,-6.04664 -6.60946,-10.80273 -13.06371,-17.42176 -4.21482,-4.32241 -5.76951,-6.68989 -6.88275,-10.48107 -1.29953,-4.42557 -2.39851,-6.00912 -5.0812,-7.32164 -4.27245,-2.09031 -10.54589,-1.12533 -13.51733,2.07923 -2.40108,2.58945 -1.77511,4.86439 2.9661,10.77972 2.00162,2.4973 4.65066,6.26432 5.88676,8.37116 1.2361,2.10684 3.42209,5.82315 4.85776,8.25846 1.43566,2.43531 4.42705,7.7881 6.64752,11.89508 5.80503,10.737 9.21317,15.36664 12.60226,17.11901 1.46508,0.75753 4.08888,0.79404 5.38566,0.0749 z m -65.00543,-67.62982 c -0.36416,-0.51991 -0.66211,-1.441224 -0.66211,-2.047361 0,-0.606137 -0.74226,-3.393491 -1.64948,-6.194122 C 101.05607,87.738131 100.90864,87.4676 98.513665,85.064426 97.147706,83.693789 93.943424,81.135572 91.393037,79.379494 80.928749,72.174286 71.421894,64.925884 65.788361,59.857481 58.343453,53.159411 52.662525,47.493181 50.21588,44.325278 48.654172,42.303186 46.247417,39.469316 44.867535,38.027793 41.577793,34.591095 40.473076,32.97332 40.772282,32.030605 41.613096,29.38144 55.963537,19.665876 64.40131,16.033237 84.129491,7.5398367 101.87822,5.1712115 121.43317,8.4221497 c 8.89195,1.4782531 25.0693,7.0887413 30.03451,10.4163063 0.7793,0.522264 2.68706,1.683039 4.23947,2.579499 4.33884,2.505527 8.70584,5.645799 12.08699,8.691651 2.71886,2.449238 3.01176,2.848145 2.54884,3.471375 -0.84192,1.133483 -7.12894,8.887199 -9.15078,11.285563 -1.02083,1.210924 -4.9458,5.293559 -8.72218,9.072523 -7.8844,7.889813 -18.89398,16.879143 -30.56728,24.958225 -7.75276,5.365679 -11.14736,8.43316 -12.21866,11.041228 -0.34257,0.833995 -1.14941,2.562697 -1.79297,3.841556 -0.6537,1.299012 -1.28407,3.345511 -1.42832,4.637067 -0.35264,3.157197 -0.66526,3.671057 -1.5045,2.472887 z"
       style="fill:#24fd21;stroke-width:0.40322325" />
    <path
       inkscape:connector-curvature="0"
       id="path3754"
       d="m 103.34353,203.71329 c -0.0925,-0.31107 -0.46671,-1.40492 -0.83162,-2.43077 -1.2324,-3.46453 -2.635331,-12.10497 -3.290084,-20.26309 -1.042183,-12.98547 -0.03218,-24.45891 2.945184,-33.45672 0.9864,-2.98095 2.13247,-5.42289 3.59566,-7.66124 1.74398,-2.6679 2.14915,-3.61154 2.15514,-5.01932 0.01,-2.36095 0.95835,-4.11301 2.22617,-4.11301 1.49868,0 2.37998,1.62431 2.07774,3.82941 -0.22675,1.65433 -0.1014,2.00204 1.63152,4.52562 4.9852,7.25975 7.37874,18.00407 7.37798,33.11888 -4e-4,10.37289 -1.33258,21.70621 -3.30794,28.14425 -1.03852,3.38473 -0.5481,3.18991 -9.12257,3.62388 -4.35726,0.22053 -5.31867,0.16805 -5.45718,-0.29789 z M 56.034145,191.68398 C 44.348473,186.1557 26.830984,169.24136 22.279657,159.0917 l -0.76704,-1.71054 5.807331,-5.92869 c 3.194032,-3.26079 9.396542,-9.37343 13.783356,-13.58366 8.122711,-7.79575 10.161831,-10.21368 10.604792,-12.57487 0.27422,-1.46173 -0.365111,-3.85001 -1.448729,-5.41183 -1.267274,-1.82654 -3.105359,-5.82 -3.384317,-7.35285 -1.221299,-6.7109 6.278021,-10.90796 18.311424,-10.24814 5.389345,0.29551 9.348884,1.13213 13.642284,2.88254 6.636111,2.70551 11.794264,6.42162 13.336956,9.6084 1.58357,3.27122 0.982123,4.83343 -4.484363,11.64778 -3.760424,4.68763 -8.202883,11.6317 -10.908241,17.05083 -3.135178,6.2801 -7.907006,19.60662 -11.827425,33.03103 -3.855358,13.20164 -4.96265,16.36385 -5.729899,16.3635 -0.376993,-1.8e-4 -1.80873,-0.53172 -3.181641,-1.18122 z m -0.608758,-26.40762 c 0.598863,-0.31526 1.926544,-1.44932 2.950408,-2.52014 3.073493,-3.21446 3.957068,-4.68749 13.527592,-22.5522 3.134367,-5.85073 4.018482,-9.52603 2.733023,-11.36128 -0.894869,-1.2776 -2.117071,-1.12262 -5.677726,0.71993 -8.273056,4.28112 -15.231512,12.02993 -19.160971,21.33731 -1.166166,2.76219 -1.292363,3.46287 -1.318762,7.32192 -0.01919,2.80682 0.152527,4.60908 0.501723,5.26563 1.137363,2.13842 4.17763,2.98229 6.444713,1.78883 z m 25.811521,-43.59695 c 3.004461,-1.50306 4.914227,-3.32545 4.914227,-4.68936 0,-2.18287 -3.457321,-4.57743 -7.983506,-5.52942 -7.127942,-1.49923 -11.851449,1.21917 -9.588342,5.51814 0.612335,1.16317 3.816556,4.36806 5.464066,5.4652 1.626917,1.08343 4.004834,0.8307 7.193555,-0.76456 z m 76.435902,66.04501 c -0.12471,-0.3881 -0.38354,-1.15927 -0.57518,-1.7137 -0.19163,-0.55443 -1.43619,-4.63707 -2.76568,-9.07252 -8.67843,-28.95297 -12.56427,-37.08943 -25.15089,-52.66288 -1.50475,-1.86184 -3.18317,-4.32653 -3.72981,-5.4771 -3.22094,-6.77939 1.38207,-13.0003 12.11085,-16.36768 4.68179,-1.46945 8.89087,-2.03913 13.44562,-1.8198 3.35054,0.16134 4.3995,0.38655 6.60289,1.41764 4.25905,1.99305 5.6385,4.36086 6.74681,11.58081 0.42441,2.7648 1.14869,5.87924 1.6095,6.92099 1.17911,2.66556 4.50608,6.58968 9.55237,11.26689 2.38094,2.20679 7.30688,6.98651 10.94653,10.62159 7.66109,7.65149 7.34766,6.71782 4.27866,12.74548 -3.39198,6.66202 -7.03376,11.37792 -15.68262,20.30808 -5.23395,5.40418 -9.01164,8.66783 -13.06711,11.289 -2.79463,1.80626 -3.96706,2.06756 -4.32194,0.9632 z m 12.29091,-19.20457 c 1.46904,-0.81462 3.18779,-3.69368 3.71173,-6.21748 0.85216,-4.10484 -0.65512,-11.45746 -3.5128,-17.13565 -3.04311,-6.04664 -6.60946,-10.80273 -13.06371,-17.42176 -4.21482,-4.32241 -5.76951,-6.68989 -6.88275,-10.48107 -1.29953,-4.42557 -2.39851,-6.00912 -5.0812,-7.32164 -4.27245,-2.09031 -10.54589,-1.12533 -13.51733,2.07923 -2.40108,2.58945 -1.77511,4.86439 2.9661,10.77972 2.00162,2.4973 4.65066,6.26432 5.88676,8.37116 1.2361,2.10684 3.42209,5.82315 4.85776,8.25846 1.43566,2.43531 4.42705,7.7881 6.64752,11.89508 5.80503,10.737 9.21317,15.36664 12.60226,17.11901 1.46508,0.75753 4.08888,0.79404 5.38566,0.0749 z m -65.00543,-67.62982 c -0.36416,-0.51991 -0.66211,-1.441224 -0.66211,-2.047361 0,-0.606137 -0.74226,-3.393491 -1.64948,-6.194122 C 101.05607,87.738131 100.90864,87.4676 98.513665,85.064426 97.147706,83.693789 93.943424,81.135572 91.393037,79.379494 80.928749,72.174286 71.421894,64.925884 65.788361,59.857481 58.343453,53.159411 52.662525,47.493181 50.21588,44.325278 48.654172,42.303186 46.247417,39.469316 44.867535,38.027793 41.577793,34.591095 40.473076,32.97332 40.772282,32.030605 41.613096,29.38144 55.963537,19.665876 64.40131,16.033237 84.129491,7.5398367 101.87822,5.1712115 121.43317,8.4221497 c 8.89195,1.4782531 25.0693,7.0887413 30.03451,10.4163063 0.7793,0.522264 2.68706,1.683039 4.23947,2.579499 4.33884,2.505527 8.70584,5.645799 12.08699,8.691651 2.71886,2.449238 3.01176,2.848145 2.54884,3.471375 -0.84192,1.133483 -7.12894,8.887199 -9.15078,11.285563 -1.02083,1.210924 -4.9458,5.293559 -8.72218,9.072523 -7.8844,7.889813 -18.89398,16.879143 -30.56728,24.958225 -7.75276,5.365679 -11.14736,8.43316 -12.21866,11.041228 -0.34257,0.833995 -1.14941,2.562697 -1.79297,3.841556 -0.6537,1.299012 -1.28407,3.345511 -1.42832,4.637067 -0.35264,3.157197 -0.66526,3.671057 -1.5045,2.472887 z"
       style="fill:#2020fe;stroke-width:0.40322325" />
    <path
       inkscape:connector-curvature="0"
       id="path3752"
       d="M 56.034145,191.68398 C 44.348473,186.1557 26.830984,169.24136 22.279657,159.0917 l -0.76704,-1.71054 5.807331,-5.92869 c 3.194032,-3.26079 9.396542,-9.37343 13.783356,-13.58366 8.122711,-7.79575 10.161831,-10.21368 10.604792,-12.57487 0.27422,-1.46173 -0.365111,-3.85001 -1.448729,-5.41183 -1.267274,-1.82654 -3.105359,-5.82 -3.384317,-7.35285 -1.221299,-6.7109 6.278021,-10.90796 18.311424,-10.24814 5.389345,0.29551 9.348884,1.13213 13.642284,2.88254 6.636111,2.70551 11.794264,6.42162 13.336956,9.6084 1.58357,3.27122 0.982123,4.83343 -4.484363,11.64778 -3.760424,4.68763 -8.202883,11.6317 -10.908241,17.05083 -3.135178,6.2801 -7.907006,19.60662 -11.827425,33.03103 -3.855358,13.20164 -4.96265,16.36385 -5.729899,16.3635 -0.376993,-1.8e-4 -1.80873,-0.53172 -3.181641,-1.18122 z m -0.608758,-26.40762 c 0.598863,-0.31526 1.926544,-1.44932 2.950408,-2.52014 3.073493,-3.21446 3.957068,-4.68749 13.527592,-22.5522 3.134367,-5.85073 4.018482,-9.52603 2.733023,-11.36128 -0.894869,-1.2776 -2.117071,-1.12262 -5.677726,0.71993 -8.273056,4.28112 -15.231512,12.02993 -19.160971,21.33731 -1.166166,2.76219 -1.292363,3.46287 -1.318762,7.32192 -0.01919,2.80682 0.152527,4.60908 0.501723,5.26563 1.137363,2.13842 4.17763,2.98229 6.444713,1.78883 z m 25.811521,-43.59695 c 3.004461,-1.50306 4.914227,-3.32545 4.914227,-4.68936 0,-2.18287 -3.457321,-4.57743 -7.983506,-5.52942 -7.127942,-1.49923 -11.851449,1.21917 -9.588342,5.51814 0.612335,1.16317 3.816556,4.36806 5.464066,5.4652 1.626917,1.08343 4.004834,0.8307 7.193555,-0.76456 z m 76.435902,66.04501 c -0.12471,-0.3881 -0.38354,-1.15927 -0.57518,-1.7137 -0.19163,-0.55443 -1.43619,-4.63707 -2.76568,-9.07252 -8.67843,-28.95297 -12.56427,-37.08943 -25.15089,-52.66288 -1.50475,-1.86184 -3.18317,-4.32653 -3.72981,-5.4771 -3.22094,-6.77939 1.38207,-13.0003 12.11085,-16.36768 4.68179,-1.46945 8.89087,-2.03913 13.44562,-1.8198 3.35054,0.16134 4.3995,0.38655 6.60289,1.41764 4.25905,1.99305 5.6385,4.36086 6.74681,11.58081 0.42441,2.7648 1.14869,5.87924 1.6095,6.92099 1.17911,2.66556 4.50608,6.58968 9.55237,11.26689 2.38094,2.20679 7.30688,6.98651 10.94653,10.62159 7.66109,7.65149 7.34766,6.71782 4.27866,12.74548 -3.39198,6.66202 -7.03376,11.37792 -15.68262,20.30808 -5.23395,5.40418 -9.01164,8.66783 -13.06711,11.289 -2.79463,1.80626 -3.96706,2.06756 -4.32194,0.9632 z m 12.29091,-19.20457 c 1.46904,-0.81462 3.18779,-3.69368 3.71173,-6.21748 0.85216,-4.10484 -0.65512,-11.45746 -3.5128,-17.13565 -3.04311,-6.04664 -6.60946,-10.80273 -13.06371,-17.42176 -4.21482,-4.32241 -5.76951,-6.68989 -6.88275,-10.48107 -1.29953,-4.42557 -2.39851,-6.00912 -5.0812,-7.32164 -4.27245,-2.09031 -10.54589,-1.12533 -13.51733,2.07923 -2.40108,2.58945 -1.77511,4.86439 2.9661,10.77972 2.00162,2.4973 4.65066,6.26432 5.88676,8.37116 1.2361,2.10684 3.42209,5.82315 4.85776,8.25846 1.43566,2.43531 4.42705,7.7881 6.64752,11.89508 5.80503,10.737 9.21317,15.36664 12.60226,17.11901 1.46508,0.75753 4.08888,0.79404 5.38566,0.0749 z"
       style="fill:#fd1e22;stroke-width:0.40322325" />
  </g>
</svg>
