<?xml version="1.0" encoding="UTF-8" standalone="no"?>
<!-- Created with Inkscape (http://www.inkscape.org/) -->

<svg
   xmlns:dc="http://purl.org/dc/elements/1.1/"
   xmlns:cc="http://creativecommons.org/ns#"
   xmlns:rdf="http://www.w3.org/1999/02/22-rdf-syntax-ns#"
   xmlns:svg="http://www.w3.org/2000/svg"
   xmlns="http://www.w3.org/2000/svg"
   xmlns:sodipodi="http://sodipodi.sourceforge.net/DTD/sodipodi-0.dtd"
   xmlns:inkscape="http://www.inkscape.org/namespaces/inkscape"
   width="100%"
   height="100%"
   viewBox="0 0 210 210"
   version="1.1"
   id="svg8"
   inkscape:version="0.92.3 (2405546, 2018-03-11)"
   sodipodi:docname="Mark.svg">
  <defs
     id="defs2" />
  <sodipodi:namedview
     id="base"
     pagecolor="#ffffff"
     bordercolor="#666666"
     borderopacity="1.0"
     inkscape:pageopacity="0.0"
     inkscape:pageshadow="2"
     inkscape:zoom="0.35"
     inkscape:cx="400"
     inkscape:cy="560"
     inkscape:document-units="mm"
     inkscape:current-layer="layer1"
     showgrid="false"
     inkscape:window-width="1920"
     inkscape:window-height="1057"
     inkscape:window-x="-8"
     inkscape:window-y="-8"
     inkscape:window-maximized="1" />
  <metadata
     id="metadata5">
    <rdf:RDF>
      <cc:Work
         rdf:about="">
        <dc:format>image/svg+xml</dc:format>
        <dc:type
           rdf:resource="http://purl.org/dc/dcmitype/StillImage" />
        <dc:title></dc:title>
      </cc:Work>
    </rdf:RDF>
  </metadata>
  <g
     inkscape:label="Livello 1"
     inkscape:groupmode="layer"
     id="layer1">
    <path
       inkscape:connector-curvature="0"
       id="path35"
       d="m 0.96141743,158.43668 c 0.0215343,-28.17966 0.0867259,-50.14921 0.14487017,-48.82124 0.058144,1.32798 0.1517396,2.1972 0.2079898,1.93161 0.05625,-0.2656 0.1622137,0.47324 0.2354746,1.64186 0.5061495,8.07383 2.800263,18.91115 5.7329093,27.08209 5.2813737,14.71495 13.4168967,27.55416 24.4518797,38.58915 11.034985,11.03498 23.874198,19.17051 38.589149,24.45188 8.170934,2.93265 19.008256,5.22676 27.082091,5.73291 1.168619,0.0733 1.907457,0.17922 1.641862,0.23547 -0.265595,0.0562 0.603625,0.14985 1.931597,0.20799 1.32798,0.0581 -20.641576,0.12333 -48.821234,0.14487 l -51.23574192,0.0391 z M 109.47829,209.4884 c 1.32798,-0.0581 2.1972,-0.15175 1.93161,-0.20799 -0.2656,-0.0562 0.47324,-0.16222 1.64186,-0.23547 8.07383,-0.50615 18.91115,-2.80026 27.08209,-5.73291 14.71495,-5.28137 27.55416,-13.4169 38.58915,-24.45188 11.03498,-11.03499 19.17051,-23.8742 24.45188,-38.58915 2.93265,-8.17094 5.22676,-19.00826 5.73291,-27.08209 0.0733,-1.16862 0.17922,-1.90746 0.23547,-1.64186 0.0562,0.26559 0.14985,-0.60363 0.20799,-1.93161 0.0581,-1.32797 0.12333,20.64158 0.14487,48.82124 l 0.0392,51.23574 -51.23574,-0.0391 c -28.17966,-0.0215 -50.14921,-0.0867 -48.82124,-0.14487 z M 0.96141743,52.295155 0.92226408,1.0594138 52.158006,1.0985671 c 28.179658,0.021534 50.149214,0.086726 48.821234,0.1448702 -1.327972,0.058144 -2.197192,0.1517396 -1.931597,0.2079898 0.265595,0.05625 -0.473243,0.1622137 -1.641862,0.2354746 C 89.331946,2.1930512 78.494624,4.4871647 70.32369,7.419811 55.608739,12.701185 42.769526,20.836708 31.734541,31.871691 20.699558,42.906676 12.564035,55.745889 7.2826613,70.46084 4.350015,78.631773 2.0559015,89.469096 1.549752,97.542931 1.4764911,98.71155 1.3705275,99.450388 1.3142774,99.184793 1.2580272,98.919197 1.1644318,99.788418 1.1062876,101.11639 1.0481433,102.44437 0.98295177,80.474813 0.96141743,52.295155 Z M 209.32286,101.0681 c -0.0106,-1.304383 -0.0812,-2.149509 -0.15733,-1.883307 -0.0884,0.309388 -0.18351,-0.280548 -0.2645,-1.641862 C 208.42816,89.59663 206.11304,78.647108 203.17488,70.46084 197.89351,55.745889 189.75798,42.906676 178.723,31.871691 167.68801,20.836708 154.8488,12.701185 140.13385,7.419811 131.96291,4.4871647 121.12559,2.1930512 113.05176,1.6869017 111.88314,1.6136407 111.1443,1.5076773 111.4099,1.4514271 c 0.26559,-0.05625 -0.60363,-0.1498456 -1.93161,-0.2079898 -1.32797,-0.058144 20.64158,-0.1233358 48.82124,-0.1448702 l 51.23574,-0.039153 V 52.246865 c 0,28.153099 -0.0435,51.187455 -0.0966,51.187455 -0.0531,0 -0.10525,-1.0648 -0.11583,-2.36622 z"
       style="fill:#e4d1a6;stroke-width:0.19316019" />
    <path
       inkscape:connector-curvature="0"
       id="path33"
       d="m 0.95806787,159.01616 c 0.0196921,-27.86094 0.0939738,-49.70012 0.16507043,-48.5315 0.2709463,4.45356 1.0823371,10.57893 2.0341463,15.35624 3.1738997,15.93039 10.3082894,31.39226 20.3039594,44.00339 4.968907,6.26907 11.020081,12.32025 17.289149,17.28915 12.61113,9.99568 28.073009,17.13005 44.003395,20.30397 4.777306,0.95181 10.90268,1.7632 15.356232,2.03415 1.16862,0.0711 -20.670551,0.14537 -48.531495,0.16505 l -50.65626092,0.0358 z M 110.34751,209.47156 c 4.45356,-0.27095 10.57893,-1.08234 15.35624,-2.03415 15.93039,-3.17392 31.39227,-10.30829 44.00339,-20.30397 6.26907,-4.9689 12.32025,-11.02008 17.28915,-17.28915 9.99568,-12.61113 17.13005,-28.073 20.30397,-44.00339 0.95181,-4.77731 1.7632,-10.90268 2.03415,-15.35624 0.0711,-1.16862 0.14537,20.67056 0.16505,48.5315 l 0.0358,50.65626 -50.65626,-0.0358 c -27.86094,-0.0197 -49.70011,-0.094 -48.5315,-0.16505 z M 0.95806787,51.715675 0.92226408,1.0594138 51.578525,1.0952176 C 79.439469,1.1149097 101.27864,1.1891914 100.11002,1.2602881 95.656468,1.5312343 89.531094,2.3426251 84.753788,3.2944343 68.823402,6.468334 53.361523,13.602724 40.750393,23.598394 34.481325,28.567301 28.430151,34.618475 23.461244,40.887543 13.465574,53.498673 6.3311843,68.960551 3.1572846,84.890938 2.2054754,89.668244 1.3940846,95.793618 1.1231383,100.24717 1.0520417,101.41579 0.97775995,79.576618 0.95806787,51.715675 Z M 209.28797,100.19888 c -0.14325,-3.801739 -0.98158,-10.25801 -1.98771,-15.307942 -3.17392,-15.930387 -10.30829,-31.392265 -20.30397,-44.003395 -4.9689,-6.269068 -11.02008,-12.320242 -17.28915,-17.289149 -12.61112,-9.99567 -28.073,-17.13006 -44.00339,-20.3039597 -4.77731,-0.9518092 -10.90268,-1.7632 -15.35624,-2.0341462 -1.16861,-0.071097 20.67056,-0.1453784 48.5315,-0.1650705 l 50.65626,-0.035804 V 51.667385 c 0,27.834384 -0.038,50.607975 -0.0845,50.607975 -0.0465,0 -0.11974,-0.93442 -0.16278,-2.07648 z"
       style="fill:#f0cf60;stroke-width:0.19316019" />
    <path
       inkscape:connector-curvature="0"
       id="path31"
       d="m 0.95948212,159.40248 c 0.0204699,-27.64846 0.0640908,-49.70494 0.0969352,-49.0144 0.1202357,2.52793 0.875772,9.06825 1.4169286,12.26568 1.7640242,10.42274 4.8585664,19.89013 9.5940651,29.35193 2.254739,4.50509 3.534728,6.69971 6.539095,11.21171 6.360291,9.55195 13.654564,17.4016 22.850581,24.5904 2.470606,1.93135 8.996425,6.30282 11.81159,7.91228 10.717043,6.12702 22.498376,10.34087 34.672255,12.40127 3.197425,0.54116 9.737742,1.29668 12.265668,1.41692 0.69055,0.0328 -21.365928,0.0765 -49.014395,0.0969 l -50.26994093,0.0372 z M 110.25093,209.53827 c 2.52793,-0.12024 9.06825,-0.87576 12.26568,-1.41692 10.42274,-1.76404 19.89013,-4.85858 29.35193,-9.59408 4.50509,-2.25474 6.69972,-3.53471 11.21171,-6.53909 9.55195,-6.36029 17.4016,-13.65456 24.5904,-22.85058 1.93135,-2.47061 6.30282,-8.99642 7.91228,-11.81159 6.12702,-10.71704 10.34087,-22.49838 12.40127,-34.67225 0.54116,-3.19743 1.29668,-9.73775 1.41692,-12.26568 0.0328,-0.69054 0.0765,21.36594 0.0969,49.0144 l 0.0372,50.26994 -50.26994,-0.0372 c -27.64846,-0.0205 -49.70494,-0.0641 -49.0144,-0.0969 z M 0.95948212,51.329354 0.92226408,1.0594138 51.192205,1.0966318 c 27.648467,0.02047 49.704945,0.064091 49.014395,0.096935 C 97.678674,1.3138027 91.138357,2.0693391 87.940932,2.6104956 77.518187,4.3745198 68.050794,7.4690621 58.589002,12.204561 54.083907,14.4593 51.889283,15.739289 47.377291,18.743656 37.825336,25.103947 29.975684,32.39822 22.786887,41.594237 20.855542,44.064843 16.484067,50.590662 14.874614,53.405826 8.7475892,64.12287 4.5337451,75.904203 2.4733459,88.078081 1.9321893,91.275507 1.176653,97.815824 1.0564173,100.34375 1.0235729,101.0343 0.97995204,78.977822 0.95948212,51.329354 Z M 209.33968,100.1023 c -0.003,-1.916538 -0.84019,-9.208928 -1.45332,-12.663956 -1.81547,-10.230507 -4.87268,-19.474059 -9.49624,-28.712192 -2.25474,-4.505095 -3.53471,-6.699719 -6.53909,-11.211711 -6.36029,-9.551956 -13.65456,-17.401607 -22.85058,-24.590404 -2.47061,-1.931345 -8.99642,-6.30282 -11.81159,-7.912274 C 146.47182,8.8847389 134.69049,4.6708948 122.51661,2.6104956 119.31918,2.0693391 112.77886,1.3138027 110.25093,1.193567 109.56039,1.160723 131.61687,1.117102 159.26533,1.096632 l 50.26994,-0.037218 v 50.22165 c 0,27.621908 -0.0435,50.221646 -0.0966,50.221646 -0.0531,0 -0.0977,-0.63018 -0.099,-1.40041 z"
       style="fill:#cca65c;stroke-width:0.19316019" />
    <path
       inkscape:connector-curvature="0"
       id="path29"
       d="m 0.95000972,159.69222 c 0.0157929,-28.44893 0.0965323,-48.94004 0.18741908,-47.56569 1.4775107,22.34217 10.0813962,43.56195 24.6707312,60.84546 2.617663,3.10105 8.713484,9.19688 11.814541,11.81454 17.283509,14.58934 38.503284,23.19321 60.845461,24.67073 1.374345,0.0909 -19.116767,0.17163 -47.565698,0.18743 l -49.98019992,0.0277 z M 111.98938,209.45726 c 22.34217,-1.47752 43.56195,-10.08139 60.84546,-24.67073 3.10105,-2.61766 9.19688,-8.71349 11.81454,-11.81454 14.58934,-17.28351 23.19321,-38.50329 24.67073,-60.84546 0.0909,-1.37435 0.17163,19.11676 0.18743,47.56569 l 0.0277,49.9802 -49.9802,-0.0277 c -28.44893,-0.0158 -48.94004,-0.0966 -47.56569,-0.18743 z M 0.95000972,51.039614 0.92226408,1.0594138 50.902464,1.0871594 C 79.351395,1.1029524 99.842507,1.1836918 98.468162,1.2745786 76.125985,2.7520893 54.90621,11.355975 37.622701,25.94531 34.521644,28.562972 28.425823,34.658793 25.80816,37.759851 11.218825,55.043359 2.6149395,76.263135 1.1374288,98.605312 1.0465421,99.979656 0.96580265,79.488545 0.95000972,51.039614 Z M 209.27681,98.460442 C 209.03906,93.768863 208.12775,87.528106 206.90043,82.186695 203.1165,65.718759 195.6265,50.764087 184.64938,37.759851 182.03172,34.658793 175.93589,28.562972 172.83484,25.94531 155.55133,11.355975 134.33155,2.7520893 111.98938,1.2745786 110.61503,1.1836918 131.10614,1.1029524 159.55507,1.0871594 l 49.9802,-0.027746 V 50.991324 c 0,27.462551 -0.0301,49.931906 -0.0668,49.931906 -0.0368,0 -0.12298,-1.108252 -0.19163,-2.462788 z"
       style="fill:#b3905c;stroke-width:0.19316019" />
    <path
       inkscape:connector-curvature="0"
       id="path27"
       d="m 0.94633642,159.98196 c 0.0203999,-42.10984 0.0617239,-49.17477 0.27087648,-46.31015 1.0760283,14.7376 5.7546436,30.00259 13.2613101,43.26788 1.767639,3.12366 6.048919,9.55404 8.166347,12.26567 5.47338,7.00934 11.735114,13.27108 18.744455,18.74446 2.711631,2.11743 9.142017,6.3987 12.265672,8.16635 13.265286,7.50667 28.530277,12.18528 43.267884,13.2613 2.864616,0.20915 -4.200309,0.25049 -46.310157,0.27089 l -49.69045992,0.0241 z M 113.53466,209.37747 c 14.7376,-1.07602 30.00259,-5.75463 43.26788,-13.2613 3.12366,-1.76765 9.55404,-6.04892 12.26567,-8.16635 7.00934,-5.47338 13.27108,-11.73512 18.74446,-18.74446 2.11743,-2.71163 6.3987,-9.14201 8.16635,-12.26567 7.50667,-13.26529 12.18528,-28.53028 13.2613,-43.26788 0.20915,-2.86462 0.25049,4.20031 0.27089,46.31015 l 0.0241,49.69046 -49.69046,-0.0241 c -42.10984,-0.0204 -49.17477,-0.0617 -46.31015,-0.27089 z M 0.94633642,50.749874 0.92226408,1.0594138 50.612724,1.0834861 c 42.109848,0.0204 49.174773,0.061724 46.310157,0.2708765 C 82.185274,2.4303909 66.920283,7.1090062 53.654997,14.615673 50.531342,16.383312 44.100956,20.664592 41.389325,22.78202 34.379984,28.2554 28.11825,34.517133 22.64487,41.526475 20.527442,44.238106 16.246162,50.668492 14.478523,53.792147 6.9718565,67.057433 2.2932412,82.322423 1.2172129,97.06003 1.0080604,99.924646 0.96673636,92.859721 0.94633642,50.749874 Z M 209.2635,97.687801 C 208.6597,85.792415 204.91502,71.794005 199.17453,59.973273 196.75529,54.991589 195.14086,52.171485 192.04225,47.514441 185.66062,37.923199 178.27167,29.968715 169.06821,22.78202 166.35658,20.664592 159.9262,16.383312 156.80254,14.615673 143.53725,7.1090062 128.27226,2.4303909 113.53466,1.3543626 110.67004,1.1452101 117.73497,1.1038861 159.84481,1.0834861 l 49.69046,-0.024072 V 50.701584 c 0,27.303193 -0.0308,49.642166 -0.0685,49.642166 -0.0377,0 -0.12915,-1.195175 -0.20328,-2.655949 z"
       style="fill:#ca931f;stroke-width:0.19316019" />
    <path
       inkscape:connector-curvature="0"
       id="path25"
       d="m 0.95262173,160.2717 c 0.0189389,-30.81914 0.0943883,-48.34721 0.20058857,-46.59989 0.5734669,9.43529 3.1392837,20.54683 7.0027539,30.32615 1.4926974,3.77835 5.2812468,11.43819 7.3563448,14.87333 4.839502,8.01139 9.253845,13.64367 15.910634,20.30046 6.656787,6.65678 12.289067,11.07113 20.300452,15.91063 3.435148,2.0751 11.094979,5.86365 14.873335,7.35635 9.77932,3.86347 20.890855,6.42928 30.326151,7.00275 1.747321,0.1062 -15.780757,0.18165 -46.599897,0.20058 l -49.40071992,0.0304 z M 113.53466,209.44148 c 9.43529,-0.57347 20.54683,-3.13928 30.32615,-7.00275 3.77835,-1.4927 11.43819,-5.28125 14.87333,-7.35635 8.01139,-4.8395 13.64367,-9.25385 20.30046,-15.91063 6.65678,-6.65679 11.07113,-12.28907 15.91063,-20.30046 2.0751,-3.43514 5.86365,-11.09498 7.35635,-14.87333 3.86347,-9.77932 6.42928,-20.89086 7.00275,-30.32615 0.1062,-1.74732 0.18165,15.78075 0.20058,46.59989 l 0.0304,49.40072 -49.40072,-0.0304 c -30.81914,-0.0189 -48.34721,-0.0944 -46.59989,-0.20058 z M 0.95262173,50.460134 0.92226408,1.0594138 50.322984,1.0897715 C 81.142124,1.1087104 98.670202,1.1841597 96.922881,1.29036 87.487585,1.863827 76.37605,4.4296437 66.59673,8.293114 62.818374,9.7858113 55.158543,13.57436 51.723395,15.649458 43.71201,20.488961 38.07973,24.903303 31.422943,31.560092 24.766154,38.216879 20.351811,43.84916 15.512309,51.860545 13.437211,55.295692 9.6486616,62.955524 8.1559642,66.73388 4.292494,76.5132 1.7266772,87.624734 1.1532103,97.06003 1.04701,98.807352 0.97156066,81.279273 0.95262173,50.460134 Z M 209.25651,96.91516 C 208.84826,88.124865 206.1829,76.55838 202.30158,66.73388 200.80888,62.955524 197.02033,55.295692 194.94523,51.860545 190.10573,43.84916 185.69138,38.216879 179.0346,31.560092 172.37781,24.903303 166.74553,20.488961 158.73414,15.649458 155.299,13.57436 147.63916,9.7858113 143.86081,8.293114 134.08149,4.4296437 122.96995,1.863827 113.53466,1.29036 111.78734,1.1841597 129.31541,1.1087104 160.13455,1.0897715 l 49.40072,-0.030358 V 50.411843 c 0,27.143837 -0.0329,49.35243 -0.0732,49.35243 -0.0403,0 -0.13278,-1.282101 -0.20554,-2.849113 z"
       style="fill:#bb8522;stroke-width:0.19316019" />
    <path
       inkscape:connector-curvature="0"
       id="path23"
       d="m 0.95217089,160.46486 c 0.0164488,-27.06415 0.0947438,-48.46872 0.17398901,-47.56569 0.079245,0.90302 0.1527093,2.3542 0.1632534,3.22483 0.010544,0.87064 0.1898322,2.74431 0.398418,4.1637 2.8545285,19.42463 10.6988897,36.97685 23.3727817,52.29797 2.570981,3.10798 9.840422,10.37742 12.948408,12.94841 15.321115,12.67388 32.873333,20.51825 52.297969,23.37277 1.419393,0.2086 3.293056,0.38789 4.163693,0.39843 0.870637,0.0104 2.321815,0.084 3.224838,0.16324 0.903024,0.0793 -20.50154,0.15755 -47.565697,0.174 l -49.20755992,0.0299 z M 112.76202,209.46852 c 0.90302,-0.0792 2.3542,-0.15271 3.22484,-0.16324 0.87063,-0.0106 2.7443,-0.18983 4.16369,-0.39843 19.42463,-2.85452 36.97685,-10.69889 52.29797,-23.37277 3.10798,-2.57099 10.37742,-9.84043 12.94841,-12.94841 12.67388,-15.32112 20.51825,-32.87334 23.37277,-52.29797 0.2086,-1.41939 0.38789,-3.29306 0.39843,-4.1637 0.0104,-0.87063 0.084,-2.32181 0.16324,-3.22483 0.0793,-0.90303 0.15755,20.50154 0.174,47.56569 l 0.0299,49.20756 -49.20756,-0.0299 c -27.06415,-0.0164 -48.46872,-0.0947 -47.56569,-0.174 z M 0.95217089,50.266973 0.92226408,1.0594138 50.129824,1.0893206 C 77.193981,1.1057696 98.598545,1.1840646 97.695521,1.2633097 96.792498,1.3425547 95.34132,1.4160189 94.470683,1.426563 93.600046,1.437107 91.726383,1.6163953 90.30699,1.824981 70.882354,4.6795096 53.330136,12.523871 38.009021,25.197762 34.901035,27.768744 27.631594,35.038185 25.060613,38.146171 12.386721,53.467286 4.5423598,71.019504 1.6878313,90.444139 1.4792455,91.863533 1.2999574,93.737196 1.2894133,94.607833 1.2788692,95.47847 1.2054052,96.929647 1.1261599,97.832671 1.0469147,98.735695 0.96861964,77.331131 0.95217089,50.266973 Z M 209.29612,96.57713 C 208.59823,82.395082 203.23999,65.419834 195.24229,52.053705 190.47396,44.08463 185.87515,38.207216 179.13131,31.463375 172.38747,24.719535 166.51006,20.120729 158.54098,15.35239 145.17485,7.3546963 128.19961,1.9964595 114.01756,1.2985727 c -1.59357,-0.078418 19.21685,-0.1644781 46.24539,-0.1912439 27.02854,-0.026766 49.17211,-0.019353 49.20794,0.016472 0.0358,0.035825 0.0432,22.1793962 0.0164,49.2079352 -0.0268,27.028537 -0.11282,47.838966 -0.19123,46.245394 z"
       style="fill:#b2710f;stroke-width:0.19316019" />
  </g>
</svg>
