<?xml version="1.0" encoding="UTF-8" standalone="no"?>
<!-- Created with Inkscape (http://www.inkscape.org/) -->

<svg
   xmlns:dc="http://purl.org/dc/elements/1.1/"
   xmlns:cc="http://creativecommons.org/ns#"
   xmlns:rdf="http://www.w3.org/1999/02/22-rdf-syntax-ns#"
   xmlns:svg="http://www.w3.org/2000/svg"
   xmlns="http://www.w3.org/2000/svg"
   xmlns:sodipodi="http://sodipodi.sourceforge.net/DTD/sodipodi-0.dtd"
   xmlns:inkscape="http://www.inkscape.org/namespaces/inkscape"
   width="100%"
   height="100%"
   viewBox="0 0 210 210"
   version="1.1"
   id="svg8"
   sodipodi:docname="Power_Map.svg"
   inkscape:version="0.92.3 (2405546, 2018-03-11)">
  <defs
     id="defs2" />
  <sodipodi:namedview
     id="base"
     pagecolor="#ffffff"
     bordercolor="#666666"
     borderopacity="1.0"
     inkscape:pageopacity="0.0"
     inkscape:pageshadow="2"
     inkscape:zoom="0.35"
     inkscape:cx="400"
     inkscape:cy="560"
     inkscape:document-units="mm"
     inkscape:current-layer="layer1"
     showgrid="false"
     inkscape:window-width="1419"
     inkscape:window-height="859"
     inkscape:window-x="689"
     inkscape:window-y="52"
     inkscape:window-maximized="0" />
  <metadata
     id="metadata5">
    <rdf:RDF>
      <cc:Work
         rdf:about="">
        <dc:format>image/svg+xml</dc:format>
        <dc:type
           rdf:resource="http://purl.org/dc/dcmitype/StillImage" />
        <dc:title></dc:title>
      </cc:Work>
    </rdf:RDF>
  </metadata>
  <g
     inkscape:label="Livello 1"
     inkscape:groupmode="layer"
     id="layer1">
    <path
       inkscape:connector-curvature="0"
       id="path3798"
       d="m 98.825358,208.46418 c -3.64366,-0.38737 -7.090821,-0.99314 -9.161639,-1.60999 l -2.186019,-0.65116 0.240039,-1.5134 c 0.132024,-0.83237 0.601549,-6.12962 1.043388,-11.77166 1.777953,-22.70337 4.582344,-35.28115 10.728687,-48.11849 3.213966,-6.71274 6.303206,-9.12261 11.694436,-9.12261 5.19222,0 7.93312,2.0309 11.0097,8.15775 6.2834,12.51305 9.2221,25.88855 11.3249,51.54533 0.64232,7.83712 0.55642,8.44133 -1.32558,9.3242 -2.19468,1.02956 -7.29641,2.27555 -12.2359,2.98837 -4.24389,0.61244 -17.9291,1.11217 -21.132012,0.77166 z M 70.307397,201.98645 C 41.750035,191.95967 17.840454,166.13052 9.1759645,135.94711 6.3405587,126.06976 5.2992974,118.50266 5.2992974,107.77441 c 0,-8.503809 0.3682071,-12.444598 1.8594498,-19.901032 C 11.130069,68.016185 21.312573,49.395826 35.890526,35.332659 73.152841,-0.6138261 131.07125,-2.6682109 170.83833,30.546016 c 16.02649,13.385626 27.72672,32.105768 33.00898,52.813728 3.56492,13.975501 3.86556,31.475306 0.78247,45.546676 -2.44697,11.16809 -7.3297,23.08354 -13.39949,32.69916 -7.69163,12.18489 -19.71312,24.24978 -31.36046,31.4737 -6.20135,3.84619 -13.41421,7.06303 -14.10247,6.28951 -0.14479,-0.16273 -0.57463,-2.67523 -0.95521,-5.58334 -2.30197,-17.5898 -6.14648,-33.30259 -10.73563,-43.87716 -3.74221,-8.62302 -6.83144,-12.86977 -11.73167,-16.12743 -6.05085,-4.0226 -11.63655,-5.05196 -16.54388,-3.0488 -8.363325,3.41388 -13.165048,8.37053 -17.47421,18.03801 -5.152667,11.55984 -8.487922,24.50449 -11.057764,42.91691 -1.728791,12.38644 -1.438195,11.28823 -2.97947,11.26001 -0.72324,-0.0132 -2.515198,-0.44548 -3.982129,-0.96054 z"
       style="fill:#20fdda;stroke-width:0.41033038" />
    <path
       inkscape:connector-curvature="0"
       id="path3796"
       d="m 98.825358,208.46418 c -3.64366,-0.38737 -7.090821,-0.99314 -9.161639,-1.60999 l -2.186019,-0.65116 0.240039,-1.5134 c 0.132024,-0.83237 0.601549,-6.12962 1.043388,-11.77166 1.777953,-22.70337 4.582344,-35.28115 10.728687,-48.11849 3.213966,-6.71274 6.303206,-9.12261 11.694436,-9.12261 5.19222,0 7.93312,2.0309 11.0097,8.15775 6.2834,12.51305 9.2221,25.88855 11.3249,51.54533 0.64232,7.83712 0.55642,8.44133 -1.32558,9.3242 -2.19468,1.02956 -7.29641,2.27555 -12.2359,2.98837 -4.24389,0.61244 -17.9291,1.11217 -21.132012,0.77166 z M 57.38199,195.48798 C 51.309417,193.30421 41.296449,185.89896 33.574262,177.8806 18.162478,161.87773 9.0463227,142.82748 5.8187038,119.87915 c -0.6699739,-4.7635 -0.6699739,-19.44599 0,-24.209494 C 9.1903044,71.697624 19.372858,51.267044 35.890526,35.332659 73.152841,-0.6138261 131.07125,-2.6682109 170.83833,30.546016 c 16.02649,13.385626 27.72672,32.105768 33.00898,52.813728 3.56492,13.975501 3.86556,31.475306 0.78247,45.546676 -4.59043,20.95092 -16.21023,40.75944 -32.01536,54.57723 -4.61806,4.03739 -11.09132,8.40849 -12.45231,8.40849 -0.66922,0 -3.52049,-6.35234 -7.36713,-16.41322 -7.06524,-18.47909 -10.7504,-26.57603 -15.24867,-33.50395 -2.86623,-4.41436 -18.10282,-19.52281 -21.08522,-20.90788 -3.8364,-1.78169 -12.63544,-1.99818 -15.75014,-0.3875 -1.534854,0.79371 -2.280445,1.8986 -2.921032,4.32869 -0.803645,3.04868 -1.467555,3.95043 -6.744309,9.16052 -7.944809,7.84443 -12.385782,15.50656 -19.305741,33.30868 -6.099827,15.69228 -9.45521,23.46466 -11.692889,27.0853 -0.973336,1.57489 -0.914823,1.55458 -2.664989,0.9252 z"
       style="fill:#fe01e1;stroke-width:0.41033038" />
    <path
       inkscape:connector-curvature="0"
       id="path3794"
       d="m 98.825358,208.46418 c -3.64366,-0.38737 -7.090821,-0.99314 -9.161639,-1.60999 l -2.186019,-0.65116 0.240039,-1.5134 c 0.132024,-0.83237 0.601549,-6.12962 1.043388,-11.77166 1.777953,-22.70337 4.582344,-35.28115 10.728687,-48.11849 3.213966,-6.71274 6.303206,-9.12261 11.694436,-9.12261 5.19222,0 7.93312,2.0309 11.0097,8.15775 6.2834,12.51305 9.2221,25.88855 11.3249,51.54533 0.64232,7.83712 0.55642,8.44133 -1.32558,9.3242 -2.19468,1.02956 -7.29641,2.27555 -12.2359,2.98837 -4.24389,0.61244 -17.9291,1.11217 -21.132012,0.77166 z M 57.38199,195.48798 C 51.309417,193.30421 41.296449,185.89896 33.574262,177.8806 18.162478,161.87773 9.0463227,142.82748 5.8187038,119.87915 c -0.6699739,-4.7635 -0.6699739,-19.44599 0,-24.209494 1.8026507,-12.816822 5.0729542,-23.340127 10.6360632,-34.225122 3.799958,-7.43515 8.788627,-14.399031 10.314935,-14.399031 0.39272,0 3.009575,1.670927 5.815233,3.71317 4.528615,3.296385 8.254529,5.818953 20.283421,13.732552 4.889136,3.216478 14.427901,8.968838 29.543787,17.816403 14.239465,8.334582 14.893761,8.738421 17.130008,10.572811 2.629289,2.156804 4.257949,2.732505 7.070399,2.499274 1.82481,-0.151326 2.77842,-0.59445 6.21156,-2.886396 2.23068,-1.489191 7.84108,-4.769184 12.46755,-7.288871 4.62648,-2.519691 9.05805,-4.998342 9.84793,-5.508116 0.78989,-0.509774 3.00567,-1.814645 4.92397,-2.899714 8.7417,-4.944691 29.27351,-18.314146 35.9039,-23.379133 5.26744,-4.023815 8.71895,-6.37198 9.36604,-6.37198 1.3018,0 5.65556,5.958473 9.22393,12.623692 5.9517,11.116942 9.31352,21.16339 11.22292,33.538479 1.63334,10.585856 1.16449,25.132666 -1.15057,35.698746 -4.59043,20.95092 -16.21023,40.75944 -32.01536,54.57723 -4.61806,4.03739 -11.09132,8.40849 -12.45231,8.40849 -0.66922,0 -3.52049,-6.35234 -7.36713,-16.41322 -7.06524,-18.47909 -10.7504,-26.57603 -15.24867,-33.50395 -2.86623,-4.41436 -18.10282,-19.52281 -21.08522,-20.90788 -3.8364,-1.78169 -12.63544,-1.99818 -15.75014,-0.3875 -1.534854,0.79371 -2.280445,1.8986 -2.921032,4.32869 -0.803645,3.04868 -1.467555,3.95043 -6.744309,9.16052 -7.944809,7.84443 -12.385782,15.50656 -19.305741,33.30868 -6.099827,15.69228 -9.45521,23.46466 -11.692889,27.0853 -0.973336,1.57489 -0.914823,1.55458 -2.664989,0.9252 z"
       style="fill:#e8f000;stroke-width:0.41033038" />
    <path
       inkscape:connector-curvature="0"
       id="path3792"
       d="m 98.825358,208.46418 c -3.64366,-0.38737 -7.090821,-0.99314 -9.161639,-1.60999 l -2.186019,-0.65116 0.240039,-1.5134 c 0.132024,-0.83237 0.601549,-6.12962 1.043388,-11.77166 1.777953,-22.70337 4.582344,-35.28115 10.728687,-48.11849 3.213966,-6.71274 6.303206,-9.12261 11.694436,-9.12261 5.19222,0 7.93312,2.0309 11.0097,8.15775 6.2834,12.51305 9.2221,25.88855 11.3249,51.54533 0.64232,7.83712 0.55642,8.44133 -1.32558,9.3242 -2.19468,1.02956 -7.29641,2.27555 -12.2359,2.98837 -4.24389,0.61244 -17.9291,1.11217 -21.132012,0.77166 z M 57.38199,195.48798 C 51.309417,193.30421 41.296449,185.89896 33.574262,177.8806 16.088009,159.7237 6.3382042,136.87614 5.226506,111.45087 4.753787,100.63947 6.6375251,86.236685 9.0218736,82.432048 l 0.5813831,-0.927699 0.9108663,0.859937 c 1.585093,1.496463 2.420603,1.838991 17.939576,7.354574 10.659284,3.788408 21.156864,8.472913 25.235318,11.26116 2.837775,1.94006 8.881137,4.65606 12.757179,5.73332 2.051451,0.57016 7.036965,1.61005 11.07892,2.31086 16.087454,2.78935 21.654275,3.4487 32.789484,3.88372 15.41301,0.60214 20.09607,1.30199 21.9553,3.28105 0.88498,0.94202 0.98602,1.43389 1.03959,5.06086 0.0833,5.644 0.85447,7.1643 6.79727,13.40122 2.58047,2.70818 7.08856,8.05928 10.01798,11.89133 8.56213,11.20037 13.29557,15.39204 19.03597,16.85721 10.67455,2.72456 22.62841,-6.36403 25.66876,-19.51611 0.73279,-3.16994 0.81018,-8.54301 0.16668,-11.57164 -0.87085,-4.09861 -4.69957,-10.50402 -8.25142,-13.80456 -2.78189,-2.58506 -7.74396,-5.65002 -17.75288,-10.96555 -8.8127,-4.68025 -11.52114,-8.764748 -8.22858,-12.409213 2.43124,-2.691102 8.30237,-5.311497 21.35915,-9.532993 9.96393,-3.22152 17.91286,-6.037273 18.38981,-6.514229 0.87979,-0.879785 1.43618,-0.402111 2.4696,2.120214 4.28175,10.450747 5.01384,33.389541 1.52817,47.883071 -2.03224,8.4501 -4.94384,16.09189 -9.70185,25.46349 -6.02921,11.87541 -12.80761,20.70692 -22.21855,28.94833 -4.58486,4.01509 -11.06633,8.39174 -12.42749,8.39174 -0.66922,0 -3.52049,-6.35234 -7.36713,-16.41322 -7.06524,-18.47909 -10.7504,-26.57603 -15.24867,-33.50395 -2.86623,-4.41436 -18.10282,-19.52281 -21.08522,-20.90788 -3.8364,-1.78169 -12.63544,-1.99818 -15.75014,-0.3875 -1.534854,0.79371 -2.280445,1.8986 -2.921032,4.32869 -0.803645,3.04868 -1.467555,3.95043 -6.744309,9.16052 -7.944809,7.84443 -12.385782,15.50656 -19.305741,33.30868 -6.099827,15.69228 -9.45521,23.46466 -11.692889,27.0853 -0.973336,1.57489 -0.914823,1.55458 -2.664989,0.9252 z M 55.698942,160.9728 c 3.974087,-1.9641 8.907042,-6.76766 15.864127,-15.448 2.803615,-3.49806 6.414658,-7.74498 8.02454,-9.4376 5.548167,-5.83329 6.30139,-7.98488 3.665576,-10.47078 -4.089886,-3.85726 -17.744466,-6.48481 -26.810601,-5.15916 -9.196193,1.34466 -17.253609,6.22368 -20.825224,12.61032 -3.923219,7.01537 -4.399884,13.3968 -1.46858,19.66085 1.973302,4.21685 5.154414,7.2787 9.443016,9.089 1.933029,0.81596 2.838193,0.94804 5.660914,0.82598 2.884688,-0.12474 3.796528,-0.36105 6.446232,-1.67061 z m 4.857142,-20.8139 c -1.278528,-0.49078 -1.786685,-2.01425 -1.28179,-3.84283 0.953387,-3.45288 5.221442,-6.37116 9.796757,-6.69852 3.396641,-0.24303 4.518989,0.25696 4.518989,2.01316 0,2.4182 -6.98496,7.98687 -10.873755,8.66897 -0.677045,0.11875 -1.649138,0.0554 -2.160201,-0.14078 z m 99.203326,4.12939 c -3.03282,-1.10673 -5.89739,-3.1309 -11.02529,-7.79076 -4.99714,-4.54102 -7.02924,-7.23435 -7.02924,-9.31651 0,-4.40817 5.38966,-6.75 12.21345,-5.30679 5.69593,1.20467 11.07061,5.0843 13.46321,9.71822 1.50899,2.92255 1.6964,7.96043 0.37932,10.19649 -1.76314,2.99334 -4.39495,3.81541 -8.00145,2.49935 z m -55.3946,-35.91581 C 99.987495,107.6779 84.811783,102.57259 80.57987,100.3709 78.830853,99.460961 76.051119,97.501732 74.402687,96.017062 71.11649,93.057329 68.628608,91.359414 64.562772,89.301579 60.646669,87.319527 50.900814,82.855165 47.123731,81.313143 45.318277,80.57605 40.469399,78.473049 36.348447,76.639812 c -4.120953,-1.833241 -7.598339,-3.333163 -7.727524,-3.333163 -0.129185,0 -3.285202,-1.425668 -7.01337,-3.168153 l -6.778488,-3.168153 0.209771,-1.563954 c 0.561435,-4.185809 9.617965,-18.360886 11.730866,-18.360886 0.39272,0 3.009575,1.670927 5.815233,3.71317 4.528615,3.296385 8.254529,5.818953 20.283421,13.732552 4.889136,3.216478 14.427901,8.968838 29.543787,17.816403 14.239465,8.334582 14.893761,8.738421 17.130008,10.572811 2.629289,2.156804 4.257949,2.732505 7.070399,2.499274 1.82481,-0.151326 2.77842,-0.59445 6.21156,-2.886396 2.23068,-1.489191 7.84108,-4.769184 12.46755,-7.288871 4.62648,-2.519691 9.05805,-4.998342 9.84793,-5.508116 0.78989,-0.509774 3.00567,-1.814645 4.92397,-2.899714 8.7417,-4.944691 29.27351,-18.314146 35.9039,-23.379133 5.18647,-3.961962 8.71595,-6.37198 9.33178,-6.37198 1.90355,0 9.96292,12.432186 10.80641,16.66971 0.25514,1.281798 0.25345,1.283189 -4.19684,3.44014 -5.33566,2.586066 -14.49269,6.709637 -24.55828,11.05902 -18.3298,7.920378 -22.79775,10.086307 -27.46042,13.312009 -2.70614,1.872145 -5.08733,5.141928 -6.21331,8.531928 -0.96701,2.9114 -3.78736,5.70947 -6.91688,6.86226 -5.31298,1.95707 -15.18005,2.59677 -22.39511,1.45191 z"
       style="fill:#a0fd00;stroke-width:0.41033038" />
    <path
       inkscape:connector-curvature="0"
       id="path3790"
       d="m 98.825358,208.46418 c -3.64366,-0.38737 -7.090821,-0.99314 -9.161639,-1.60999 l -2.186019,-0.65116 0.240039,-1.5134 c 0.132024,-0.83237 0.601549,-6.12962 1.043388,-11.77166 1.777953,-22.70337 4.582344,-35.28115 10.728687,-48.11849 3.213966,-6.71274 6.303206,-9.12261 11.694436,-9.12261 5.19222,0 7.93312,2.0309 11.0097,8.15775 6.2834,12.51305 9.2221,25.88855 11.3249,51.54533 0.64232,7.83712 0.55642,8.44133 -1.32558,9.3242 -2.19468,1.02956 -7.29641,2.27555 -12.2359,2.98837 -4.24389,0.61244 -17.9291,1.11217 -21.132012,0.77166 z M 57.38199,195.48798 c -4.029891,-1.4492 -11.020612,-6.07848 -16.291244,-10.78811 -3.687094,-3.29465 -9.532967,-9.58949 -9.20765,-9.91481 0.07769,-0.0777 1.473383,0.13898 3.10155,0.48148 5.420556,1.14024 11.183261,0.66765 15.585007,-1.2781 3.455273,-1.52739 7.957179,-5.19508 10.955533,-8.92546 1.472151,-1.83157 5.59641,-7.66937 9.16502,-12.97289 7.4327,-11.04616 8.640261,-12.63713 13.419125,-17.67973 6.296798,-6.64431 6.129351,-7.98193 -1.83613,-14.66744 -1.179819,-0.99023 -2.117875,-2.12195 -2.117875,-2.5551 0,-2.68189 7.194888,-3.32509 27.286964,-2.43936 10.28684,0.45349 14.3646,0.96048 17.09092,2.12495 2.69022,1.14906 3.50724,2.19776 4.91435,6.30795 1.50971,4.40986 2.55035,5.95712 7.48234,11.125 4.9897,5.22835 6.35814,6.88938 9.01966,10.94821 1.20737,1.84124 4.31477,6.57906 6.90535,10.52849 5.51991,8.41534 8.14721,11.78782 11.27352,14.47109 3.82261,3.28089 5.82643,4.1787 13.22403,5.92502 l 1.38499,0.32695 -1.62923,2.05097 c -4.05259,5.10161 -14.5156,13.33505 -16.94611,13.33505 -0.66922,0 -3.52049,-6.35234 -7.36713,-16.41322 -7.06524,-18.47909 -10.7504,-26.57603 -15.24867,-33.50395 -2.86623,-4.41436 -18.10282,-19.52281 -21.08522,-20.90788 -3.8364,-1.78169 -12.63544,-1.99818 -15.75014,-0.3875 -1.534854,0.79371 -2.280445,1.8986 -2.921032,4.32869 -0.803645,3.04868 -1.467555,3.95043 -6.744309,9.16052 -7.944809,7.84443 -12.385782,15.50656 -19.305741,33.30868 -6.099827,15.69228 -9.45521,23.46466 -11.692889,27.0853 -0.973336,1.57489 -0.914823,1.55458 -2.664989,0.9252 z m 102.37742,-51.19969 c -3.03282,-1.10673 -5.89739,-3.1309 -11.02529,-7.79076 -4.99714,-4.54102 -7.02924,-7.23435 -7.02924,-9.31651 0,-4.40817 5.38966,-6.75 12.21345,-5.30679 5.69593,1.20467 11.07061,5.0843 13.46321,9.71822 1.50899,2.92255 1.6964,7.96043 0.37932,10.19649 -1.76314,2.99334 -4.39495,3.81541 -8.00145,2.49935 z M 60.556084,140.1589 c -1.278528,-0.49078 -1.786685,-2.01425 -1.28179,-3.84283 0.953387,-3.45288 5.221442,-6.37116 9.796757,-6.69852 3.396641,-0.24303 4.518989,0.25696 4.518989,2.01316 0,2.4182 -6.98496,7.98687 -10.873755,8.66897 -0.677045,0.11875 -1.649138,0.0554 -2.160201,-0.14078 z M 7.2308139,123.36696 c -0.273584,-1.46693 -0.8094616,-5.25223 -1.190839,-8.41177 -0.6297402,-5.21712 -0.6379977,-6.27213 -0.089926,-11.48925 l 0.6034868,-5.744632 0.7607673,2.256818 c 0.6128026,1.817874 0.7906402,3.852954 0.9143601,10.463424 0.084476,4.51364 0.00644,9.86845 -0.173415,11.89959 l -0.3270079,3.69297 z M 104.36481,108.37248 C 99.987495,107.6779 84.811783,102.57259 80.57987,100.3709 78.830853,99.460961 76.051119,97.501732 74.402687,96.017062 71.11649,93.057329 68.628608,91.359414 64.562772,89.301579 60.646669,87.319527 50.900814,82.855165 47.123731,81.313143 45.318277,80.57605 40.469399,78.473049 36.348447,76.639812 c -4.120953,-1.833241 -7.598339,-3.333163 -7.727524,-3.333163 -0.129185,0 -3.285202,-1.425668 -7.01337,-3.168153 l -6.778488,-3.168153 0.209771,-1.563954 c 0.561435,-4.185809 9.617965,-18.360886 11.730866,-18.360886 0.39272,0 3.009575,1.670927 5.815233,3.71317 4.528615,3.296385 8.254529,5.818953 20.283421,13.732552 4.889136,3.216478 14.427901,8.968838 29.543787,17.816403 14.239465,8.334582 14.893761,8.738421 17.130008,10.572811 2.629289,2.156804 4.257949,2.732505 7.070399,2.499274 1.82481,-0.151326 2.77842,-0.59445 6.21156,-2.886396 2.23068,-1.489191 7.84108,-4.769184 12.46755,-7.288871 4.62648,-2.519691 9.05805,-4.998342 9.84793,-5.508116 0.78989,-0.509774 3.00567,-1.814645 4.92397,-2.899714 8.7417,-4.944691 29.27351,-18.314146 35.9039,-23.379133 5.18647,-3.961962 8.71595,-6.37198 9.33178,-6.37198 1.90355,0 9.96292,12.432186 10.80641,16.66971 0.25514,1.281798 0.25345,1.283189 -4.19684,3.44014 -5.33566,2.586066 -14.49269,6.709637 -24.55828,11.05902 -18.3298,7.920378 -22.79775,10.086307 -27.46042,13.312009 -2.70614,1.872145 -5.08733,5.141928 -6.21331,8.531928 -0.96701,2.9114 -3.78736,5.70947 -6.91688,6.86226 -5.31298,1.95707 -15.18005,2.59677 -22.39511,1.45191 z"
       style="fill:#3a3afe;stroke-width:0.41033038" />
    <path
       inkscape:connector-curvature="0"
       id="path3788"
       d="m 57.38199,195.48798 c -4.029891,-1.4492 -11.020612,-6.07848 -16.291244,-10.78811 -3.687094,-3.29465 -9.532967,-9.58949 -9.20765,-9.91481 0.07769,-0.0777 1.473383,0.13898 3.10155,0.48148 5.420556,1.14024 11.183261,0.66765 15.585007,-1.2781 3.455273,-1.52739 7.957179,-5.19508 10.955533,-8.92546 1.472151,-1.83157 5.59641,-7.66937 9.16502,-12.97289 7.4327,-11.04616 8.640261,-12.63713 13.419125,-17.67973 6.296798,-6.64431 6.129351,-7.98193 -1.83613,-14.66744 -1.179819,-0.99023 -2.117875,-2.12195 -2.117875,-2.5551 0,-2.68189 7.194888,-3.32509 27.286964,-2.43936 10.28684,0.45349 14.3646,0.96048 17.09092,2.12495 2.69022,1.14906 3.50724,2.19776 4.91435,6.30795 1.50971,4.40986 2.55035,5.95712 7.48234,11.125 4.9897,5.22835 6.35814,6.88938 9.01966,10.94821 1.20737,1.84124 4.31477,6.57906 6.90535,10.52849 5.51991,8.41534 8.14721,11.78782 11.27352,14.47109 3.82261,3.28089 5.82643,4.1787 13.22403,5.92502 l 1.38499,0.32695 -1.62923,2.05097 c -4.05259,5.10161 -14.5156,13.33505 -16.94611,13.33505 -0.66922,0 -3.52049,-6.35234 -7.36713,-16.41322 -7.06524,-18.47909 -10.7504,-26.57603 -15.24867,-33.50395 -2.86623,-4.41436 -18.10282,-19.52281 -21.08522,-20.90788 -3.8364,-1.78169 -12.63544,-1.99818 -15.75014,-0.3875 -1.534854,0.79371 -2.280445,1.8986 -2.921032,4.32869 -0.803645,3.04868 -1.467555,3.95043 -6.744309,9.16052 -7.944809,7.84443 -12.385782,15.50656 -19.305741,33.30868 -6.099827,15.69228 -9.45521,23.46466 -11.692889,27.0853 -0.973336,1.57489 -0.914823,1.55458 -2.664989,0.9252 z m 102.37742,-51.19969 c -3.03282,-1.10673 -5.89739,-3.1309 -11.02529,-7.79076 -4.99714,-4.54102 -7.02924,-7.23435 -7.02924,-9.31651 0,-4.40817 5.38966,-6.75 12.21345,-5.30679 5.69593,1.20467 11.07061,5.0843 13.46321,9.71822 1.50899,2.92255 1.6964,7.96043 0.37932,10.19649 -1.76314,2.99334 -4.39495,3.81541 -8.00145,2.49935 z M 60.556084,140.1589 c -1.278528,-0.49078 -1.786685,-2.01425 -1.28179,-3.84283 0.953387,-3.45288 5.221442,-6.37116 9.796757,-6.69852 3.396641,-0.24303 4.518989,0.25696 4.518989,2.01316 0,2.4182 -6.98496,7.98687 -10.873755,8.66897 -0.677045,0.11875 -1.649138,0.0554 -2.160201,-0.14078 z M 7.2308139,123.36696 c -0.273584,-1.46693 -0.8094616,-5.25223 -1.190839,-8.41177 -0.6297402,-5.21712 -0.6379977,-6.27213 -0.089926,-11.48925 l 0.6034868,-5.744632 0.7607673,2.256818 c 0.6128026,1.817874 0.7906402,3.852954 0.9143601,10.463424 0.084476,4.51364 0.00644,9.86845 -0.173415,11.89959 l -0.3270079,3.69297 z M 104.36481,108.37248 C 99.987495,107.6779 84.811783,102.57259 80.57987,100.3709 78.830853,99.460961 76.051119,97.501732 74.402687,96.017062 71.11649,93.057329 68.628608,91.359414 64.562772,89.301579 60.646669,87.319527 50.900814,82.855165 47.123731,81.313143 45.318277,80.57605 40.469399,78.473049 36.348447,76.639812 c -4.120953,-1.833241 -7.598339,-3.333163 -7.727524,-3.333163 -0.129185,0 -3.285202,-1.425668 -7.01337,-3.168153 l -6.778488,-3.168153 0.209771,-1.563954 c 0.561435,-4.185809 9.617965,-18.360886 11.730866,-18.360886 0.39272,0 3.009575,1.670927 5.815233,3.71317 4.528615,3.296385 8.254529,5.818953 20.283421,13.732552 4.889136,3.216478 14.427901,8.968838 29.543787,17.816403 14.239465,8.334582 14.893761,8.738421 17.130008,10.572811 2.629289,2.156804 4.257949,2.732505 7.070399,2.499274 1.82481,-0.151326 2.77842,-0.59445 6.21156,-2.886396 2.23068,-1.489191 7.84108,-4.769184 12.46755,-7.288871 4.62648,-2.519691 9.05805,-4.998342 9.84793,-5.508116 0.78989,-0.509774 3.00567,-1.814645 4.92397,-2.899714 8.7417,-4.944691 29.27351,-18.314146 35.9039,-23.379133 5.18647,-3.961962 8.71595,-6.37198 9.33178,-6.37198 1.90355,0 9.96292,12.432186 10.80641,16.66971 0.25514,1.281798 0.25345,1.283189 -4.19684,3.44014 -5.33566,2.586066 -14.49269,6.709637 -24.55828,11.05902 -18.3298,7.920378 -22.79775,10.086307 -27.46042,13.312009 -2.70614,1.872145 -5.08733,5.141928 -6.21331,8.531928 -0.96701,2.9114 -3.78736,5.70947 -6.91688,6.86226 -5.31298,1.95707 -15.18005,2.59677 -22.39511,1.45191 z"
       style="fill:#34fd17;stroke-width:0.41033038" />
    <path
       inkscape:connector-curvature="0"
       id="path3786"
       d="m 159.75941,144.28829 c -3.03282,-1.10673 -5.89739,-3.1309 -11.02529,-7.79076 -4.99714,-4.54102 -7.02924,-7.23435 -7.02924,-9.31651 0,-4.40817 5.38966,-6.75 12.21345,-5.30679 5.69593,1.20467 11.07061,5.0843 13.46321,9.71822 1.50899,2.92255 1.6964,7.96043 0.37932,10.19649 -1.76314,2.99334 -4.39495,3.81541 -8.00145,2.49935 z M 60.556084,140.1589 c -1.278528,-0.49078 -1.786685,-2.01425 -1.28179,-3.84283 0.953387,-3.45288 5.221442,-6.37116 9.796757,-6.69852 3.396641,-0.24303 4.518989,0.25696 4.518989,2.01316 0,2.4182 -6.98496,7.98687 -10.873755,8.66897 -0.677045,0.11875 -1.649138,0.0554 -2.160201,-0.14078 z M 104.36481,108.37248 C 99.987495,107.6779 84.811783,102.57259 80.57987,100.3709 78.830853,99.460961 76.051119,97.501732 74.402687,96.017062 71.11649,93.057329 68.628608,91.359414 64.562772,89.301579 60.646669,87.319527 50.900814,82.855165 47.123731,81.313143 45.318277,80.57605 40.469399,78.473049 36.348447,76.639812 c -4.120953,-1.833241 -7.598339,-3.333163 -7.727524,-3.333163 -0.129185,0 -3.285202,-1.425668 -7.01337,-3.168153 l -6.778488,-3.168153 0.209771,-1.563954 c 0.561435,-4.185809 9.617965,-18.360886 11.730866,-18.360886 0.39272,0 3.009575,1.670927 5.815233,3.71317 4.528615,3.296385 8.254529,5.818953 20.283421,13.732552 4.889136,3.216478 14.427901,8.968838 29.543787,17.816403 14.239465,8.334582 14.893761,8.738421 17.130008,10.572811 2.629289,2.156804 4.257949,2.732505 7.070399,2.499274 1.82481,-0.151326 2.77842,-0.59445 6.21156,-2.886396 2.23068,-1.489191 7.84108,-4.769184 12.46755,-7.288871 4.62648,-2.519691 9.05805,-4.998342 9.84793,-5.508116 0.78989,-0.509774 3.00567,-1.814645 4.92397,-2.899714 8.7417,-4.944691 29.27351,-18.314146 35.9039,-23.379133 5.18647,-3.961962 8.71595,-6.37198 9.33178,-6.37198 1.90355,0 9.96292,12.432186 10.80641,16.66971 0.25514,1.281798 0.25345,1.283189 -4.19684,3.44014 -5.33566,2.586066 -14.49269,6.709637 -24.55828,11.05902 -18.3298,7.920378 -22.79775,10.086307 -27.46042,13.312009 -2.70614,1.872145 -5.08733,5.141928 -6.21331,8.531928 -0.96701,2.9114 -3.78736,5.70947 -6.91688,6.86226 -5.31298,1.95707 -15.18005,2.59677 -22.39511,1.45191 z"
       style="fill:#fe251f;stroke-width:0.41033038" />
  </g>
</svg>
